<svg width="897" height="274" viewBox="0 0 897 274" fill="none" xmlns="http://www.w3.org/2000/svg">
<rect width="897" height="274" rx="24" fill="#C70E10"/>
<circle opacity="0.5" cx="752" cy="137" r="79" fill="white"/>
<path d="M787.747 133.725V141.013C787.747 142.958 786.19 144.55 784.209 144.621H777.275C773.454 144.621 769.952 141.826 769.634 138.005C769.421 135.777 770.27 133.689 771.756 132.239C773.065 130.894 774.869 130.116 776.851 130.116H784.209C786.19 130.187 787.747 131.779 787.747 133.725Z" fill="white"/>
<path opacity="0.4" d="M771.755 132.239C770.27 133.689 769.421 135.776 769.633 138.005C769.951 141.826 773.453 144.621 777.274 144.621H784.208V149.751C784.208 160.364 777.133 167.439 766.52 167.439H734.68C724.066 167.439 716.991 160.364 716.991 149.751V124.986C716.991 115.363 722.793 108.642 731.814 107.51C732.734 107.368 733.689 107.297 734.68 107.297H766.52C767.439 107.297 768.324 107.333 769.173 107.474C778.3 108.536 784.208 115.293 784.208 124.986V130.116H776.85C774.869 130.116 773.064 130.894 771.755 132.239Z" fill="white"/>
<path d="M755.908 129.409H734.681C733.23 129.409 732.028 128.206 732.028 126.756C732.028 125.305 733.23 124.103 734.681 124.103H755.908C757.358 124.103 758.561 125.305 758.561 126.756C758.561 128.206 757.358 129.409 755.908 129.409Z" fill="white"/>
<path d="M36.85 112H31.921L26.434 91.23H30.154L33.533 104.374L34.463 108.776H34.711L35.827 104.374L40.012 91.23H44.879L49.343 104.374L50.521 108.776H50.769L51.637 104.374L54.737 91.23H58.395L53.187 112H48.258L44.073 99.91L42.554 94.578H42.275L40.787 99.91L36.85 112ZM64.2724 112.31C61.0794 112.31 59.0644 110.822 59.0644 108.28C59.0644 105.893 60.9864 104.653 64.0244 104.312L71.0304 103.568V102.669C71.0304 100.127 69.9144 99.228 66.9694 99.228C64.1174 99.228 62.7224 100.158 62.7224 102.421V102.545H59.4054V102.421C59.4054 98.918 62.3194 96.283 67.2174 96.283C72.1154 96.283 74.3164 98.949 74.3164 102.638V112H71.2474V108.156H71.0304C70.2244 110.76 67.7754 112.31 64.2724 112.31ZM62.4124 108.063C62.4124 109.303 63.2494 109.892 65.1714 109.892C68.6744 109.892 71.0304 108.59 71.0304 105.552L64.9854 106.234C63.2494 106.451 62.4124 106.854 62.4124 108.063ZM80.033 112H76.685V91.23H80.033V112ZM85.8612 112H82.5132V91.23H85.8612V112ZM96.0915 112.31C91.0385 112.31 87.7215 109.458 87.7215 104.312C87.7215 99.507 91.0075 96.283 96.0295 96.283C100.803 96.283 104.058 98.918 104.058 103.599C104.058 104.157 104.027 104.591 103.934 105.056H90.8525C90.9765 108.032 92.4335 109.613 95.9985 109.613C99.2225 109.613 100.555 108.559 100.555 106.73V106.482H103.903V106.761C103.903 110.047 100.679 112.31 96.0915 112.31ZM95.9675 98.918C92.5575 98.918 91.0695 100.437 90.8835 103.196H100.896V103.134C100.896 100.282 99.2535 98.918 95.9675 98.918ZM116.052 112H112.518C109.201 112 107.155 110.543 107.155 106.792V99.383H104.551V96.593H107.155V93.214H110.472V96.593H116.052V99.383H110.472V106.606C110.472 108.497 111.34 108.993 113.262 108.993H116.052V112ZM125.552 112H122.204V91.23H132.372C136.991 91.23 140.153 93.865 140.153 98.484C140.153 103.072 136.991 105.738 132.372 105.738H125.552V112ZM132.062 94.237H125.552V102.731H132.062C135.193 102.731 136.805 101.553 136.805 98.484C136.805 95.415 135.193 94.237 132.062 94.237ZM144.882 112H141.534V96.593H144.603V100.747H144.82C145.285 98.267 146.959 96.283 150.121 96.283C153.624 96.283 155.143 98.794 155.143 101.708V103.723H151.826V102.359C151.826 100.158 150.896 99.135 148.602 99.135C145.967 99.135 144.882 100.592 144.882 103.351V112ZM164.5 112.31C159.385 112.31 155.944 109.055 155.944 104.312C155.944 99.507 159.385 96.283 164.5 96.283C169.646 96.283 173.087 99.507 173.087 104.312C173.087 109.055 169.646 112.31 164.5 112.31ZM164.5 109.334C168.251 109.334 169.801 107.567 169.801 104.312C169.801 101.026 168.251 99.228 164.5 99.228C160.78 99.228 159.23 101.026 159.23 104.312C159.23 107.567 160.78 109.334 164.5 109.334ZM181.593 110.605C177.005 110.605 174.277 107.722 174.277 103.444C174.277 99.166 177.129 96.283 181.81 96.283C185.034 96.283 187.452 97.74 188.01 100.437H188.196V96.593H191.265V110.202C191.265 115.379 188.041 117.58 182.988 117.58C178.431 117.58 175.269 115.441 175.269 111.721H178.586C178.586 113.953 179.888 114.79 183.174 114.79C186.677 114.79 187.948 113.829 187.948 110.388V106.606H187.731C187.173 108.931 185.096 110.605 181.593 110.605ZM177.656 103.444C177.656 106.606 179.516 107.722 182.678 107.722C186.088 107.722 187.948 106.296 187.948 103.568V103.134C187.948 100.53 186.026 99.197 182.771 99.197C179.547 99.197 177.656 100.282 177.656 103.444ZM197.091 112H193.743V96.593H196.812V100.747H197.029C197.494 98.267 199.168 96.283 202.33 96.283C205.833 96.283 207.352 98.794 207.352 101.708V103.723H204.035V102.359C204.035 100.158 203.105 99.135 200.811 99.135C198.176 99.135 197.091 100.592 197.091 103.351V112ZM213.361 112.31C210.168 112.31 208.153 110.822 208.153 108.28C208.153 105.893 210.075 104.653 213.113 104.312L220.119 103.568V102.669C220.119 100.127 219.003 99.228 216.058 99.228C213.206 99.228 211.811 100.158 211.811 102.421V102.545H208.494V102.421C208.494 98.918 211.408 96.283 216.306 96.283C221.204 96.283 223.405 98.949 223.405 102.638V112H220.336V108.156H220.119C219.313 110.76 216.864 112.31 213.361 112.31ZM211.501 108.063C211.501 109.303 212.338 109.892 214.26 109.892C217.763 109.892 220.119 108.59 220.119 105.552L214.074 106.234C212.338 106.451 211.501 106.854 211.501 108.063ZM229.121 112H225.773V96.593H228.842V101.243H229.028C229.431 98.67 231.105 96.283 234.949 96.283C238.452 96.283 240.343 98.422 240.777 101.367H240.963C241.366 98.732 243.102 96.283 247.008 96.283C251.007 96.283 253.022 99.011 253.022 102.731V112H249.705V103.63C249.705 100.592 248.496 99.29 245.52 99.29C242.234 99.29 241.056 100.964 241.056 104.374V112H237.739V103.63C237.739 100.592 236.561 99.29 233.585 99.29C230.268 99.29 229.121 100.964 229.121 104.374V112ZM259.054 105.18H255.799C255.799 102.173 255.303 95.787 255.303 93.4V91.23H259.55V93.4C259.55 95.787 259.054 102.204 259.054 105.18ZM259.302 112H255.52V107.412H259.302V112Z" fill="white"/>
<path d="M27.328 144H26.08L30.928 133.28H32.512L37.376 144H36.096L34.656 140.848H28.768L27.328 144ZM31.072 135.76L29.232 139.824H34.192L32.336 135.76L31.744 134.368H31.648L31.072 135.76ZM41.8211 144.16C39.2931 144.16 37.8851 142.448 37.8851 140.048C37.8851 137.648 39.2931 135.936 41.7251 135.936C43.5971 135.936 44.7651 136.944 45.1171 138.304H45.1971V133.28H46.3331V144H45.2931V141.664H45.2291C44.8451 143.248 43.5651 144.16 41.8211 144.16ZM39.0371 140.048C39.0371 142.336 40.2531 143.12 42.1091 143.12C43.9651 143.12 45.1971 142.048 45.1971 140.176V140.032C45.1971 138.08 44.0291 136.992 42.0771 136.992C40.2691 136.992 39.0371 137.76 39.0371 140.048ZM51.6493 144.16C49.1213 144.16 47.7133 142.448 47.7133 140.048C47.7133 137.648 49.1213 135.936 51.5533 135.936C53.4253 135.936 54.5933 136.944 54.9453 138.304H55.0253V133.28H56.1613V144H55.1213V141.664H55.0573C54.6733 143.248 53.3933 144.16 51.6493 144.16ZM48.8653 140.048C48.8653 142.336 50.0813 143.12 51.9373 143.12C53.7933 143.12 55.0253 142.048 55.0253 140.176V140.032C55.0253 138.08 53.8573 136.992 51.9053 136.992C50.0973 136.992 48.8653 137.76 48.8653 140.048ZM62.7029 144H61.5669V137.072H60.3029V136.096H61.5829C61.7109 134.224 62.9749 133.28 65.0229 133.28H65.8869V134.176H64.8629C63.4229 134.176 62.6389 134.656 62.7029 136.096H65.8869V137.072H62.7029V144ZM70.3189 144.16C68.0629 144.16 66.9589 142.592 66.9589 140.72V136.096H68.0949V140.544C68.0949 142.192 68.8949 143.136 70.7189 143.136C72.6549 143.136 73.6629 141.968 73.6629 139.936V136.096H74.7989V144H73.7749V141.536H73.6949C73.4229 142.88 72.2869 144.16 70.3189 144.16ZM77.846 144H76.71V136.096H77.734V138.576H77.814C78.086 137.232 79.206 135.936 81.174 135.936C83.398 135.936 84.502 137.52 84.502 139.392V144H83.366V139.552C83.366 137.92 82.582 136.976 80.774 136.976C78.854 136.976 77.846 138.144 77.846 140.176V144ZM89.7586 144.16C87.2306 144.16 85.8226 142.448 85.8226 140.048C85.8226 137.648 87.2306 135.936 89.6626 135.936C91.5346 135.936 92.7026 136.944 93.0546 138.304H93.1346V133.28H94.2706V144H93.2306V141.664H93.1666C92.7826 143.248 91.5026 144.16 89.7586 144.16ZM86.9746 140.048C86.9746 142.336 88.1906 143.12 90.0466 143.12C91.9026 143.12 93.1346 142.048 93.1346 140.176V140.032C93.1346 138.08 91.9666 136.992 90.0146 136.992C88.2066 136.992 86.9746 137.76 86.9746 140.048ZM99.6508 144.16C97.2188 144.16 95.8108 143.184 95.8108 141.36V141.328H96.9468V141.424C96.9468 142.752 97.7308 143.216 99.6668 143.216C101.443 143.216 102.051 142.8 102.051 141.888C102.051 141.056 101.555 140.784 100.243 140.576L98.1308 140.272C96.6908 140.08 95.7788 139.52 95.7788 138.208C95.7788 136.816 97.1068 135.936 99.2828 135.936C101.555 135.936 103.027 136.896 103.027 138.752V138.784H101.891V138.704C101.891 137.52 101.267 136.88 99.2508 136.88C97.5868 136.88 96.8988 137.28 96.8988 138.224C96.8988 139.04 97.3148 139.328 98.6268 139.52L100.563 139.792C102.259 140.032 103.171 140.608 103.171 141.888C103.171 143.376 101.699 144.16 99.6508 144.16ZM104.503 145.408H104.167V144.72H104.487C104.695 144.72 104.807 144.672 104.807 144.384V144H104.183V141.776H105.591V144.368C105.591 145.072 105.175 145.408 104.503 145.408ZM114.824 144H113.112C111.544 144 110.536 143.344 110.536 141.488V137.072H109.128V136.096H110.536V134.208H111.688V136.096H114.824V137.072H111.688V141.552C111.688 142.656 112.232 142.96 113.384 142.96H114.824V144ZM117.205 144H116.069V136.096H117.093V138.256H117.173C117.413 136.992 118.309 135.936 119.957 135.936C121.781 135.936 122.581 137.28 122.581 138.752V139.536H121.445V138.928C121.445 137.584 120.885 136.928 119.509 136.928C117.909 136.928 117.205 137.936 117.205 139.712V144ZM126.09 144.16C124.538 144.16 123.482 143.424 123.482 142.144C123.482 140.848 124.554 140.288 126.026 140.128L129.786 139.712V139.104C129.786 137.568 129.114 136.96 127.386 136.96C125.69 136.96 124.794 137.568 124.794 138.96V139.024H123.658V138.96C123.658 137.296 125.034 135.936 127.466 135.936C129.866 135.936 130.89 137.312 130.89 139.056V144H129.866V141.872H129.786C129.322 143.328 127.93 144.16 126.09 144.16ZM124.618 142.064C124.618 142.864 125.146 143.28 126.346 143.28C128.266 143.28 129.786 142.432 129.786 140.528V140.464L126.378 140.848C125.194 140.96 124.618 141.248 124.618 142.064ZM136.533 144.16C134.005 144.16 132.357 142.448 132.357 140.048C132.357 137.648 134.005 135.936 136.533 135.936C138.741 135.936 140.469 137.248 140.469 139.152V139.28H139.349V139.184C139.349 137.776 138.325 136.976 136.517 136.976C134.405 136.976 133.493 138.112 133.493 140.048C133.493 141.984 134.405 143.12 136.517 143.12C138.325 143.12 139.349 142.32 139.349 140.912V140.816H140.469V140.944C140.469 142.848 138.741 144.16 136.533 144.16ZM143.127 144H141.991V133.28H143.127V139.408H145.783L148.423 136.096H149.767L146.711 139.872L149.751 144H148.423L145.767 140.448H143.127V144ZM154.844 146.72H153.852V145.68H155.052C155.852 145.68 156.156 145.44 156.46 144.784L156.844 143.984L152.924 136.096H154.172L156.492 140.8L157.372 142.736H157.468L158.316 140.784L160.508 136.096H161.756L157.468 145.104C156.892 146.32 156.156 146.72 154.844 146.72ZM166.723 144.16C164.147 144.16 162.435 142.448 162.435 140.048C162.435 137.648 164.147 135.936 166.723 135.936C169.315 135.936 171.027 137.648 171.027 140.048C171.027 142.448 169.315 144.16 166.723 144.16ZM166.723 143.136C168.899 143.136 169.907 141.968 169.907 140.048C169.907 138.144 168.899 136.96 166.723 136.96C164.547 136.96 163.555 138.144 163.555 140.048C163.555 141.968 164.547 143.136 166.723 143.136ZM175.85 144.16C173.594 144.16 172.49 142.592 172.49 140.72V136.096H173.626V140.544C173.626 142.192 174.426 143.136 176.25 143.136C178.186 143.136 179.194 141.968 179.194 139.936V136.096H180.33V144H179.306V141.536H179.226C178.954 142.88 177.818 144.16 175.85 144.16ZM183.377 144H182.241V136.096H183.265V138.256H183.345C183.585 136.992 184.481 135.936 186.129 135.936C187.953 135.936 188.753 137.28 188.753 138.752V139.536H187.617V138.928C187.617 137.584 187.057 136.928 185.681 136.928C184.081 136.928 183.377 137.936 183.377 139.712V144ZM194.031 144H193.007V133.28H194.143V138.304H194.223C194.559 136.944 195.695 135.936 197.599 135.936C200.079 135.936 201.439 137.648 201.439 140.048C201.439 142.448 200.079 144.16 197.503 144.16C195.743 144.16 194.479 143.248 194.111 141.664H194.031V144ZM194.143 140.176C194.143 142.048 195.327 143.12 197.231 143.12C199.119 143.12 200.287 142.336 200.287 140.048C200.287 137.76 199.087 136.992 197.263 136.992C195.263 136.992 194.143 138.08 194.143 140.032V140.176ZM205.027 144.16C203.475 144.16 202.419 143.424 202.419 142.144C202.419 140.848 203.491 140.288 204.963 140.128L208.723 139.712V139.104C208.723 137.568 208.051 136.96 206.323 136.96C204.627 136.96 203.731 137.568 203.731 138.96V139.024H202.595V138.96C202.595 137.296 203.971 135.936 206.403 135.936C208.803 135.936 209.827 137.312 209.827 139.056V144H208.803V141.872H208.723C208.259 143.328 206.867 144.16 205.027 144.16ZM203.555 142.064C203.555 142.864 204.083 143.28 205.283 143.28C207.203 143.28 208.723 142.432 208.723 140.528V140.464L205.315 140.848C204.131 140.96 203.555 141.248 203.555 142.064ZM212.83 144H211.694V133.28H212.83V144ZM216.933 144.16C215.381 144.16 214.325 143.424 214.325 142.144C214.325 140.848 215.397 140.288 216.869 140.128L220.629 139.712V139.104C220.629 137.568 219.957 136.96 218.229 136.96C216.533 136.96 215.637 137.568 215.637 138.96V139.024H214.501V138.96C214.501 137.296 215.877 135.936 218.309 135.936C220.709 135.936 221.733 137.312 221.733 139.056V144H220.709V141.872H220.629C220.165 143.328 218.773 144.16 216.933 144.16ZM215.461 142.064C215.461 142.864 215.989 143.28 217.189 143.28C219.109 143.28 220.629 142.432 220.629 140.528V140.464L217.221 140.848C216.037 140.96 215.461 141.248 215.461 142.064ZM224.737 144H223.601V136.096H224.625V138.576H224.705C224.977 137.232 226.097 135.936 228.065 135.936C230.289 135.936 231.393 137.52 231.393 139.392V144H230.257V139.552C230.257 137.92 229.473 136.976 227.665 136.976C225.745 136.976 224.737 138.144 224.737 140.176V144ZM237.017 144.16C234.489 144.16 232.841 142.448 232.841 140.048C232.841 137.648 234.489 135.936 237.017 135.936C239.225 135.936 240.953 137.248 240.953 139.152V139.28H239.833V139.184C239.833 137.776 238.809 136.976 237.001 136.976C234.889 136.976 233.977 138.112 233.977 140.048C233.977 141.984 234.889 143.12 237.001 143.12C238.809 143.12 239.833 142.32 239.833 140.912V140.816H240.953V140.944C240.953 142.848 239.225 144.16 237.017 144.16ZM246.236 144.16C243.692 144.16 242.076 142.56 242.076 140.048C242.076 137.648 243.676 135.936 246.22 135.936C248.54 135.936 250.188 137.28 250.188 139.632C250.188 139.92 250.156 140.16 250.108 140.368H243.148C243.212 142.144 244.124 143.216 246.22 143.216C248.076 143.216 248.94 142.528 248.94 141.376V141.264H250.076V141.376C250.076 143.024 248.444 144.16 246.236 144.16ZM246.204 136.88C244.156 136.88 243.228 137.936 243.148 139.664H249.116C249.116 139.584 249.116 139.504 249.116 139.424C249.116 137.76 248.06 136.88 246.204 136.88ZM251.534 145.408H251.198V144.72H251.518C251.726 144.72 251.838 144.672 251.838 144.384V144H251.214V141.776H252.622V144.368C252.622 145.072 252.206 145.408 251.534 145.408ZM259.199 144.16C257.647 144.16 256.591 143.424 256.591 142.144C256.591 140.848 257.663 140.288 259.135 140.128L262.895 139.712V139.104C262.895 137.568 262.223 136.96 260.495 136.96C258.799 136.96 257.903 137.568 257.903 138.96V139.024H256.767V138.96C256.767 137.296 258.143 135.936 260.575 135.936C262.975 135.936 263.999 137.312 263.999 139.056V144H262.975V141.872H262.895C262.431 143.328 261.039 144.16 259.199 144.16ZM257.727 142.064C257.727 142.864 258.255 143.28 259.455 143.28C261.375 143.28 262.895 142.432 262.895 140.528V140.464L259.487 140.848C258.303 140.96 257.727 141.248 257.727 142.064ZM267.002 144H265.866V136.096H266.89V138.576H266.97C267.242 137.232 268.362 135.936 270.33 135.936C272.554 135.936 273.658 137.52 273.658 139.392V144H272.522V139.552C272.522 137.92 271.738 136.976 269.93 136.976C268.01 136.976 267.002 138.144 267.002 140.176V144ZM278.915 144.16C276.387 144.16 274.979 142.448 274.979 140.048C274.979 137.648 276.387 135.936 278.819 135.936C280.691 135.936 281.859 136.944 282.211 138.304H282.291V133.28H283.427V144H282.387V141.664H282.323C281.939 143.248 280.659 144.16 278.915 144.16ZM276.131 140.048C276.131 142.336 277.347 143.12 279.203 143.12C281.059 143.12 282.291 142.048 282.291 140.176V140.032C282.291 138.08 281.123 136.992 279.171 136.992C277.363 136.992 276.131 137.76 276.131 140.048ZM292.033 144.16C289.489 144.16 287.873 142.56 287.873 140.048C287.873 137.648 289.473 135.936 292.016 135.936C294.337 135.936 295.985 137.28 295.985 139.632C295.985 139.92 295.953 140.16 295.905 140.368H288.945C289.009 142.144 289.921 143.216 292.016 143.216C293.873 143.216 294.737 142.528 294.737 141.376V141.264H295.873V141.376C295.873 143.024 294.241 144.16 292.033 144.16ZM292.001 136.88C289.953 136.88 289.025 137.936 288.945 139.664H294.913C294.913 139.584 294.913 139.504 294.913 139.424C294.913 137.76 293.857 136.88 292.001 136.88ZM298.627 144H297.491V136.096H298.515V138.576H298.595C298.867 137.232 299.987 135.936 301.955 135.936C304.179 135.936 305.283 137.52 305.283 139.392V144H304.147V139.552C304.147 137.92 303.363 136.976 301.555 136.976C299.635 136.976 298.627 138.144 298.627 140.176V144ZM308.284 135.088H307.148V133.28H308.284V135.088ZM305.836 146.72H305.228V145.792H305.9C306.7 145.792 307.148 145.472 307.148 144.608V136.096H308.284V144.368C308.284 146.096 307.228 146.72 305.836 146.72ZM314.082 144.16C311.506 144.16 309.794 142.448 309.794 140.048C309.794 137.648 311.506 135.936 314.082 135.936C316.674 135.936 318.386 137.648 318.386 140.048C318.386 142.448 316.674 144.16 314.082 144.16ZM314.082 143.136C316.258 143.136 317.266 141.968 317.266 140.048C317.266 138.144 316.258 136.96 314.082 136.96C311.906 136.96 310.914 138.144 310.914 140.048C310.914 141.968 311.906 143.136 314.082 143.136ZM320.938 146.72H319.946V145.68H321.146C321.946 145.68 322.25 145.44 322.554 144.784L322.938 143.984L319.018 136.096H320.266L322.586 140.8L323.466 142.736H323.562L324.41 140.784L326.602 136.096H327.85L323.562 145.104C322.986 146.32 322.25 146.72 320.938 146.72ZM335.354 144.16C332.922 144.16 331.514 143.184 331.514 141.36V141.328H332.65V141.424C332.65 142.752 333.434 143.216 335.37 143.216C337.146 143.216 337.754 142.8 337.754 141.888C337.754 141.056 337.258 140.784 335.946 140.576L333.834 140.272C332.394 140.08 331.482 139.52 331.482 138.208C331.482 136.816 332.81 135.936 334.986 135.936C337.258 135.936 338.73 136.896 338.73 138.752V138.784H337.594V138.704C337.594 137.52 336.97 136.88 334.954 136.88C333.29 136.88 332.602 137.28 332.602 138.224C332.602 139.04 333.018 139.328 334.33 139.52L336.266 139.792C337.962 140.032 338.874 140.608 338.874 141.888C338.874 143.376 337.402 144.16 335.354 144.16ZM344.126 144.16C341.582 144.16 339.966 142.56 339.966 140.048C339.966 137.648 341.566 135.936 344.11 135.936C346.43 135.936 348.078 137.28 348.078 139.632C348.078 139.92 348.046 140.16 347.998 140.368H341.038C341.102 142.144 342.014 143.216 344.11 143.216C345.966 143.216 346.83 142.528 346.83 141.376V141.264H347.966V141.376C347.966 143.024 346.334 144.16 344.126 144.16ZM344.094 136.88C342.046 136.88 341.118 137.936 341.038 139.664H347.006C347.006 139.584 347.006 139.504 347.006 139.424C347.006 137.76 345.95 136.88 344.094 136.88ZM351.777 144.16C350.225 144.16 349.169 143.424 349.169 142.144C349.169 140.848 350.241 140.288 351.713 140.128L355.473 139.712V139.104C355.473 137.568 354.801 136.96 353.073 136.96C351.377 136.96 350.481 137.568 350.481 138.96V139.024H349.345V138.96C349.345 137.296 350.721 135.936 353.153 135.936C355.553 135.936 356.577 137.312 356.577 139.056V144H355.553V141.872H355.473C355.009 143.328 353.617 144.16 351.777 144.16ZM350.305 142.064C350.305 142.864 350.833 143.28 352.033 143.28C353.953 143.28 355.473 142.432 355.473 140.528V140.464L352.065 140.848C350.881 140.96 350.305 141.248 350.305 142.064ZM359.58 144H358.444V136.096H359.468V138.48H359.532C359.756 137.152 360.668 135.936 362.636 135.936C364.396 135.936 365.388 137.024 365.644 138.56H365.724C365.948 137.2 366.892 135.936 368.876 135.936C370.94 135.936 372.012 137.392 372.012 139.392V144H370.876V139.552C370.876 137.792 370.124 136.976 368.46 136.976C366.556 136.976 365.788 138.08 365.788 140.176V144H364.652V139.552C364.652 137.792 363.916 136.976 362.252 136.976C360.332 136.976 359.58 138.08 359.58 140.176V144ZM375.002 144H373.866V133.28H375.002V144ZM380.673 144.16C378.129 144.16 376.513 142.56 376.513 140.048C376.513 137.648 378.113 135.936 380.657 135.936C382.977 135.936 384.625 137.28 384.625 139.632C384.625 139.92 384.593 140.16 384.545 140.368H377.585C377.649 142.144 378.561 143.216 380.657 143.216C382.513 143.216 383.377 142.528 383.377 141.376V141.264H384.513V141.376C384.513 143.024 382.881 144.16 380.673 144.16ZM380.641 136.88C378.593 136.88 377.665 137.936 377.585 139.664H383.553C383.553 139.584 383.553 139.504 383.553 139.424C383.553 137.76 382.497 136.88 380.641 136.88ZM389.604 144.16C387.172 144.16 385.764 143.184 385.764 141.36V141.328H386.9V141.424C386.9 142.752 387.684 143.216 389.62 143.216C391.396 143.216 392.004 142.8 392.004 141.888C392.004 141.056 391.508 140.784 390.196 140.576L388.084 140.272C386.644 140.08 385.732 139.52 385.732 138.208C385.732 136.816 387.06 135.936 389.236 135.936C391.508 135.936 392.98 136.896 392.98 138.752V138.784H391.844V138.704C391.844 137.52 391.22 136.88 389.204 136.88C387.54 136.88 386.852 137.28 386.852 138.224C386.852 139.04 387.268 139.328 388.58 139.52L390.516 139.792C392.212 140.032 393.124 140.608 393.124 141.888C393.124 143.376 391.652 144.16 389.604 144.16ZM398.088 144.16C395.656 144.16 394.248 143.184 394.248 141.36V141.328H395.384V141.424C395.384 142.752 396.168 143.216 398.104 143.216C399.88 143.216 400.488 142.8 400.488 141.888C400.488 141.056 399.992 140.784 398.68 140.576L396.568 140.272C395.128 140.08 394.216 139.52 394.216 138.208C394.216 136.816 395.544 135.936 397.72 135.936C399.992 135.936 401.464 136.896 401.464 138.752V138.784H400.328V138.704C400.328 137.52 399.704 136.88 397.688 136.88C396.024 136.88 395.336 137.28 395.336 138.224C395.336 139.04 395.752 139.328 397.064 139.52L399 139.792C400.696 140.032 401.608 140.608 401.608 141.888C401.608 143.376 400.136 144.16 398.088 144.16ZM31.808 164H30.096C28.528 164 27.52 163.344 27.52 161.488V157.072H26.112V156.096H27.52V154.208H28.672V156.096H31.808V157.072H28.672V161.552C28.672 162.656 29.216 162.96 30.368 162.96H31.808V164ZM34.1898 164H33.0538V156.096H34.0778V158.256H34.1578C34.3978 156.992 35.2938 155.936 36.9418 155.936C38.7658 155.936 39.5658 157.28 39.5658 158.752V159.536H38.4298V158.928C38.4298 157.584 37.8698 156.928 36.4938 156.928C34.8938 156.928 34.1898 157.936 34.1898 159.712V164ZM43.0739 164.16C41.5219 164.16 40.4659 163.424 40.4659 162.144C40.4659 160.848 41.5379 160.288 43.0099 160.128L46.7699 159.712V159.104C46.7699 157.568 46.0979 156.96 44.3699 156.96C42.6739 156.96 41.7779 157.568 41.7779 158.96V159.024H40.6419V158.96C40.6419 157.296 42.0179 155.936 44.4499 155.936C46.8499 155.936 47.8739 157.312 47.8739 159.056V164H46.8499V161.872H46.7699C46.3059 163.328 44.9139 164.16 43.0739 164.16ZM41.6019 162.064C41.6019 162.864 42.1299 163.28 43.3299 163.28C45.2499 163.28 46.7699 162.432 46.7699 160.528V160.464L43.3619 160.848C42.1779 160.96 41.6019 161.248 41.6019 162.064ZM50.8773 164H49.7413V156.096H50.7653V158.576H50.8453C51.1173 157.232 52.2373 155.936 54.2053 155.936C56.4293 155.936 57.5333 157.52 57.5333 159.392V164H56.3973V159.552C56.3973 157.92 55.6133 156.976 53.8053 156.976C51.8853 156.976 50.8773 158.144 50.8773 160.176V164ZM62.8539 164.16C60.4219 164.16 59.0139 163.184 59.0139 161.36V161.328H60.1499V161.424C60.1499 162.752 60.9339 163.216 62.8699 163.216C64.6459 163.216 65.2539 162.8 65.2539 161.888C65.2539 161.056 64.7579 160.784 63.4459 160.576L61.3339 160.272C59.8939 160.08 58.9819 159.52 58.9819 158.208C58.9819 156.816 60.3099 155.936 62.4859 155.936C64.7579 155.936 66.2299 156.896 66.2299 158.752V158.784H65.0939V158.704C65.0939 157.52 64.4699 156.88 62.4539 156.88C60.7899 156.88 60.1019 157.28 60.1019 158.224C60.1019 159.04 60.5179 159.328 61.8299 159.52L63.7659 159.792C65.4619 160.032 66.3739 160.608 66.3739 161.888C66.3739 163.376 64.9019 164.16 62.8539 164.16ZM70.0583 164.16C68.5063 164.16 67.4503 163.424 67.4503 162.144C67.4503 160.848 68.5223 160.288 69.9943 160.128L73.7543 159.712V159.104C73.7543 157.568 73.0823 156.96 71.3543 156.96C69.6583 156.96 68.7623 157.568 68.7623 158.96V159.024H67.6263V158.96C67.6263 157.296 69.0023 155.936 71.4343 155.936C73.8343 155.936 74.8583 157.312 74.8583 159.056V164H73.8343V161.872H73.7543C73.2903 163.328 71.8983 164.16 70.0583 164.16ZM68.5863 162.064C68.5863 162.864 69.1143 163.28 70.3143 163.28C72.2343 163.28 73.7543 162.432 73.7543 160.528V160.464L70.3463 160.848C69.1623 160.96 68.5863 161.248 68.5863 162.064ZM80.5016 164.16C77.9736 164.16 76.3256 162.448 76.3256 160.048C76.3256 157.648 77.9736 155.936 80.5016 155.936C82.7096 155.936 84.4376 157.248 84.4376 159.152V159.28H83.3176V159.184C83.3176 157.776 82.2936 156.976 80.4856 156.976C78.3736 156.976 77.4616 158.112 77.4616 160.048C77.4616 161.984 78.3736 163.12 80.4856 163.12C82.2936 163.12 83.3176 162.32 83.3176 160.912V160.816H84.4376V160.944C84.4376 162.848 82.7096 164.16 80.5016 164.16ZM90.808 164H89.096C87.528 164 86.52 163.344 86.52 161.488V157.072H85.112V156.096H86.52V154.208H87.672V156.096H90.808V157.072H87.672V161.552C87.672 162.656 88.216 162.96 89.368 162.96H90.808V164ZM93.1898 155.088H92.0538V153.28H93.1898V155.088ZM93.1898 164H92.0538V156.096H93.1898V164ZM98.9726 164.16C96.3966 164.16 94.6846 162.448 94.6846 160.048C94.6846 157.648 96.3966 155.936 98.9726 155.936C101.565 155.936 103.277 157.648 103.277 160.048C103.277 162.448 101.565 164.16 98.9726 164.16ZM98.9726 163.136C101.149 163.136 102.157 161.968 102.157 160.048C102.157 158.144 101.149 156.96 98.9726 156.96C96.7966 156.96 95.8046 158.144 95.8046 160.048C95.8046 161.968 96.7966 163.136 98.9726 163.136ZM105.924 164H104.788V156.096H105.812V158.576H105.892C106.164 157.232 107.284 155.936 109.252 155.936C111.476 155.936 112.58 157.52 112.58 159.392V164H111.444V159.552C111.444 157.92 110.66 156.976 108.852 156.976C106.932 156.976 105.924 158.144 105.924 160.176V164ZM117.901 164.16C115.469 164.16 114.061 163.184 114.061 161.36V161.328H115.197V161.424C115.197 162.752 115.981 163.216 117.917 163.216C119.693 163.216 120.301 162.8 120.301 161.888C120.301 161.056 119.805 160.784 118.493 160.576L116.381 160.272C114.941 160.08 114.029 159.52 114.029 158.208C114.029 156.816 115.357 155.936 117.533 155.936C119.805 155.936 121.277 156.896 121.277 158.752V158.784H120.141V158.704C120.141 157.52 119.517 156.88 117.501 156.88C115.837 156.88 115.149 157.28 115.149 158.224C115.149 159.04 115.565 159.328 116.877 159.52L118.813 159.792C120.509 160.032 121.421 160.608 121.421 161.888C121.421 163.376 119.949 164.16 117.901 164.16ZM128.987 164H127.579L125.051 156.096H126.219L127.899 161.328L128.299 163.008H128.395L128.939 161.232L131.019 156.096H132.475L134.539 161.232L135.083 162.992H135.179L135.563 161.328L137.259 156.096H138.427L135.867 164H134.443L132.395 158.832L131.771 157.072H131.691L131.067 158.832L128.987 164ZM140.674 155.088H139.538V153.28H140.674V155.088ZM140.674 164H139.538V156.096H140.674V164ZM147.433 164H145.721C144.153 164 143.145 163.344 143.145 161.488V157.072H141.737V156.096H143.145V154.208H144.297V156.096H147.433V157.072H144.297V161.552C144.297 162.656 144.841 162.96 145.993 162.96H147.433V164ZM149.815 164H148.679V153.28H149.815V158.512H149.895C150.151 157.184 151.175 155.936 153.191 155.936C155.399 155.936 156.503 157.408 156.503 159.408V164H155.367V159.552C155.367 157.744 154.519 156.976 152.743 156.976C150.631 156.976 149.815 158.32 149.815 160.288V164ZM165.191 164.16C162.615 164.16 160.903 162.448 160.903 160.048C160.903 157.648 162.615 155.936 165.191 155.936C167.783 155.936 169.495 157.648 169.495 160.048C169.495 162.448 167.783 164.16 165.191 164.16ZM165.191 163.136C167.367 163.136 168.375 161.968 168.375 160.048C168.375 158.144 167.367 156.96 165.191 156.96C163.015 156.96 162.023 158.144 162.023 160.048C162.023 161.968 163.015 163.136 165.191 163.136ZM174.319 164.16C172.063 164.16 170.959 162.592 170.959 160.72V156.096H172.095V160.544C172.095 162.192 172.895 163.136 174.719 163.136C176.655 163.136 177.663 161.968 177.663 159.936V156.096H178.799V164H177.775V161.536H177.695C177.423 162.88 176.287 164.16 174.319 164.16ZM181.846 164H180.71V156.096H181.734V158.256H181.814C182.054 156.992 182.95 155.936 184.598 155.936C186.422 155.936 187.222 157.28 187.222 158.752V159.536H186.086V158.928C186.086 157.584 185.526 156.928 184.15 156.928C182.55 156.928 181.846 157.936 181.846 159.712V164ZM192.612 164H191.476V156.096H192.5V158.576H192.58C192.852 157.232 193.972 155.936 195.94 155.936C198.164 155.936 199.268 157.52 199.268 159.392V164H198.132V159.552C198.132 157.92 197.348 156.976 195.54 156.976C193.62 156.976 192.612 158.144 192.612 160.176V164ZM204.876 164.16C202.332 164.16 200.716 162.56 200.716 160.048C200.716 157.648 202.316 155.936 204.86 155.936C207.18 155.936 208.828 157.28 208.828 159.632C208.828 159.92 208.796 160.16 208.748 160.368H201.788C201.852 162.144 202.764 163.216 204.86 163.216C206.716 163.216 207.58 162.528 207.58 161.376V161.264H208.716V161.376C208.716 163.024 207.084 164.16 204.876 164.16ZM204.844 156.88C202.796 156.88 201.868 157.936 201.788 159.664H207.756C207.756 159.584 207.756 159.504 207.756 159.424C207.756 157.76 206.7 156.88 204.844 156.88ZM213.471 164H212.063L209.535 156.096H210.703L212.383 161.328L212.783 163.008H212.879L213.423 161.232L215.503 156.096H216.959L219.023 161.232L219.567 162.992H219.663L220.047 161.328L221.743 156.096H222.911L220.351 164H218.927L216.879 158.832L216.255 157.072H216.175L215.551 158.832L213.471 164ZM230.096 164H228.688L226.16 156.096H227.328L229.008 161.328L229.408 163.008H229.504L230.048 161.232L232.128 156.096H233.584L235.648 161.232L236.192 162.992H236.288L236.672 161.328L238.368 156.096H239.536L236.976 164H235.552L233.504 158.832L232.88 157.072H232.8L232.176 158.832L230.096 164ZM242.84 164.16C241.288 164.16 240.232 163.424 240.232 162.144C240.232 160.848 241.304 160.288 242.776 160.128L246.536 159.712V159.104C246.536 157.568 245.864 156.96 244.136 156.96C242.44 156.96 241.544 157.568 241.544 158.96V159.024H240.408V158.96C240.408 157.296 241.784 155.936 244.216 155.936C246.616 155.936 247.64 157.312 247.64 159.056V164H246.616V161.872H246.536C246.072 163.328 244.68 164.16 242.84 164.16ZM241.368 162.064C241.368 162.864 241.896 163.28 243.096 163.28C245.016 163.28 246.536 162.432 246.536 160.528V160.464L243.128 160.848C241.944 160.96 241.368 161.248 241.368 162.064ZM250.643 164H249.507V153.28H250.643V164ZM253.69 164H252.554V153.28H253.69V164ZM259.361 164.16C256.817 164.16 255.201 162.56 255.201 160.048C255.201 157.648 256.801 155.936 259.345 155.936C261.665 155.936 263.313 157.28 263.313 159.632C263.313 159.92 263.281 160.16 263.233 160.368H256.273C256.337 162.144 257.249 163.216 259.345 163.216C261.201 163.216 262.065 162.528 262.065 161.376V161.264H263.201V161.376C263.201 163.024 261.569 164.16 259.361 164.16ZM259.329 156.88C257.281 156.88 256.353 157.936 256.273 159.664H262.241C262.241 159.584 262.241 159.504 262.241 159.424C262.241 157.76 261.185 156.88 259.329 156.88ZM269.667 164H267.955C266.387 164 265.379 163.344 265.379 161.488V157.072H263.971V156.096H265.379V154.208H266.531V156.096H269.667V157.072H266.531V161.552C266.531 162.656 267.075 162.96 268.227 162.96H269.667V164ZM274.987 166.72H273.851V156.096H274.875V158.32H275.003C275.355 156.896 276.539 155.936 278.411 155.936C280.875 155.936 282.283 157.648 282.283 160.048C282.283 162.448 280.891 164.16 278.379 164.16C276.635 164.16 275.371 163.2 275.003 161.68H274.987V166.72ZM274.987 160.192C274.987 162.064 276.219 163.12 278.075 163.12C279.915 163.12 281.131 162.336 281.131 160.048C281.131 157.76 279.899 156.992 278.107 156.992C276.139 156.992 274.987 158.096 274.987 160.048V160.192ZM284.815 164H283.679V156.096H284.703V158.256H284.783C285.023 156.992 285.919 155.936 287.567 155.936C289.391 155.936 290.191 157.28 290.191 158.752V159.536H289.055V158.928C289.055 157.584 288.495 156.928 287.119 156.928C285.519 156.928 284.815 157.936 284.815 159.712V164ZM295.379 164.16C292.803 164.16 291.091 162.448 291.091 160.048C291.091 157.648 292.803 155.936 295.379 155.936C297.971 155.936 299.683 157.648 299.683 160.048C299.683 162.448 297.971 164.16 295.379 164.16ZM295.379 163.136C297.555 163.136 298.563 161.968 298.563 160.048C298.563 158.144 297.555 156.96 295.379 156.96C293.203 156.96 292.211 158.144 292.211 160.048C292.211 161.968 293.203 163.136 295.379 163.136ZM304.586 163.36C302.234 163.36 300.794 161.808 300.794 159.648C300.794 157.488 302.282 155.936 304.714 155.936C306.378 155.936 307.69 156.72 308.01 158.128H308.09V156.096H309.114V163.248C309.114 165.856 307.466 166.88 305.082 166.88C302.938 166.88 301.306 165.808 301.306 163.968H302.442C302.442 165.36 303.37 165.904 305.13 165.904C307.178 165.904 307.978 165.28 307.978 163.312V161.248H307.898C307.578 162.464 306.41 163.36 304.586 163.36ZM301.93 159.648C301.93 161.664 303.178 162.352 304.89 162.352C306.842 162.352 307.978 161.376 307.978 159.696V159.424C307.978 157.872 306.794 156.944 304.97 156.944C303.194 156.944 301.93 157.632 301.93 159.648ZM312.174 164H311.038V156.096H312.062V158.256H312.142C312.382 156.992 313.278 155.936 314.926 155.936C316.75 155.936 317.55 157.28 317.55 158.752V159.536H316.414V158.928C316.414 157.584 315.854 156.928 314.478 156.928C312.878 156.928 312.174 157.936 312.174 159.712V164ZM321.058 164.16C319.506 164.16 318.45 163.424 318.45 162.144C318.45 160.848 319.522 160.288 320.994 160.128L324.754 159.712V159.104C324.754 157.568 324.082 156.96 322.354 156.96C320.658 156.96 319.762 157.568 319.762 158.96V159.024H318.626V158.96C318.626 157.296 320.002 155.936 322.434 155.936C324.834 155.936 325.858 157.312 325.858 159.056V164H324.834V161.872H324.754C324.29 163.328 322.898 164.16 321.058 164.16ZM319.586 162.064C319.586 162.864 320.114 163.28 321.314 163.28C323.234 163.28 324.754 162.432 324.754 160.528V160.464L321.346 160.848C320.162 160.96 319.586 161.248 319.586 162.064ZM328.862 164H327.726V156.096H328.75V158.48H328.814C329.038 157.152 329.95 155.936 331.918 155.936C333.678 155.936 334.67 157.024 334.926 158.56H335.006C335.23 157.2 336.174 155.936 338.158 155.936C340.222 155.936 341.294 157.392 341.294 159.392V164H340.158V159.552C340.158 157.792 339.406 156.976 337.742 156.976C335.838 156.976 335.07 158.08 335.07 160.176V164H333.934V159.552C333.934 157.792 333.198 156.976 331.534 156.976C329.614 156.976 328.862 158.08 328.862 160.176V164ZM344.076 164H342.668V161.776H344.076V164Z" fill="white"/>
<rect x="26" y="193" width="164" height="44" rx="22" fill="#FFA500"/>
<path d="M57.016 220.16C53.688 220.16 51.48 217.984 51.48 214.64C51.48 211.296 53.688 209.12 57.016 209.12C60.04 209.12 62.152 210.72 62.152 213.28V213.504H60.248V213.28C60.248 211.648 59.208 210.768 57.032 210.768C54.52 210.768 53.304 211.968 53.304 214.64C53.304 217.312 54.52 218.496 57.032 218.496C59.208 218.496 60.248 217.632 60.248 215.984V215.776H62.152V215.984C62.152 218.56 60.056 220.16 57.016 220.16ZM65.153 220H63.425V212.048H65.009V214.192H65.121C65.361 212.912 66.225 211.888 67.857 211.888C69.665 211.888 70.449 213.184 70.449 214.688V215.728H68.737V215.024C68.737 213.888 68.257 213.36 67.073 213.36C65.713 213.36 65.153 214.112 65.153 215.536V220ZM75.5344 220.16C72.9264 220.16 71.2144 218.688 71.2144 216.032C71.2144 213.552 72.9104 211.888 75.5024 211.888C77.9664 211.888 79.6464 213.248 79.6464 215.664C79.6464 215.952 79.6304 216.176 79.5824 216.416H72.8304C72.8944 217.952 73.6464 218.768 75.4864 218.768C77.1504 218.768 77.8384 218.224 77.8384 217.28V217.152H79.5664V217.296C79.5664 218.992 77.9024 220.16 75.5344 220.16ZM75.4704 213.248C73.7104 213.248 72.9424 214.032 72.8464 215.456H78.0144V215.424C78.0144 213.952 77.1664 213.248 75.4704 213.248ZM83.2766 220.16C81.6286 220.16 80.5886 219.392 80.5886 218.08C80.5886 216.848 81.5806 216.208 83.1486 216.032L86.7646 215.648V215.184C86.7646 213.872 86.1886 213.408 84.6686 213.408C83.1966 213.408 82.4766 213.888 82.4766 215.056V215.12H80.7646V215.056C80.7646 213.248 82.2686 211.888 84.7966 211.888C87.3246 211.888 88.4606 213.264 88.4606 215.168V220H86.8766V218.016H86.7646C86.3486 219.36 85.0846 220.16 83.2766 220.16ZM82.3166 217.968C82.3166 218.608 82.7486 218.912 83.7406 218.912C85.5486 218.912 86.7646 218.24 86.7646 216.672L83.6446 217.024C82.7486 217.136 82.3166 217.344 82.3166 217.968ZM95.2191 220H93.3951C91.6831 220 90.6271 219.248 90.6271 217.312V213.488H89.2831V212.048H90.6271V210.304H92.3391V212.048H95.2191V213.488H92.3391V217.216C92.3391 218.192 92.7871 218.448 93.7791 218.448H95.2191V220ZM100.3 220.16C97.692 220.16 95.98 218.688 95.98 216.032C95.98 213.552 97.676 211.888 100.268 211.888C102.732 211.888 104.412 213.248 104.412 215.664C104.412 215.952 104.396 216.176 104.348 216.416H97.596C97.66 217.952 98.412 218.768 100.252 218.768C101.916 218.768 102.604 218.224 102.604 217.28V217.152H104.332V217.296C104.332 218.992 102.668 220.16 100.3 220.16ZM100.236 213.248C98.476 213.248 97.708 214.032 97.612 215.456H102.78V215.424C102.78 213.952 101.932 213.248 100.236 213.248ZM110.777 220.16C109.129 220.16 108.089 219.392 108.089 218.08C108.089 216.848 109.081 216.208 110.649 216.032L114.265 215.648V215.184C114.265 213.872 113.689 213.408 112.169 213.408C110.697 213.408 109.977 213.888 109.977 215.056V215.12H108.265V215.056C108.265 213.248 109.769 211.888 112.297 211.888C114.825 211.888 115.961 213.264 115.961 215.168V220H114.377V218.016H114.265C113.849 219.36 112.585 220.16 110.777 220.16ZM109.817 217.968C109.817 218.608 110.249 218.912 111.241 218.912C113.049 218.912 114.265 218.24 114.265 216.672L111.145 217.024C110.249 217.136 109.817 217.344 109.817 217.968ZM124.046 220H121.902L119.518 212.048H121.31L122.638 216.56L123.006 218.608H123.134L123.726 216.4L125.39 212.048H127.598L129.278 216.4L129.87 218.608H129.998L130.366 216.56L131.694 212.048H133.454L131.038 220H128.894L127.15 215.424L126.542 213.472H126.414L125.806 215.424L124.046 220ZM136.667 220.16C135.019 220.16 133.979 219.392 133.979 218.08C133.979 216.848 134.971 216.208 136.539 216.032L140.155 215.648V215.184C140.155 213.872 139.579 213.408 138.059 213.408C136.587 213.408 135.867 213.888 135.867 215.056V215.12H134.155V215.056C134.155 213.248 135.659 211.888 138.187 211.888C140.715 211.888 141.851 213.264 141.851 215.168V220H140.267V218.016H140.155C139.739 219.36 138.475 220.16 136.667 220.16ZM135.707 217.968C135.707 218.608 136.139 218.912 137.131 218.912C138.939 218.912 140.155 218.24 140.155 216.672L137.035 217.024C136.139 217.136 135.707 217.344 135.707 217.968ZM145.122 220H143.394V209.28H145.122V220ZM148.45 220H146.722V209.28H148.45V220ZM154.05 220.16C151.442 220.16 149.73 218.688 149.73 216.032C149.73 213.552 151.426 211.888 154.018 211.888C156.482 211.888 158.162 213.248 158.162 215.664C158.162 215.952 158.146 216.176 158.098 216.416H151.346C151.41 217.952 152.162 218.768 154.002 218.768C155.666 218.768 156.354 218.224 156.354 217.28V217.152H158.082V217.296C158.082 218.992 156.418 220.16 154.05 220.16ZM153.986 213.248C152.226 213.248 151.458 214.032 151.362 215.456H156.53V215.424C156.53 213.952 155.682 213.248 153.986 213.248ZM164.672 220H162.848C161.136 220 160.08 219.248 160.08 217.312V213.488H158.736V212.048H160.08V210.304H161.792V212.048H164.672V213.488H161.792V217.216C161.792 218.192 162.24 218.448 163.232 218.448H164.672V220Z" fill="white"/>
<path d="M228 223.12H244V207.12H228V223.12Z" fill="white"/>
<path d="M259.032 218.5H252.6V210.46H259.032V211.624H253.896V213.88H258.852V215.032H253.896V217.336H259.032V218.5ZM261.553 218.62C260.317 218.62 259.537 218.044 259.537 217.06C259.537 216.136 260.281 215.656 261.457 215.524L264.169 215.236V214.888C264.169 213.904 263.737 213.556 262.597 213.556C261.493 213.556 260.953 213.916 260.953 214.792V214.84H259.669V214.792C259.669 213.436 260.797 212.416 262.693 212.416C264.589 212.416 265.441 213.448 265.441 214.876V218.5H264.253V217.012H264.169C263.857 218.02 262.909 218.62 261.553 218.62ZM260.833 216.976C260.833 217.456 261.157 217.684 261.901 217.684C263.257 217.684 264.169 217.18 264.169 216.004L261.829 216.268C261.157 216.352 260.833 216.508 260.833 216.976ZM269.178 218.62C267.258 218.62 266.166 217.864 266.166 216.484V216.448H267.462V216.544C267.462 217.324 267.93 217.576 269.178 217.576C270.342 217.576 270.69 217.336 270.69 216.808C270.69 216.316 270.402 216.16 269.55 216.04L267.918 215.824C266.79 215.68 266.106 215.2 266.106 214.204C266.106 213.16 267.054 212.416 268.89 212.416C270.714 212.416 271.818 213.148 271.818 214.564V214.6H270.534V214.528C270.534 213.82 270.174 213.448 268.854 213.448C267.762 213.448 267.378 213.688 267.378 214.252C267.378 214.72 267.618 214.888 268.518 215.008L269.898 215.2C271.314 215.38 271.962 215.86 271.962 216.844C271.962 217.96 270.858 218.62 269.178 218.62ZM273.617 220.54H272.765V219.364H273.929C274.457 219.364 274.673 219.22 274.853 218.812L274.997 218.5L272.057 212.536H273.509L275.033 215.704L275.621 217.132H275.717L276.281 215.692L277.685 212.536H279.113L276.005 219.148C275.513 220.216 274.841 220.54 273.617 220.54ZM285.23 218.62C282.734 218.62 281.078 216.988 281.078 214.48C281.078 211.972 282.734 210.34 285.23 210.34C287.498 210.34 289.082 211.54 289.082 213.46V213.628H287.654V213.46C287.654 212.236 286.874 211.576 285.242 211.576C283.358 211.576 282.446 212.476 282.446 214.48C282.446 216.484 283.358 217.372 285.242 217.372C286.874 217.372 287.654 216.724 287.654 215.488V215.332H289.082V215.488C289.082 217.42 287.51 218.62 285.23 218.62ZM291.093 218.5H289.797V210.46H291.093V214.36H291.165C291.369 213.352 292.101 212.416 293.625 212.416C295.269 212.416 296.073 213.496 296.073 214.948V218.5H294.789V215.26C294.789 214.06 294.249 213.58 293.013 213.58C291.597 213.58 291.093 214.348 291.093 215.608V218.5ZM299.998 218.62C298.042 218.62 296.758 217.516 296.758 215.524C296.758 213.664 298.03 212.416 299.974 212.416C301.822 212.416 303.082 213.436 303.082 215.248C303.082 215.464 303.07 215.632 303.034 215.812H297.97C298.018 216.964 298.582 217.576 299.962 217.576C301.21 217.576 301.726 217.168 301.726 216.46V216.364H303.022V216.472C303.022 217.744 301.774 218.62 299.998 218.62ZM299.95 213.436C298.63 213.436 298.054 214.024 297.982 215.092H301.858V215.068C301.858 213.964 301.222 213.436 299.95 213.436ZM306.825 218.62C304.857 218.62 303.573 217.36 303.573 215.524C303.573 213.664 304.857 212.416 306.825 212.416C308.613 212.416 309.921 213.424 309.921 214.912V215.032H308.637V214.96C308.637 214.036 307.965 213.58 306.801 213.58C305.457 213.58 304.857 214.216 304.857 215.524C304.857 216.808 305.457 217.456 306.801 217.456C307.965 217.456 308.637 217 308.637 216.076V215.992H309.921V216.124C309.921 217.612 308.613 218.62 306.825 218.62ZM311.935 218.5H310.639V210.46H311.935V214.9H313.639L315.427 212.536H316.939L314.695 215.404L316.927 218.5H315.403L313.639 216.064H311.935V218.5ZM320.385 218.62C318.405 218.62 317.073 217.36 317.073 215.524C317.073 213.664 318.405 212.416 320.385 212.416C322.377 212.416 323.709 213.664 323.709 215.524C323.709 217.36 322.377 218.62 320.385 218.62ZM320.385 217.468C321.837 217.468 322.437 216.784 322.437 215.524C322.437 214.252 321.837 213.556 320.385 213.556C318.945 213.556 318.345 214.252 318.345 215.524C318.345 216.784 318.945 217.468 320.385 217.468ZM326.893 218.62C325.213 218.62 324.397 217.504 324.397 216.124V212.536H325.681V215.776C325.681 216.892 326.197 217.456 327.457 217.456C328.777 217.456 329.389 216.784 329.389 215.488V212.536H330.673V218.5H329.485V216.652H329.413C329.221 217.66 328.429 218.62 326.893 218.62ZM335.523 218.5H334.155C332.871 218.5 332.079 217.936 332.079 216.484V213.616H331.071V212.536H332.079V211.228H333.363V212.536H335.523V213.616H333.363V216.412C333.363 217.144 333.699 217.336 334.443 217.336H335.523V218.5Z" fill="#FFA500"/>
<circle cx="353" cy="215" r="1" fill="white"/>
<path d="M370 223.12H386V207.12H370V223.12Z" fill="white"/>
<path d="M397.707 218.5H396.411V210.46H397.707V218.5ZM399.963 218.5H398.667V212.536H399.855V214.384H399.939C400.119 213.376 400.911 212.416 402.423 212.416C404.079 212.416 404.895 213.532 404.895 214.912V218.5H403.599V215.26C403.599 214.144 403.095 213.58 401.859 213.58C400.551 213.58 399.963 214.252 399.963 215.548V218.5ZM408.63 218.62C406.71 218.62 405.618 217.864 405.618 216.484V216.448H406.914V216.544C406.914 217.324 407.382 217.576 408.63 217.576C409.794 217.576 410.142 217.336 410.142 216.808C410.142 216.316 409.854 216.16 409.002 216.04L407.37 215.824C406.242 215.68 405.558 215.2 405.558 214.204C405.558 213.16 406.506 212.416 408.342 212.416C410.166 212.416 411.27 213.148 411.27 214.564V214.6H409.986V214.528C409.986 213.82 409.626 213.448 408.306 213.448C407.214 213.448 406.83 213.688 406.83 214.252C406.83 214.72 407.07 214.888 407.97 215.008L409.35 215.2C410.766 215.38 411.414 215.86 411.414 216.844C411.414 217.96 410.31 218.62 408.63 218.62ZM416.021 218.5H414.653C413.369 218.5 412.577 217.936 412.577 216.484V213.616H411.569V212.536H412.577V211.228H413.861V212.536H416.021V213.616H413.861V216.412C413.861 217.144 414.197 217.336 414.941 217.336H416.021V218.5ZM418.343 218.62C417.107 218.62 416.327 218.044 416.327 217.06C416.327 216.136 417.071 215.656 418.247 215.524L420.959 215.236V214.888C420.959 213.904 420.527 213.556 419.387 213.556C418.283 213.556 417.743 213.916 417.743 214.792V214.84H416.459V214.792C416.459 213.436 417.587 212.416 419.483 212.416C421.379 212.416 422.231 213.448 422.231 214.876V218.5H421.043V217.012H420.959C420.647 218.02 419.699 218.62 418.343 218.62ZM417.623 216.976C417.623 217.456 417.947 217.684 418.691 217.684C420.047 217.684 420.959 217.18 420.959 216.004L418.619 216.268C417.947 216.352 417.623 216.508 417.623 216.976ZM424.444 218.5H423.148V212.536H424.336V214.384H424.42C424.6 213.376 425.392 212.416 426.904 212.416C428.56 212.416 429.376 213.532 429.376 214.912V218.5H428.08V215.26C428.08 214.144 427.576 213.58 426.34 213.58C425.032 213.58 424.444 214.252 424.444 215.548V218.5ZM434.203 218.5H432.835C431.551 218.5 430.759 217.936 430.759 216.484V213.616H429.751V212.536H430.759V211.228H432.043V212.536H434.203V213.616H432.043V216.412C432.043 217.144 432.379 217.336 433.123 217.336H434.203V218.5ZM440.581 218.5H439.297V211.624H436.129V210.46H443.737V211.624H440.581V218.5ZM447.303 218.62C445.323 218.62 443.991 217.36 443.991 215.524C443.991 213.664 445.323 212.416 447.303 212.416C449.295 212.416 450.627 213.664 450.627 215.524C450.627 217.36 449.295 218.62 447.303 218.62ZM447.303 217.468C448.755 217.468 449.355 216.784 449.355 215.524C449.355 214.252 448.755 213.556 447.303 213.556C445.863 213.556 445.263 214.252 445.263 215.524C445.263 216.784 445.863 217.468 447.303 217.468ZM452.623 220.54H451.327V212.536H452.515V214.192H452.623C452.863 213.088 453.703 212.416 455.107 212.416C456.955 212.416 457.999 213.676 457.999 215.524C457.999 217.372 456.979 218.62 455.119 218.62C453.775 218.62 452.911 217.912 452.671 216.82H452.623V220.54ZM452.623 215.62C452.623 216.844 453.403 217.444 454.675 217.444C455.959 217.444 456.703 216.952 456.703 215.524C456.703 214.084 455.947 213.604 454.699 213.604C453.367 213.604 452.623 214.228 452.623 215.512V215.62ZM462.234 215.524H458.418V214.42H462.234V215.524ZM466.673 218.62C464.273 218.62 462.905 217.348 462.905 215.164V210.46H464.189V215.08C464.189 216.7 464.909 217.372 466.673 217.372C468.437 217.372 469.157 216.7 469.157 215.08V210.46H470.453V215.164C470.453 217.348 469.085 218.62 466.673 218.62ZM472.657 220.54H471.361V212.536H472.549V214.192H472.657C472.897 213.088 473.737 212.416 475.141 212.416C476.989 212.416 478.033 213.676 478.033 215.524C478.033 217.372 477.013 218.62 475.153 218.62C473.809 218.62 472.945 217.912 472.705 216.82H472.657V220.54ZM472.657 215.62C472.657 216.844 473.437 217.444 474.709 217.444C475.993 217.444 476.737 216.952 476.737 215.524C476.737 214.084 475.981 213.604 474.733 213.604C473.401 213.604 472.657 214.228 472.657 215.512V215.62Z" fill="#FFA500"/>
</svg>
