<svg width="668" height="274" viewBox="0 0 668 274" fill="none" xmlns="http://www.w3.org/2000/svg">
<g clip-path="url(#clip0_5184_12698)">
<rect width="668" height="274" rx="24" fill="#C70E10"/>
<path d="M35.792 117H33.2V100.92H36.728L41.36 110.232L42.824 113.568H43.016L44.432 110.232L49.016 100.92H52.544V117H49.952V107.136L50.048 104.808H49.856L48.872 107.136L44.432 116.04H41.312L36.872 107.136L35.888 104.808H35.696L35.792 107.136V117ZM60.71 117.24C56.798 117.24 54.23 115.032 54.23 111.048C54.23 107.328 56.774 104.832 60.662 104.832C64.358 104.832 66.878 106.872 66.878 110.496C66.878 110.928 66.854 111.264 66.782 111.624H56.654C56.75 113.928 57.878 115.152 60.638 115.152C63.134 115.152 64.166 114.336 64.166 112.92V112.728H66.758V112.944C66.758 115.488 64.262 117.24 60.71 117.24ZM60.614 106.872C57.974 106.872 56.822 108.048 56.678 110.184H64.43V110.136C64.43 107.928 63.158 106.872 60.614 106.872ZM74.5794 117.24C70.6674 117.24 68.0994 115.032 68.0994 111.048C68.0994 107.328 70.6434 104.832 74.5314 104.832C78.2274 104.832 80.7474 106.872 80.7474 110.496C80.7474 110.928 80.7234 111.264 80.6514 111.624H70.5234C70.6194 113.928 71.7474 115.152 74.5074 115.152C77.0034 115.152 78.0354 114.336 78.0354 112.92V112.728H80.6274V112.944C80.6274 115.488 78.1314 117.24 74.5794 117.24ZM74.4834 106.872C71.8434 106.872 70.6914 108.048 70.5474 110.184H78.2994V110.136C78.2994 107.928 77.0274 106.872 74.4834 106.872ZM90.2727 117H87.5367C84.9687 117 83.3847 115.872 83.3847 112.968V107.232H81.3687V105.072H83.3847V102.456H85.9527V105.072H90.2727V107.232H85.9527V112.824C85.9527 114.288 86.6247 114.672 88.1127 114.672H90.2727V117ZM103.34 117H100.604C98.0356 117 96.4516 115.872 96.4516 112.968V107.232H94.4356V105.072H96.4516V102.456H99.0196V105.072H103.34V107.232H99.0196V112.824C99.0196 114.288 99.6916 114.672 101.18 114.672H103.34V117ZM107.313 117H104.721V100.92H107.313V108.72H107.457C107.865 106.704 109.329 104.832 112.377 104.832C115.665 104.832 117.273 106.992 117.273 109.896V117H114.705V110.52C114.705 108.12 113.625 107.16 111.153 107.16C108.321 107.16 107.313 108.696 107.313 111.216V117ZM125.364 117.24C121.452 117.24 118.884 115.032 118.884 111.048C118.884 107.328 121.428 104.832 125.316 104.832C129.012 104.832 131.532 106.872 131.532 110.496C131.532 110.928 131.508 111.264 131.436 111.624H121.308C121.404 113.928 122.532 115.152 125.292 115.152C127.788 115.152 128.82 114.336 128.82 112.92V112.728H131.412V112.944C131.412 115.488 128.916 117.24 125.364 117.24ZM125.268 106.872C122.628 106.872 121.476 108.048 121.332 110.184H129.084V110.136C129.084 107.928 127.812 106.872 125.268 106.872ZM144.559 117H137.239V100.92H144.559C149.551 100.92 152.695 103.992 152.695 108.96C152.695 113.928 149.551 117 144.559 117ZM144.559 103.248H139.807V114.672H144.559C148.279 114.672 149.959 113.088 149.959 108.96C149.959 104.832 148.279 103.248 144.559 103.248ZM160.386 117.24C156.474 117.24 153.906 115.032 153.906 111.048C153.906 107.328 156.45 104.832 160.338 104.832C164.034 104.832 166.554 106.872 166.554 110.496C166.554 110.928 166.53 111.264 166.458 111.624H156.33C156.426 113.928 157.554 115.152 160.314 115.152C162.81 115.152 163.842 114.336 163.842 112.92V112.728H166.434V112.944C166.434 115.488 163.938 117.24 160.386 117.24ZM160.29 106.872C157.65 106.872 156.498 108.048 156.354 110.184H164.106V110.136C164.106 107.928 162.834 106.872 160.29 106.872ZM175.911 117H172.743L167.175 105.072H170.031L174.279 114.48H174.471L178.719 105.072H181.527L175.911 117ZM188.257 117.24C184.417 117.24 182.233 115.728 182.233 112.968V112.896H184.825V113.088C184.825 114.648 185.761 115.152 188.257 115.152C190.585 115.152 191.281 114.672 191.281 113.616C191.281 112.632 190.705 112.32 189.001 112.08L185.737 111.648C183.481 111.36 182.113 110.4 182.113 108.408C182.113 106.32 184.009 104.832 187.681 104.832C191.329 104.832 193.537 106.296 193.537 109.128V109.2H190.969V109.056C190.969 107.64 190.249 106.896 187.609 106.896C185.425 106.896 184.657 107.376 184.657 108.504C184.657 109.44 185.137 109.776 186.937 110.016L189.697 110.4C192.529 110.76 193.825 111.72 193.825 113.688C193.825 115.92 191.617 117.24 188.257 117.24ZM198.287 111.72H195.767C195.767 109.392 195.383 104.448 195.383 102.6V100.92H198.671V102.6C198.671 104.448 198.287 109.416 198.287 111.72ZM198.479 117H195.551V113.448H198.479V117Z" fill="white"/>
<path d="M33.328 155H32.08L36.928 144.28H38.512L43.376 155H42.096L40.656 151.848H34.768L33.328 155ZM37.072 146.76L35.232 150.824H40.192L38.336 146.76L37.744 145.368H37.648L37.072 146.76ZM49.2611 155H47.5491C45.9811 155 44.9731 154.344 44.9731 152.488V148.072H43.5651V147.096H44.9731V145.208H46.1251V147.096H49.2611V148.072H46.1251V152.552C46.1251 153.656 46.6691 153.96 47.8211 153.96H49.2611V155ZM62.4844 155H53.0604V153.96L60.6284 145.4V145.32H53.3164V144.28H62.2924V145.32L54.6444 153.88V153.96H62.4844V155ZM67.3345 155.16C65.0785 155.16 63.9745 153.592 63.9745 151.72V147.096H65.1105V151.544C65.1105 153.192 65.9105 154.136 67.7345 154.136C69.6705 154.136 70.6785 152.968 70.6785 150.936V147.096H71.8145V155H70.7905V152.536H70.7105C70.4385 153.88 69.3025 155.16 67.3345 155.16ZM74.8616 155H73.7256V147.096H74.7496V149.48H74.8136C75.0376 148.152 75.9496 146.936 77.9176 146.936C79.6776 146.936 80.6696 148.024 80.9256 149.56H81.0056C81.2296 148.2 82.1736 146.936 84.1576 146.936C86.2216 146.936 87.2936 148.392 87.2936 150.392V155H86.1576V150.552C86.1576 148.792 85.4056 147.976 83.7416 147.976C81.8376 147.976 81.0696 149.08 81.0696 151.176V155H79.9336V150.552C79.9336 148.792 79.1976 147.976 77.5336 147.976C75.6136 147.976 74.8616 149.08 74.8616 151.176V155ZM90.1715 155H89.1475V144.28H90.2835V149.304H90.3635C90.6995 147.944 91.8355 146.936 93.7395 146.936C96.2195 146.936 97.5795 148.648 97.5795 151.048C97.5795 153.448 96.2195 155.16 93.6435 155.16C91.8835 155.16 90.6195 154.248 90.2515 152.664H90.1715V155ZM90.2835 151.176C90.2835 153.048 91.4675 154.12 93.3715 154.12C95.2595 154.12 96.4275 153.336 96.4275 151.048C96.4275 148.76 95.2275 147.992 93.4035 147.992C91.4035 147.992 90.2835 149.08 90.2835 151.032V151.176ZM102.848 155.16C100.272 155.16 98.5596 153.448 98.5596 151.048C98.5596 148.648 100.272 146.936 102.848 146.936C105.44 146.936 107.152 148.648 107.152 151.048C107.152 153.448 105.44 155.16 102.848 155.16ZM102.848 154.136C105.024 154.136 106.032 152.968 106.032 151.048C106.032 149.144 105.024 147.96 102.848 147.96C100.672 147.96 99.6796 149.144 99.6796 151.048C99.6796 152.968 100.672 154.136 102.848 154.136ZM109.207 155H107.847L111.447 151.064V150.984L107.847 147.096H109.223L112.311 150.376H112.391L115.463 147.096H116.823L113.207 150.952V151.032L116.823 155H115.447L112.343 151.656H112.279L109.207 155ZM117.769 156.408H117.433V155.72H117.753C117.961 155.72 118.073 155.672 118.073 155.384V155H117.449V152.776H118.857V155.368C118.857 156.072 118.441 156.408 117.769 156.408ZM127.337 155H125.641L122.537 144.28H123.801L125.929 151.672L126.489 153.864H126.585L127.225 151.672L129.721 144.28H131.321L134.073 151.672L134.793 153.864H134.873L135.369 151.672L137.241 144.28H138.489L135.721 155H134.025L131.417 148.024L130.569 145.528H130.457L129.705 148.024L127.337 155ZM143.486 155.16C140.942 155.16 139.326 153.56 139.326 151.048C139.326 148.648 140.926 146.936 143.47 146.936C145.79 146.936 147.438 148.28 147.438 150.632C147.438 150.92 147.406 151.16 147.358 151.368H140.398C140.462 153.144 141.374 154.216 143.47 154.216C145.326 154.216 146.19 153.528 146.19 152.376V152.264H147.326V152.376C147.326 154.024 145.694 155.16 143.486 155.16ZM143.454 147.88C141.406 147.88 140.478 148.936 140.398 150.664H146.366C146.366 150.584 146.366 150.504 146.366 150.424C146.366 148.76 145.31 147.88 143.454 147.88ZM155.018 155H153.61L151.082 147.096H152.25L153.93 152.328L154.33 154.008H154.426L154.97 152.232L157.05 147.096H158.506L160.57 152.232L161.114 153.992H161.21L161.594 152.328L163.29 147.096H164.458L161.898 155H160.474L158.426 149.832L157.802 148.072H157.722L157.098 149.832L155.018 155ZM169.441 155.16C166.865 155.16 165.153 153.448 165.153 151.048C165.153 148.648 166.865 146.936 169.441 146.936C172.033 146.936 173.745 148.648 173.745 151.048C173.745 153.448 172.033 155.16 169.441 155.16ZM169.441 154.136C171.617 154.136 172.625 152.968 172.625 151.048C172.625 149.144 171.617 147.96 169.441 147.96C167.265 147.96 166.273 149.144 166.273 151.048C166.273 152.968 167.265 154.136 169.441 154.136ZM176.393 155H175.257V147.096H176.281V149.256H176.361C176.601 147.992 177.497 146.936 179.145 146.936C180.969 146.936 181.769 148.28 181.769 149.752V150.536H180.633V149.928C180.633 148.584 180.073 147.928 178.697 147.928C177.097 147.928 176.393 148.936 176.393 150.712V155ZM184.221 155H183.085V144.28H184.221V150.408H186.877L189.517 147.096H190.861L187.805 150.872L190.845 155H189.517L186.861 151.448H184.221V155ZM199.746 155H198.034C196.466 155 195.458 154.344 195.458 152.488V148.072H194.05V147.096H195.458V145.208H196.61V147.096H199.746V148.072H196.61V152.552C196.61 153.656 197.154 153.96 198.306 153.96H199.746V155ZM204.863 155.16C202.287 155.16 200.575 153.448 200.575 151.048C200.575 148.648 202.287 146.936 204.863 146.936C207.455 146.936 209.167 148.648 209.167 151.048C209.167 153.448 207.455 155.16 204.863 155.16ZM204.863 154.136C207.039 154.136 208.047 152.968 208.047 151.048C208.047 149.144 207.039 147.96 204.863 147.96C202.687 147.96 201.695 149.144 201.695 151.048C201.695 152.968 202.687 154.136 204.863 154.136ZM214.752 155H213.616V147.096H214.64V149.48H214.704C214.928 148.152 215.84 146.936 217.808 146.936C219.568 146.936 220.56 148.024 220.816 149.56H220.896C221.12 148.2 222.064 146.936 224.048 146.936C226.112 146.936 227.184 148.392 227.184 150.392V155H226.048V150.552C226.048 148.792 225.296 147.976 223.632 147.976C221.728 147.976 220.96 149.08 220.96 151.176V155H219.824V150.552C219.824 148.792 219.088 147.976 217.424 147.976C215.504 147.976 214.752 149.08 214.752 151.176V155ZM231.23 155.16C229.678 155.16 228.622 154.424 228.622 153.144C228.622 151.848 229.694 151.288 231.166 151.128L234.926 150.712V150.104C234.926 148.568 234.254 147.96 232.526 147.96C230.83 147.96 229.934 148.568 229.934 149.96V150.024H228.798V149.96C228.798 148.296 230.174 146.936 232.606 146.936C235.006 146.936 236.03 148.312 236.03 150.056V155H235.006V152.872H234.926C234.462 154.328 233.07 155.16 231.23 155.16ZM229.758 153.064C229.758 153.864 230.286 154.28 231.486 154.28C233.406 154.28 234.926 153.432 234.926 151.528V151.464L231.518 151.848C230.334 151.96 229.758 152.248 229.758 153.064ZM239.034 155H237.898V144.28H239.034V150.408H241.69L244.33 147.096H245.674L242.618 150.872L245.658 155H244.33L241.674 151.448H239.034V155ZM250.533 155.16C247.989 155.16 246.373 153.56 246.373 151.048C246.373 148.648 247.973 146.936 250.516 146.936C252.837 146.936 254.485 148.28 254.485 150.632C254.485 150.92 254.453 151.16 254.405 151.368H247.445C247.509 153.144 248.421 154.216 250.516 154.216C252.373 154.216 253.237 153.528 253.237 152.376V152.264H254.373V152.376C254.373 154.024 252.741 155.16 250.533 155.16ZM250.501 147.88C248.453 147.88 247.525 148.936 247.445 150.664H253.413C253.413 150.584 253.413 150.504 253.413 150.424C253.413 148.76 252.357 147.88 250.501 147.88ZM259.969 157.72H258.977V156.68H260.177C260.977 156.68 261.281 156.44 261.585 155.784L261.969 154.984L258.049 147.096H259.297L261.617 151.8L262.497 153.736H262.593L263.441 151.784L265.633 147.096H266.881L262.593 156.104C262.017 157.32 261.281 157.72 259.969 157.72ZM271.848 155.16C269.272 155.16 267.56 153.448 267.56 151.048C267.56 148.648 269.272 146.936 271.848 146.936C274.44 146.936 276.152 148.648 276.152 151.048C276.152 153.448 274.44 155.16 271.848 155.16ZM271.848 154.136C274.024 154.136 275.032 152.968 275.032 151.048C275.032 149.144 274.024 147.96 271.848 147.96C269.672 147.96 268.68 149.144 268.68 151.048C268.68 152.968 269.672 154.136 271.848 154.136ZM280.975 155.16C278.719 155.16 277.615 153.592 277.615 151.72V147.096H278.751V151.544C278.751 153.192 279.551 154.136 281.375 154.136C283.311 154.136 284.319 152.968 284.319 150.936V147.096H285.455V155H284.431V152.536H284.351C284.079 153.88 282.943 155.16 280.975 155.16ZM288.502 155H287.366V147.096H288.39V149.256H288.47C288.71 147.992 289.606 146.936 291.254 146.936C293.078 146.936 293.878 148.28 293.878 149.752V150.536H292.742V149.928C292.742 148.584 292.182 147.928 290.806 147.928C289.206 147.928 288.502 148.936 288.502 150.712V155ZM299.828 155H298.692V148.072H297.428V147.096H298.708C298.836 145.224 300.1 144.28 302.148 144.28H303.012V145.176H301.988C300.548 145.176 299.764 145.656 299.828 147.096H303.012V148.072H299.828V155ZM307.444 155.16C305.188 155.16 304.084 153.592 304.084 151.72V147.096H305.22V151.544C305.22 153.192 306.02 154.136 307.844 154.136C309.78 154.136 310.788 152.968 310.788 150.936V147.096H311.924V155H310.9V152.536H310.82C310.548 153.88 309.412 155.16 307.444 155.16ZM318.683 155H316.971C315.403 155 314.395 154.344 314.395 152.488V148.072H312.987V147.096H314.395V145.208H315.547V147.096H318.683V148.072H315.547V152.552C315.547 153.656 316.091 153.96 317.243 153.96H318.683V155ZM323.241 155.16C320.985 155.16 319.881 153.592 319.881 151.72V147.096H321.017V151.544C321.017 153.192 321.817 154.136 323.641 154.136C325.577 154.136 326.585 152.968 326.585 150.936V147.096H327.721V155H326.697V152.536H326.617C326.345 153.88 325.209 155.16 323.241 155.16ZM330.768 155H329.632V147.096H330.656V149.256H330.736C330.976 147.992 331.872 146.936 333.52 146.936C335.344 146.936 336.144 148.28 336.144 149.752V150.536H335.008V149.928C335.008 148.584 334.448 147.928 333.072 147.928C331.472 147.928 330.768 148.936 330.768 150.712V155ZM341.22 155.16C338.676 155.16 337.06 153.56 337.06 151.048C337.06 148.648 338.66 146.936 341.204 146.936C343.524 146.936 345.172 148.28 345.172 150.632C345.172 150.92 345.14 151.16 345.092 151.368H338.132C338.196 153.144 339.108 154.216 341.204 154.216C343.06 154.216 343.924 153.528 343.924 152.376V152.264H345.06V152.376C345.06 154.024 343.428 155.16 341.22 155.16ZM341.188 147.88C339.14 147.88 338.212 148.936 338.132 150.664H344.1C344.1 150.584 344.1 150.504 344.1 150.424C344.1 148.76 343.044 147.88 341.188 147.88ZM353.088 155.16C350.656 155.16 349.248 154.184 349.248 152.36V152.328H350.384V152.424C350.384 153.752 351.168 154.216 353.104 154.216C354.88 154.216 355.488 153.8 355.488 152.888C355.488 152.056 354.992 151.784 353.68 151.576L351.568 151.272C350.128 151.08 349.216 150.52 349.216 149.208C349.216 147.816 350.544 146.936 352.72 146.936C354.992 146.936 356.464 147.896 356.464 149.752V149.784H355.328V149.704C355.328 148.52 354.704 147.88 352.688 147.88C351.024 147.88 350.336 148.28 350.336 149.224C350.336 150.04 350.752 150.328 352.064 150.52L354 150.792C355.696 151.032 356.608 151.608 356.608 152.888C356.608 154.376 355.136 155.16 353.088 155.16ZM361.973 155.16C359.397 155.16 357.685 153.448 357.685 151.048C357.685 148.648 359.397 146.936 361.973 146.936C364.565 146.936 366.277 148.648 366.277 151.048C366.277 153.448 364.565 155.16 361.973 155.16ZM361.973 154.136C364.149 154.136 365.157 152.968 365.157 151.048C365.157 149.144 364.149 147.96 361.973 147.96C359.797 147.96 358.805 149.144 358.805 151.048C358.805 152.968 359.797 154.136 361.973 154.136ZM34.096 166.088H32.96V164.28H34.096V166.088ZM34.096 175H32.96V167.096H34.096V175ZM37.1429 175H36.0069V167.096H37.0309V169.256H37.1109C37.3509 167.992 38.2469 166.936 39.8949 166.936C41.7189 166.936 42.5189 168.28 42.5189 169.752V170.536H41.3829V169.928C41.3829 168.584 40.8229 167.928 39.4469 167.928C37.8469 167.928 37.1429 168.936 37.1429 170.712V175ZM44.971 175H43.835V167.096H44.859V169.256H44.939C45.179 167.992 46.075 166.936 47.723 166.936C49.547 166.936 50.347 168.28 50.347 169.752V170.536H49.211V169.928C49.211 168.584 48.651 167.928 47.275 167.928C45.675 167.928 44.971 168.936 44.971 170.712V175ZM55.4231 175.16C52.8791 175.16 51.2631 173.56 51.2631 171.048C51.2631 168.648 52.8631 166.936 55.4071 166.936C57.7271 166.936 59.3751 168.28 59.3751 170.632C59.3751 170.92 59.3431 171.16 59.2951 171.368H52.3351C52.3991 173.144 53.3111 174.216 55.4071 174.216C57.2631 174.216 58.1271 173.528 58.1271 172.376V172.264H59.2631V172.376C59.2631 174.024 57.6311 175.16 55.4231 175.16ZM55.3911 167.88C53.3431 167.88 52.4151 168.936 52.3351 170.664H58.3031C58.3031 170.584 58.3031 170.504 58.3031 170.424C58.3031 168.76 57.2471 167.88 55.3911 167.88ZM64.3539 175.16C61.9219 175.16 60.5139 174.184 60.5139 172.36V172.328H61.6499V172.424C61.6499 173.752 62.4339 174.216 64.3699 174.216C66.1459 174.216 66.7539 173.8 66.7539 172.888C66.7539 172.056 66.2579 171.784 64.9459 171.576L62.8339 171.272C61.3939 171.08 60.4819 170.52 60.4819 169.208C60.4819 167.816 61.8099 166.936 63.9859 166.936C66.2579 166.936 67.7299 167.896 67.7299 169.752V169.784H66.5939V169.704C66.5939 168.52 65.9699 167.88 63.9539 167.88C62.2899 167.88 61.6019 168.28 61.6019 169.224C61.6019 170.04 62.0179 170.328 63.3299 170.52L65.2659 170.792C66.9619 171.032 67.8739 171.608 67.8739 172.888C67.8739 174.376 66.4019 175.16 64.3539 175.16ZM70.5023 166.088H69.3663V164.28H70.5023V166.088ZM70.5023 175H69.3663V167.096H70.5023V175ZM75.8851 175.16C73.4531 175.16 72.0451 174.184 72.0451 172.36V172.328H73.1811V172.424C73.1811 173.752 73.9651 174.216 75.9011 174.216C77.6771 174.216 78.2851 173.8 78.2851 172.888C78.2851 172.056 77.7891 171.784 76.4771 171.576L74.3651 171.272C72.9251 171.08 72.0131 170.52 72.0131 169.208C72.0131 167.816 73.3411 166.936 75.5171 166.936C77.7891 166.936 79.2611 167.896 79.2611 169.752V169.784H78.1251V169.704C78.1251 168.52 77.5011 167.88 75.4851 167.88C73.8211 167.88 73.1331 168.28 73.1331 169.224C73.1331 170.04 73.5491 170.328 74.8611 170.52L76.7971 170.792C78.4931 171.032 79.4051 171.608 79.4051 172.888C79.4051 174.376 77.9331 175.16 75.8851 175.16ZM85.7455 175H84.0335C82.4655 175 81.4575 174.344 81.4575 172.488V168.072H80.0495V167.096H81.4575V165.208H82.6095V167.096H85.7455V168.072H82.6095V172.552C82.6095 173.656 83.1535 173.96 84.3055 173.96H85.7455V175ZM88.1273 166.088H86.9913V164.28H88.1273V166.088ZM88.1273 175H86.9913V167.096H88.1273V175ZM91.0621 175H90.0381V164.28H91.1741V169.304H91.2541C91.5901 167.944 92.7261 166.936 94.6301 166.936C97.1101 166.936 98.4701 168.648 98.4701 171.048C98.4701 173.448 97.1101 175.16 94.5341 175.16C92.7741 175.16 91.5101 174.248 91.1421 172.664H91.0621V175ZM91.1741 171.176C91.1741 173.048 92.3581 174.12 94.2621 174.12C96.1501 174.12 97.3181 173.336 97.3181 171.048C97.3181 168.76 96.1181 167.992 94.2941 167.992C92.2941 167.992 91.1741 169.08 91.1741 171.032V171.176ZM101.002 175H99.8663V164.28H101.002V175ZM106.673 175.16C104.129 175.16 102.513 173.56 102.513 171.048C102.513 168.648 104.113 166.936 106.657 166.936C108.977 166.936 110.625 168.28 110.625 170.632C110.625 170.92 110.593 171.16 110.545 171.368H103.585C103.649 173.144 104.561 174.216 106.657 174.216C108.513 174.216 109.377 173.528 109.377 172.376V172.264H110.513V172.376C110.513 174.024 108.881 175.16 106.673 175.16ZM106.641 167.88C104.593 167.88 103.665 168.936 103.585 170.664H109.553C109.553 170.584 109.553 170.504 109.553 170.424C109.553 168.76 108.497 167.88 106.641 167.88ZM113.108 171.48H112.052C112.052 169.72 111.876 166.632 111.876 165.4V164.28H113.284V165.4C113.284 166.632 113.108 169.736 113.108 171.48ZM113.22 175H111.94V172.84H113.22V175Z" fill="white"/>
<path opacity="0.4" d="M284.485 247.093V250.093C284.485 250.288 284.478 250.475 284.455 250.655C284.283 252.68 283.09 253.685 280.893 253.685H280.593C280.405 253.685 280.225 253.775 280.112 253.925L279.213 255.125C278.815 255.658 278.17 255.658 277.772 255.125L276.872 253.925C276.775 253.797 276.558 253.685 276.393 253.685H276.093C273.7 253.685 272.5 253.093 272.5 250.093V247.093C272.5 244.895 273.513 243.703 275.53 243.53C275.71 243.508 275.898 243.5 276.093 243.5H280.893C283.285 243.5 284.485 244.7 284.485 247.093Z" fill="white"/>
<path d="M278.492 249.5C278.072 249.5 277.742 249.163 277.742 248.75C277.742 248.337 278.08 248 278.492 248C278.905 248 279.242 248.337 279.242 248.75C279.242 249.163 278.912 249.5 278.492 249.5Z" fill="white"/>
<path d="M281.117 249.5C280.697 249.5 280.367 249.163 280.367 248.75C280.367 248.337 280.705 248 281.117 248C281.53 248 281.867 248.337 281.867 248.75C281.867 249.163 281.53 249.5 281.117 249.5Z" fill="white"/>
<path d="M275.875 249.5C275.455 249.5 275.125 249.163 275.125 248.75C275.125 248.337 275.462 248 275.875 248C276.288 248 276.625 248.337 276.625 248.75C276.625 249.163 276.288 249.5 275.875 249.5Z" fill="white"/>
<path d="M287.485 244.093V247.093C287.485 249.298 286.473 250.483 284.455 250.655C284.478 250.475 284.485 250.288 284.485 250.093V247.093C284.485 244.7 283.285 243.5 280.893 243.5H276.093C275.898 243.5 275.71 243.508 275.53 243.53C275.703 241.513 276.895 240.5 279.093 240.5H283.893C286.285 240.5 287.485 241.7 287.485 244.093Z" fill="white"/>
<path d="M301.166 252.64C298.422 252.64 296.49 250.736 296.49 247.81C296.49 244.884 298.422 242.98 301.166 242.98C303.588 242.98 305.422 244.338 305.422 246.466V246.634H304.344V246.466C304.344 244.87 303.238 243.946 301.18 243.946C298.842 243.946 297.54 245.262 297.54 247.81C297.54 250.358 298.842 251.674 301.18 251.674C303.238 251.674 304.344 250.75 304.344 249.154V248.986H305.422V249.154C305.422 251.282 303.602 252.64 301.166 252.64ZM309.65 252.64C307.676 252.64 306.71 251.268 306.71 249.63V245.584H307.704V249.476C307.704 250.918 308.404 251.744 310 251.744C311.694 251.744 312.576 250.722 312.576 248.944V245.584H313.57V252.5H312.674V250.344H312.604C312.366 251.52 311.372 252.64 309.65 252.64ZM318.28 252.64C316.152 252.64 314.92 251.786 314.92 250.19V250.162H315.914V250.246C315.914 251.408 316.6 251.814 318.294 251.814C319.848 251.814 320.38 251.45 320.38 250.652C320.38 249.924 319.946 249.686 318.798 249.504L316.95 249.238C315.69 249.07 314.892 248.58 314.892 247.432C314.892 246.214 316.054 245.444 317.958 245.444C319.946 245.444 321.234 246.284 321.234 247.908V247.936H320.24V247.866C320.24 246.83 319.694 246.27 317.93 246.27C316.474 246.27 315.872 246.62 315.872 247.446C315.872 248.16 316.236 248.412 317.384 248.58L319.078 248.818C320.562 249.028 321.36 249.532 321.36 250.652C321.36 251.954 320.072 252.64 318.28 252.64ZM326.908 252.5H325.41C324.038 252.5 323.156 251.926 323.156 250.302V246.438H321.924V245.584H323.156V243.932H324.164V245.584H326.908V246.438H324.164V250.358C324.164 251.324 324.64 251.59 325.648 251.59H326.908V252.5ZM331.386 252.64C329.132 252.64 327.634 251.142 327.634 249.042C327.634 246.942 329.132 245.444 331.386 245.444C333.654 245.444 335.152 246.942 335.152 249.042C335.152 251.142 333.654 252.64 331.386 252.64ZM331.386 251.744C333.29 251.744 334.172 250.722 334.172 249.042C334.172 247.376 333.29 246.34 331.386 246.34C329.482 246.34 328.614 247.376 328.614 249.042C328.614 250.722 329.482 251.744 331.386 251.744ZM337.469 252.5H336.475V245.584H337.371V247.67H337.427C337.623 246.508 338.421 245.444 340.143 245.444C341.683 245.444 342.551 246.396 342.775 247.74H342.845C343.041 246.55 343.867 245.444 345.603 245.444C347.409 245.444 348.347 246.718 348.347 248.468V252.5H347.353V248.608C347.353 247.068 346.695 246.354 345.239 246.354C343.573 246.354 342.901 247.32 342.901 249.154V252.5H341.907V248.608C341.907 247.068 341.263 246.354 339.807 246.354C338.127 246.354 337.469 247.32 337.469 249.154V252.5ZM353.259 252.64C351.033 252.64 349.619 251.24 349.619 249.042C349.619 246.942 351.019 245.444 353.245 245.444C355.275 245.444 356.717 246.62 356.717 248.678C356.717 248.93 356.689 249.14 356.647 249.322H350.557C350.613 250.876 351.411 251.814 353.245 251.814C354.869 251.814 355.625 251.212 355.625 250.204V250.106H356.619V250.204C356.619 251.646 355.191 252.64 353.259 252.64ZM353.231 246.27C351.439 246.27 350.627 247.194 350.557 248.706H355.779C355.779 248.636 355.779 248.566 355.779 248.496C355.779 247.04 354.855 246.27 353.231 246.27ZM359.029 252.5H358.035V245.584H358.931V247.474H359.001C359.211 246.368 359.995 245.444 361.437 245.444C363.033 245.444 363.733 246.62 363.733 247.908V248.594H362.739V248.062C362.739 246.886 362.249 246.312 361.045 246.312C359.645 246.312 359.029 247.194 359.029 248.748V252.5ZM368.189 252.64C365.977 252.64 364.535 251.142 364.535 249.042C364.535 246.942 365.977 245.444 368.189 245.444C370.121 245.444 371.633 246.592 371.633 248.258V248.37H370.653V248.286C370.653 247.054 369.757 246.354 368.175 246.354C366.327 246.354 365.529 247.348 365.529 249.042C365.529 250.736 366.327 251.73 368.175 251.73C369.757 251.73 370.653 251.03 370.653 249.798V249.714H371.633V249.826C371.633 251.492 370.121 252.64 368.189 252.64ZM374.883 252.64C373.525 252.64 372.601 251.996 372.601 250.876C372.601 249.742 373.539 249.252 374.827 249.112L378.117 248.748V248.216C378.117 246.872 377.529 246.34 376.017 246.34C374.533 246.34 373.749 246.872 373.749 248.09V248.146H372.755V248.09C372.755 246.634 373.959 245.444 376.087 245.444C378.187 245.444 379.083 246.648 379.083 248.174V252.5H378.187V250.638H378.117C377.711 251.912 376.493 252.64 374.883 252.64ZM373.595 250.806C373.595 251.506 374.057 251.87 375.107 251.87C376.787 251.87 378.117 251.128 378.117 249.462V249.406L375.135 249.742C374.099 249.84 373.595 250.092 373.595 250.806ZM381.711 252.5H380.717V245.584H381.613V247.474H381.683C381.893 246.368 382.677 245.444 384.119 245.444C385.715 245.444 386.415 246.62 386.415 247.908V248.594H385.421V248.062C385.421 246.886 384.931 246.312 383.727 246.312C382.327 246.312 381.711 247.194 381.711 248.748V252.5ZM390.857 252.64C388.631 252.64 387.217 251.24 387.217 249.042C387.217 246.942 388.617 245.444 390.843 245.444C392.873 245.444 394.315 246.62 394.315 248.678C394.315 248.93 394.287 249.14 394.245 249.322H388.155C388.211 250.876 389.009 251.814 390.843 251.814C392.467 251.814 393.223 251.212 393.223 250.204V250.106H394.217V250.204C394.217 251.646 392.789 252.64 390.857 252.64ZM390.829 246.27C389.037 246.27 388.225 247.194 388.155 248.706H393.377C393.377 248.636 393.377 248.566 393.377 248.496C393.377 247.04 392.453 246.27 390.829 246.27ZM400.435 251.926C398.853 251.926 397.747 250.904 397.747 249.07C397.747 247.278 398.853 246.214 400.449 246.214C401.695 246.214 402.451 246.9 402.717 247.81H402.787V246.34H403.669V250.036C403.669 250.806 403.949 251.128 404.635 251.128C405.517 251.128 405.979 250.456 405.979 248.524C405.979 245.682 404.439 244.128 401.093 244.128C397.817 244.128 395.885 245.598 395.885 248.986C395.885 252.318 397.747 253.788 400.883 253.788C401.891 253.788 402.563 253.648 403.347 253.41L403.529 254.11C402.787 254.404 401.919 254.586 400.813 254.586C397.243 254.586 394.975 252.43 394.975 248.986C394.975 245.514 397.383 243.274 401.121 243.274C404.565 243.274 406.861 245.178 406.861 248.454C406.861 250.554 405.979 251.926 404.579 251.926C403.459 251.926 402.857 251.282 402.745 250.344H402.703C402.423 251.198 401.709 251.926 400.435 251.926ZM398.685 249.07C398.685 250.526 399.357 251.184 400.687 251.184C401.835 251.184 402.717 250.512 402.717 249.196V248.944C402.717 247.642 401.835 246.97 400.687 246.97C399.357 246.97 398.685 247.614 398.685 249.07ZM408.973 252.5H407.979V245.584H408.875V247.67H408.931C409.127 246.508 409.925 245.444 411.647 245.444C413.187 245.444 414.055 246.396 414.279 247.74H414.349C414.545 246.55 415.371 245.444 417.107 245.444C418.913 245.444 419.851 246.718 419.851 248.468V252.5H418.857V248.608C418.857 247.068 418.199 246.354 416.743 246.354C415.077 246.354 414.405 247.32 414.405 249.154V252.5H413.411V248.608C413.411 247.068 412.767 246.354 411.311 246.354C409.631 246.354 408.973 247.32 408.973 249.154V252.5ZM422.383 254.88H421.515V253.97H422.565C423.265 253.97 423.531 253.76 423.797 253.186L424.133 252.486L420.703 245.584H421.795L423.825 249.7L424.595 251.394H424.679L425.421 249.686L427.339 245.584H428.431L424.679 253.466C424.175 254.53 423.531 254.88 422.383 254.88ZM430.383 252.5H429.389V243.12H430.383V247.698H430.453C430.677 246.536 431.573 245.444 433.337 245.444C435.269 245.444 436.235 246.732 436.235 248.482V252.5H435.241V248.608C435.241 247.026 434.499 246.354 432.945 246.354C431.097 246.354 430.383 247.53 430.383 249.252V252.5ZM441.267 252.64C439.013 252.64 437.515 251.142 437.515 249.042C437.515 246.942 439.013 245.444 441.267 245.444C443.535 245.444 445.033 246.942 445.033 249.042C445.033 251.142 443.535 252.64 441.267 252.64ZM441.267 251.744C443.171 251.744 444.053 250.722 444.053 249.042C444.053 247.376 443.171 246.34 441.267 246.34C439.363 246.34 438.495 247.376 438.495 249.042C438.495 250.722 439.363 251.744 441.267 251.744ZM447.35 252.5H446.356V245.584H447.252V247.67H447.308C447.504 246.508 448.302 245.444 450.024 245.444C451.564 245.444 452.432 246.396 452.656 247.74H452.726C452.922 246.55 453.748 245.444 455.484 245.444C457.29 245.444 458.228 246.718 458.228 248.468V252.5H457.234V248.608C457.234 247.068 456.576 246.354 455.12 246.354C453.454 246.354 452.782 247.32 452.782 249.154V252.5H451.788V248.608C451.788 247.068 451.144 246.354 449.688 246.354C448.008 246.354 447.35 247.32 447.35 249.154V252.5ZM463.14 252.64C460.914 252.64 459.5 251.24 459.5 249.042C459.5 246.942 460.9 245.444 463.126 245.444C465.156 245.444 466.598 246.62 466.598 248.678C466.598 248.93 466.57 249.14 466.528 249.322H460.438C460.494 250.876 461.292 251.814 463.126 251.814C464.75 251.814 465.506 251.212 465.506 250.204V250.106H466.5V250.204C466.5 251.646 465.072 252.64 463.14 252.64ZM463.112 246.27C461.32 246.27 460.508 247.194 460.438 248.706H465.66C465.66 248.636 465.66 248.566 465.66 248.496C465.66 247.04 464.736 246.27 463.112 246.27ZM472.158 252.5H470.66C469.288 252.5 468.406 251.926 468.406 250.302V246.438H467.174V245.584H468.406V243.932H469.414V245.584H472.158V246.438H469.414V250.358C469.414 251.324 469.89 251.59 470.898 251.59H472.158V252.5ZM475.166 252.64C473.808 252.64 472.884 251.996 472.884 250.876C472.884 249.742 473.822 249.252 475.11 249.112L478.4 248.748V248.216C478.4 246.872 477.812 246.34 476.3 246.34C474.816 246.34 474.032 246.872 474.032 248.09V248.146H473.038V248.09C473.038 246.634 474.242 245.444 476.37 245.444C478.47 245.444 479.366 246.648 479.366 248.174V252.5H478.47V250.638H478.4C477.994 251.912 476.776 252.64 475.166 252.64ZM473.878 250.806C473.878 251.506 474.34 251.87 475.39 251.87C477.07 251.87 478.4 251.128 478.4 249.462V249.406L475.418 249.742C474.382 249.84 473.878 250.092 473.878 250.806ZM481.994 252.5H481V243.12H481.994V252.5ZM484.478 252.5H483.246V250.554H484.478V252.5ZM489.048 252.64C486.836 252.64 485.394 251.142 485.394 249.042C485.394 246.942 486.836 245.444 489.048 245.444C490.98 245.444 492.492 246.592 492.492 248.258V248.37H491.512V248.286C491.512 247.054 490.616 246.354 489.034 246.354C487.186 246.354 486.388 247.348 486.388 249.042C486.388 250.736 487.186 251.73 489.034 251.73C490.616 251.73 491.512 251.03 491.512 249.798V249.714H492.492V249.826C492.492 251.492 490.98 252.64 489.048 252.64ZM497.212 252.64C494.958 252.64 493.46 251.142 493.46 249.042C493.46 246.942 494.958 245.444 497.212 245.444C499.48 245.444 500.978 246.942 500.978 249.042C500.978 251.142 499.48 252.64 497.212 252.64ZM497.212 251.744C499.116 251.744 499.998 250.722 499.998 249.042C499.998 247.376 499.116 246.34 497.212 246.34C495.308 246.34 494.44 247.376 494.44 249.042C494.44 250.722 495.308 251.744 497.212 251.744ZM503.295 252.5H502.301V245.584H503.197V247.67H503.253C503.449 246.508 504.247 245.444 505.969 245.444C507.509 245.444 508.377 246.396 508.601 247.74H508.671C508.867 246.55 509.693 245.444 511.429 245.444C513.235 245.444 514.173 246.718 514.173 248.468V252.5H513.179V248.608C513.179 247.068 512.521 246.354 511.065 246.354C509.399 246.354 508.727 247.32 508.727 249.154V252.5H507.733V248.608C507.733 247.068 507.089 246.354 505.633 246.354C503.953 246.354 503.295 247.32 503.295 249.154V252.5Z" fill="white"/>
<path d="M542.746 246.667C542.46 246.667 542.233 246.433 542.233 246.153C542.233 245.907 541.986 245.393 541.573 244.947C541.166 244.513 540.72 244.26 540.346 244.26C540.06 244.26 539.833 244.027 539.833 243.747C539.833 243.467 540.066 243.233 540.346 243.233C541.013 243.233 541.713 243.593 542.326 244.24C542.9 244.847 543.266 245.6 543.266 246.147C543.266 246.433 543.033 246.667 542.746 246.667Z" fill="black" fill-opacity="0.45"/>
<path d="M545.153 246.667C544.867 246.667 544.64 246.433 544.64 246.153C544.64 243.787 542.713 241.867 540.353 241.867C540.067 241.867 539.84 241.633 539.84 241.353C539.84 241.073 540.067 240.833 540.347 240.833C543.28 240.833 545.667 243.22 545.667 246.153C545.667 246.433 545.433 246.667 545.153 246.667Z" fill="black" fill-opacity="0.4"/>
<path d="M538.366 249.467L537.133 250.7C536.873 250.96 536.46 250.96 536.193 250.707C536.12 250.633 536.046 250.567 535.973 250.493C535.286 249.8 534.666 249.073 534.113 248.313C533.566 247.553 533.126 246.793 532.806 246.04C532.493 245.28 532.333 244.553 532.333 243.86C532.333 243.407 532.413 242.973 532.573 242.573C532.733 242.167 532.986 241.793 533.34 241.46C533.766 241.04 534.233 240.833 534.726 240.833C534.913 240.833 535.1 240.873 535.266 240.953C535.44 241.033 535.593 241.153 535.713 241.327L537.26 243.507C537.38 243.673 537.466 243.827 537.526 243.973C537.586 244.113 537.62 244.253 537.62 244.38C537.62 244.54 537.573 244.7 537.48 244.853C537.393 245.007 537.266 245.167 537.106 245.327L536.6 245.853C536.526 245.927 536.493 246.013 536.493 246.12C536.493 246.173 536.5 246.22 536.513 246.273C536.533 246.327 536.553 246.367 536.566 246.407C536.686 246.627 536.893 246.913 537.186 247.26C537.486 247.607 537.806 247.96 538.153 248.313C538.22 248.38 538.293 248.447 538.36 248.513C538.626 248.773 538.633 249.2 538.366 249.467Z" fill="white"/>
<path d="M545.647 251.72C545.647 251.907 545.614 252.1 545.547 252.287C545.527 252.34 545.507 252.393 545.48 252.447C545.367 252.687 545.22 252.913 545.027 253.127C544.7 253.487 544.34 253.747 543.934 253.913C543.927 253.913 543.92 253.92 543.914 253.92C543.52 254.08 543.094 254.167 542.634 254.167C541.954 254.167 541.227 254.007 540.46 253.68C539.694 253.353 538.927 252.913 538.167 252.36C537.907 252.167 537.647 251.973 537.4 251.767L539.58 249.587C539.767 249.727 539.934 249.833 540.074 249.907C540.107 249.92 540.147 249.94 540.194 249.96C540.247 249.98 540.3 249.987 540.36 249.987C540.474 249.987 540.56 249.947 540.634 249.873L541.14 249.373C541.307 249.207 541.467 249.08 541.62 249C541.774 248.907 541.927 248.86 542.094 248.86C542.22 248.86 542.354 248.887 542.5 248.947C542.647 249.007 542.8 249.093 542.967 249.207L545.174 250.773C545.347 250.893 545.467 251.033 545.54 251.2C545.607 251.367 545.647 251.533 545.647 251.72Z" fill="white"/>
<path d="M558.844 252.14C556.17 252.14 554.49 250.334 554.49 247.31C554.49 244.3 556.17 242.48 558.844 242.48C561.504 242.48 563.184 244.3 563.184 247.31C563.184 250.334 561.504 252.14 558.844 252.14ZM558.844 251.188C561.014 251.188 562.134 249.928 562.134 247.31C562.134 244.692 561.014 243.432 558.844 243.432C556.66 243.432 555.54 244.692 555.54 247.31C555.54 249.928 556.66 251.188 558.844 251.188ZM568.258 252.14C566.116 252.14 564.548 251.034 564.548 249.144V249.046H565.626V249.144C565.626 250.306 566.312 251.188 568.258 251.188C570.61 251.188 571.478 249.886 571.478 247.338V246.484H571.38C571.044 247.59 569.77 248.43 567.908 248.43C565.612 248.43 564.268 247.296 564.268 245.49C564.268 243.656 565.696 242.48 568.202 242.48C571.212 242.48 572.514 243.866 572.514 247.296C572.514 250.152 571.156 252.14 568.258 252.14ZM568.216 247.674C570.12 247.674 571.282 246.876 571.282 245.532C571.282 244.16 570.19 243.432 568.244 243.432C566.214 243.432 565.29 244.132 565.29 245.56C565.29 246.946 566.186 247.674 568.216 247.674ZM577.957 252.14C575.283 252.14 573.603 250.334 573.603 247.31C573.603 244.3 575.283 242.48 577.957 242.48C580.617 242.48 582.297 244.3 582.297 247.31C582.297 250.334 580.617 252.14 577.957 252.14ZM577.957 251.188C580.127 251.188 581.247 249.928 581.247 247.31C581.247 244.692 580.127 243.432 577.957 243.432C575.773 243.432 574.653 244.692 574.653 247.31C574.653 249.928 575.773 251.188 577.957 251.188ZM586.293 252.014H585.187C585.187 247.562 587.217 245.266 589.247 243.6V243.53H582.933V242.62H590.381V243.432C587.609 245.868 586.293 248.15 586.293 252.014ZM595.04 252.14C592.464 252.14 591.008 250.992 591.008 249.256V249.06H592.03V249.256C592.03 250.6 593.094 251.23 595.054 251.23C596.804 251.23 597.798 250.628 597.798 249.074C597.798 247.548 596.832 246.96 595.068 246.96C593.654 246.96 592.786 247.254 592.1 247.716L592.058 247.702V247.716L591.134 247.576L591.61 242.62H598.442V243.53H592.478L592.114 247.114L592.184 247.128C592.786 246.624 593.962 246.134 595.362 246.134C597.42 246.134 598.848 247.156 598.848 249.074C598.848 250.964 597.392 252.14 595.04 252.14ZM606.727 252H605.719V250.012H599.713V249.284L605.551 242.62H606.727V249.102H608.477V250.012H606.727V252ZM601.085 249.102H605.719V243.824H605.649L601.085 249.018V249.102ZM613.402 252.14C611.26 252.14 609.692 251.034 609.692 249.144V249.046H610.77V249.144C610.77 250.306 611.456 251.188 613.402 251.188C615.754 251.188 616.622 249.886 616.622 247.338V246.484H616.524C616.188 247.59 614.914 248.43 613.052 248.43C610.756 248.43 609.412 247.296 609.412 245.49C609.412 243.656 610.84 242.48 613.346 242.48C616.356 242.48 617.658 243.866 617.658 247.296C617.658 250.152 616.3 252.14 613.402 252.14ZM613.36 247.674C615.264 247.674 616.426 246.876 616.426 245.532C616.426 244.16 615.334 243.432 613.388 243.432C611.358 243.432 610.434 244.132 610.434 245.56C610.434 246.946 611.33 247.674 613.36 247.674ZM626.308 252H618.874V251.314C618.874 249.508 619.532 248.626 621.422 247.94L623.522 247.198C624.88 246.694 625.328 246.232 625.328 245.238C625.328 244.006 624.474 243.418 622.696 243.418C620.666 243.418 619.826 244.202 619.826 245.602V245.77H618.832V245.644C618.832 243.978 619.98 242.48 622.724 242.48C625.244 242.48 626.336 243.726 626.336 245.238C626.336 246.68 625.44 247.492 623.788 248.052L621.87 248.696C620.33 249.242 619.896 249.858 619.896 251.174L621.996 251.09H626.308V252ZM631.674 252.14C629 252.14 627.32 250.334 627.32 247.31C627.32 244.3 629 242.48 631.674 242.48C634.334 242.48 636.014 244.3 636.014 247.31C636.014 250.334 634.334 252.14 631.674 252.14ZM631.674 251.188C633.844 251.188 634.964 249.928 634.964 247.31C634.964 244.692 633.844 243.432 631.674 243.432C629.49 243.432 628.37 244.692 628.37 247.31C628.37 249.928 629.49 251.188 631.674 251.188ZM639.856 252H638.862V244.538H636.65V243.782H637.14C638.176 243.782 638.68 243.502 639.044 242.62H639.856V252Z" fill="white"/>
<path d="M549.937 70.497L549.192 79.785H520.26V71.114L536.679 52.288H520.818V43H548.823V51.671L532.404 70.497H549.937Z" fill="white"/>
<path d="M586.864 43V63.9931C586.864 69.2375 585.408 73.2836 582.497 76.1315C579.584 78.9793 575.547 80.4046 570.384 80.4046C565.221 80.4046 561.245 78.9793 558.335 76.1315C555.422 73.2836 553.968 69.2375 553.968 63.9931V43H564.252V63.2511C564.252 65.6885 564.757 67.5854 565.77 68.9494C566.783 70.3109 568.402 70.9941 570.634 70.9941C572.866 70.9941 574.422 70.3134 575.437 68.9494C576.45 67.5879 576.955 65.6885 576.955 63.2511V43H586.867H586.864Z" fill="white"/>
<path d="M633.578 43V79.785H623.293V60.7118H622.984C622.819 61.6194 622.602 62.5296 622.334 63.4373C622.066 64.3449 621.704 65.3163 621.25 66.3488L617.781 74.5227H608.116L604.647 66.3488C604.275 65.4004 603.943 64.4494 603.655 63.501C603.364 62.5526 603.117 61.622 602.913 60.7143H602.602V79.7876H592.751V43H603.716L610.779 59.1642C611.193 60.0718 611.616 61.0942 612.05 62.2288C612.483 63.3659 612.802 64.3245 613.009 65.1072H613.32C613.526 64.3245 613.845 63.3633 614.279 62.2288C614.713 61.0942 615.136 60.0718 615.549 59.1642L622.612 43H633.578Z" fill="white"/>
<path d="M579.862 104.166C578.541 103.34 577.013 102.927 575.276 102.927C573.539 102.927 572.065 103.34 570.723 104.166C569.381 104.992 568.338 106.14 567.593 107.603C566.848 109.069 566.479 110.772 566.479 112.712C566.479 114.653 566.851 116.305 567.593 117.791C568.335 119.278 569.379 120.435 570.723 121.259C572.065 122.085 573.582 122.498 575.276 122.498C576.97 122.498 578.538 122.085 579.862 121.259C581.183 120.433 582.216 119.278 582.959 117.791C583.703 116.305 584.073 114.612 584.073 112.712C584.073 110.813 583.701 109.069 582.959 107.603C582.216 106.137 581.183 104.992 579.862 104.166Z" fill="white"/>
<path d="M540.459 108.067C541.079 107.488 541.387 106.685 541.387 105.653C541.387 104.704 541.079 103.96 540.459 103.424C539.839 102.889 538.867 102.619 537.546 102.619H533.332V108.934H537.546C538.867 108.934 539.839 108.646 540.459 108.067Z" fill="white"/>
<path d="M539.033 116.303H533.332V122.804H539.033C540.354 122.804 541.326 122.496 541.946 121.876C542.566 121.257 542.874 120.431 542.874 119.398C542.874 118.45 542.566 117.695 541.946 117.137C541.326 116.578 540.354 116.3 539.033 116.3V116.303Z" fill="white"/>
<path d="M515 85.394V140.026H638.837V85.394H515ZM549.906 128.069C547.738 130.093 544.486 131.103 540.147 131.103H523.172V94.32H538.477C542.854 94.32 546.106 95.2073 548.236 96.9818C550.363 98.7563 551.427 101.089 551.427 103.98C551.427 105.755 551.003 107.325 550.156 108.687C549.31 110.048 548.205 111.06 546.843 111.721C548.784 112.381 550.322 113.454 551.46 114.941C552.595 116.427 553.164 118.222 553.164 120.328C553.164 123.467 552.08 126.047 549.911 128.069H549.906ZM585.315 129.246C582.382 130.899 579.035 131.725 575.278 131.725C571.521 131.725 568.175 130.899 565.241 129.246C562.308 127.594 559.994 125.335 558.301 122.465C556.607 119.596 555.76 116.343 555.76 112.71C555.76 109.077 556.607 105.775 558.301 102.925C559.994 100.077 562.308 97.8257 565.241 96.1736C568.175 94.5215 571.519 93.6954 575.278 93.6954C579.038 93.6954 582.382 94.5215 585.315 96.1736C588.249 97.8257 590.56 100.074 592.256 102.925C593.949 105.773 594.796 109.036 594.796 112.71C594.796 116.384 593.949 119.594 592.256 122.465C590.562 125.335 588.249 127.594 585.315 129.246ZM618.4 131.105L611.276 120.206L604.647 131.105H592.876L605.576 112.526L593.309 94.32H605.576L612.144 104.414L618.464 94.32H630.236L617.844 112.093L630.669 131.105H618.403H618.4Z" fill="white"/>
<g opacity="0.23">
<rect opacity="0.2" x="529.976" y="123.676" width="22.7051" height="37.7974" transform="rotate(30 529.976 123.676)" fill="white" stroke="white" stroke-width="2.47555"/>
<rect opacity="0.2" x="218.474" y="-29.8814" width="25.9542" height="25.9542" transform="rotate(30 218.474 -29.8814)" fill="white" stroke="white" stroke-width="2.47555"/>
<rect opacity="0.2" x="554.485" y="268.976" width="25.9542" height="25.9542" transform="rotate(30 554.485 268.976)" fill="white" stroke="white" stroke-width="2.47555"/>
<rect opacity="0.2" x="410.612" y="26.5097" width="15.8563" height="25.9542" transform="rotate(30 410.612 26.5097)" fill="white" stroke="white" stroke-width="2.47555"/>
<rect opacity="0.2" x="433.884" y="91.5487" width="22.4911" height="22.4911" transform="rotate(30 433.884 91.5487)" fill="white" stroke="white" stroke-width="2.47555"/>
<rect opacity="0.2" x="642.253" y="131.708" width="22.4911" height="22.4911" transform="rotate(30 642.253 131.708)" fill="white" stroke="white" stroke-width="2.47555"/>
<rect opacity="0.2" x="607.139" y="209.111" width="21.2524" height="21.2524" transform="rotate(30 607.139 209.111)" fill="white" stroke="white" stroke-width="2.47555"/>
<rect opacity="0.2" x="272.945" y="30.4296" width="14.2747" height="14.2747" transform="rotate(30 272.945 30.4296)" fill="white" stroke="white" stroke-width="2.47555"/>
<rect opacity="0.2" x="465.839" y="11.0087" width="14.2747" height="14.2747" transform="rotate(30 465.839 11.0087)" fill="white" stroke="white" stroke-width="2.47555"/>
<rect opacity="0.2" x="456.246" y="187.43" width="40.6817" height="18.9823" transform="rotate(30 456.246 187.43)" fill="white" stroke="white" stroke-width="2.47555"/>
<rect opacity="0.2" x="664.615" y="227.59" width="40.6817" height="40.6817" transform="rotate(30 664.615 227.59)" fill="white" stroke="white" stroke-width="2.47555"/>
<rect opacity="0.2" x="166.426" y="15.1239" width="27.9904" height="27.9904" transform="rotate(30 166.426 15.1239)" fill="white" stroke="white" stroke-width="2.47555"/>
<rect opacity="0.2" x="358.563" y="71.515" width="27.9904" height="27.9904" transform="rotate(30 358.563 71.515)" fill="white" stroke="white" stroke-width="2.47555"/>
<rect x="75.0292" y="71.9418" width="22.7051" height="37.7974" transform="rotate(30 75.0292 71.9418)" fill="white" stroke="white" stroke-width="2.47555"/>
<rect opacity="0.2" x="283.398" y="112.102" width="37.7974" height="19.6575" transform="rotate(30 283.398 112.102)" fill="white" stroke="white" stroke-width="2.47555"/>
<rect opacity="0.2" x="99.538" y="217.243" width="25.9542" height="25.9542" transform="rotate(30 99.538 217.243)" fill="white" stroke="white" stroke-width="2.47555"/>
<rect opacity="0.2" x="291.676" y="273.633" width="15.8563" height="25.9542" transform="rotate(30 291.676 273.633)" fill="white" stroke="white" stroke-width="2.47555"/>
<rect opacity="0.2" x="-21.0635" y="39.8149" width="22.4911" height="22.4911" transform="rotate(30 -21.0635 39.8149)" fill="white" stroke="white" stroke-width="2.47555"/>
<rect opacity="0.2" x="187.306" y="79.9745" width="22.4911" height="22.4911" transform="rotate(30 187.306 79.9745)" fill="white" stroke="white" stroke-width="2.47555"/>
<rect opacity="0.2" x="152.191" y="157.377" width="21.2524" height="21.2524" transform="rotate(30 152.191 157.377)" fill="white" stroke="white" stroke-width="2.47555"/>
<rect opacity="0.2" x="360.56" y="197.537" width="21.2524" height="21.2524" transform="rotate(30 360.56 197.537)" fill="white" stroke="white" stroke-width="2.47555"/>
<rect opacity="0.2" x="346.902" y="258.133" width="14.2747" height="14.2747" transform="rotate(30 346.902 258.133)" fill="white" stroke="white" stroke-width="2.47555"/>
<rect x="209.668" y="175.855" width="40.6817" height="40.6817" transform="rotate(30 209.668 175.855)" fill="white" stroke="white" stroke-width="2.47555"/>
</g>
</g>
<defs>
<clipPath id="clip0_5184_12698">
<rect width="668" height="274" rx="24" fill="white"/>
</clipPath>
</defs>
</svg>
