<svg width="358" height="138" viewBox="0 0 358 138" fill="none" xmlns="http://www.w3.org/2000/svg">
<rect width="358" height="138" rx="9.72263" fill="#003087"/>
<path d="M16.86 53H11.5V46.3H16.86V47.27H12.58V49.15H16.71V50.11H12.58V52.03H16.86V53ZM20.8912 53H19.5712L17.2512 48.03H18.4412L20.2112 51.95H20.2912L22.0612 48.03H23.2312L20.8912 53ZM26.2852 53.1C24.6552 53.1 23.5852 52.18 23.5852 50.52C23.5852 48.97 24.6452 47.93 26.2652 47.93C27.8052 47.93 28.8552 48.78 28.8552 50.29C28.8552 50.47 28.8452 50.61 28.8152 50.76H24.5952C24.6352 51.72 25.1052 52.23 26.2552 52.23C27.2952 52.23 27.7252 51.89 27.7252 51.3V51.22H28.8052V51.31C28.8052 52.37 27.7652 53.1 26.2852 53.1ZM26.2452 48.78C25.1452 48.78 24.6652 49.27 24.6052 50.16H27.8352V50.14C27.8352 49.22 27.3052 48.78 26.2452 48.78ZM30.7441 53H29.6641V48.03H30.6541V49.37H30.7241C30.8741 48.57 31.4141 47.93 32.4341 47.93C33.5641 47.93 34.0541 48.74 34.0541 49.68V50.33H32.9841V49.89C32.9841 49.18 32.6841 48.85 31.9441 48.85C31.0941 48.85 30.7441 49.32 30.7441 50.21V53ZM35.5324 54.7H34.8224V53.72H35.7924C36.2324 53.72 36.4124 53.6 36.5624 53.26L36.6824 53L34.2324 48.03H35.4424L36.7124 50.67L37.2024 51.86H37.2824L37.7524 50.66L38.9224 48.03H40.1124L37.5224 53.54C37.1124 54.43 36.5524 54.7 35.5324 54.7ZM43.9006 53H42.7606C41.6906 53 41.0306 52.53 41.0306 51.32V48.93H40.1906V48.03H41.0306V46.94H42.1006V48.03H43.9006V48.93H42.1006V51.26C42.1006 51.87 42.3806 52.03 43.0006 52.03H43.9006V53ZM45.6562 53H44.5762V46.3H45.6562V49.55H45.7162C45.8862 48.71 46.4962 47.93 47.7662 47.93C49.1362 47.93 49.8062 48.83 49.8062 50.04V53H48.7362V50.3C48.7362 49.3 48.2862 48.9 47.2562 48.9C46.0762 48.9 45.6562 49.54 45.6562 50.59V53ZM51.8573 47.45H50.7773V46.3H51.8573V47.45ZM51.8573 53H50.7773V48.03H51.8573V53ZM53.9374 53H52.8574V48.03H53.8474V49.57H53.9174C54.0674 48.73 54.7274 47.93 55.9874 47.93C57.3674 47.93 58.0474 48.86 58.0474 50.01V53H56.9674V50.3C56.9674 49.37 56.5474 48.9 55.5174 48.9C54.4274 48.9 53.9374 49.46 53.9374 50.54V53ZM61.1698 52.55C59.6898 52.55 58.8098 51.62 58.8098 50.24C58.8098 48.86 59.7298 47.93 61.2398 47.93C62.2798 47.93 63.0598 48.4 63.2398 49.27H63.2998V48.03H64.2898V52.42C64.2898 54.09 63.2498 54.8 61.6198 54.8C60.1498 54.8 59.1298 54.11 59.1298 52.91H60.1998C60.1998 53.63 60.6198 53.9 61.6798 53.9C62.8098 53.9 63.2198 53.59 63.2198 52.48V51.26H63.1498C62.9698 52.01 62.2998 52.55 61.1698 52.55ZM59.8998 50.24C59.8998 51.26 60.4998 51.62 61.5198 51.62C62.6198 51.62 63.2198 51.16 63.2198 50.28V50.14C63.2198 49.3 62.5998 48.87 61.5498 48.87C60.5098 48.87 59.8998 49.22 59.8998 50.24ZM15.13 65H13.63V59.65H11.14V58.3H17.62V59.65H15.13V65ZM19.6578 65H18.1578V58.3H21.8578C23.5078 58.3 24.4478 59.03 24.4478 60.31C24.4478 61.4 23.8178 62.05 22.5578 62.17V62.25C23.1578 62.41 23.3878 62.73 23.6378 63.2L24.6078 65H22.8678L21.9478 63.26C21.6778 62.74 21.4278 62.57 20.6478 62.57H19.6578V65ZM19.6578 59.65V61.44H21.8478C22.5578 61.44 22.8778 61.24 22.8778 60.54C22.8778 59.88 22.5578 59.65 21.8478 59.65H19.6578ZM26.3116 65H24.6316L27.5616 58.3H29.7016L32.6516 65H30.9316L30.3016 63.52H26.9516L26.3116 65ZM28.1616 60.71L27.5316 62.17H29.7216L29.0916 60.71L28.6816 59.67H28.5716L28.1616 60.71ZM34.5016 65H33.0016V58.3H35.0316L36.6016 61.6L37.2316 63.17H37.3416L37.9516 61.6L39.4716 58.3H41.5116V65H40.0116V61.6L40.0616 60.55H39.9516L39.5616 61.6L38.1616 64.6H36.3416L34.9416 61.6L34.5516 60.55H34.4416L34.5016 61.6V65ZM45.7484 65.1C43.5284 65.1 42.1484 63.74 42.1484 61.65C42.1484 59.56 43.5284 58.2 45.7484 58.2C48.0184 58.2 49.3884 59.56 49.3884 61.65C49.3884 63.74 48.0184 65.1 45.7484 65.1ZM45.7484 63.66C47.2184 63.66 47.7884 63.14 47.7884 61.65C47.7884 60.16 47.2184 59.64 45.7484 59.64C44.2784 59.64 43.7384 60.16 43.7384 61.65C43.7384 63.14 44.2784 63.66 45.7484 63.66ZM51.5426 65H50.0426V58.3H51.6426L54.0426 61.47L54.9626 62.88H55.0726L55.0026 61.53V58.3H56.5026V65H54.9026L52.4326 61.8L51.5826 60.54H51.4826L51.5426 61.77V65ZM61.0284 65H59.5284V59.65H57.0384V58.3H63.5184V59.65H61.0284V65ZM65.5563 65H64.0563V58.3H65.5563V65ZM67.8414 65H66.3414V58.3H67.9414L70.3414 61.47L71.2614 62.88H71.3714L71.3014 61.53V58.3H72.8014V65H71.2014L68.7314 61.8L67.8814 60.54H67.7814L67.8414 61.77V65ZM74.8273 65H73.1473L76.0773 58.3H78.2173L81.1673 65H79.4473L78.8173 63.52H75.4673L74.8273 65ZM76.6773 60.71L76.0473 62.17H78.2373L77.6073 60.71L77.1973 59.67H77.0873L76.6773 60.71Z" fill="#FFA500"/>
<path d="M13.88 82.08C12.352 82.08 11.28 80.992 11.28 79.32C11.28 77.648 12.392 76.56 13.992 76.56C15.384 76.56 16.424 77.32 16.424 78.512V78.584H15.808V78.512C15.808 77.624 15.168 77.112 13.984 77.112C12.632 77.112 11.88 77.864 11.88 79.32C11.88 80.776 12.624 81.528 13.96 81.528C15.232 81.528 15.856 81.048 15.856 80.008V79.808H13.728V79.36H16.432V82H15.92V80.832H15.88C15.608 81.696 14.832 82.08 13.88 82.08ZM19.1647 82.08C17.8927 82.08 17.0847 81.28 17.0847 80.024C17.0847 78.824 17.8847 77.968 19.1567 77.968C20.3167 77.968 21.1407 78.64 21.1407 79.816C21.1407 79.96 21.1247 80.08 21.1007 80.184H17.6207C17.6527 81.072 18.1087 81.608 19.1567 81.608C20.0847 81.608 20.5167 81.264 20.5167 80.688V80.632H21.0847V80.688C21.0847 81.512 20.2687 82.08 19.1647 82.08ZM19.1487 78.44C18.1247 78.44 17.6607 78.968 17.6207 79.832H20.6047C20.6047 79.792 20.6047 79.752 20.6047 79.712C20.6047 78.88 20.0767 78.44 19.1487 78.44ZM24.3181 82H23.4621C22.6781 82 22.1741 81.672 22.1741 80.744V78.536H21.4701V78.048H22.1741V77.104H22.7501V78.048H24.3181V78.536H22.7501V80.776C22.7501 81.328 23.0221 81.48 23.5981 81.48H24.3181V82ZM28.2897 82.08C27.0177 82.08 26.2097 81.28 26.2097 80.024C26.2097 78.824 27.0097 77.968 28.2817 77.968C29.4417 77.968 30.2657 78.64 30.2657 79.816C30.2657 79.96 30.2497 80.08 30.2257 80.184H26.7457C26.7777 81.072 27.2337 81.608 28.2817 81.608C29.2097 81.608 29.6417 81.264 29.6417 80.688V80.632H30.2097V80.688C30.2097 81.512 29.3937 82.08 28.2897 82.08ZM28.2737 78.44C27.2497 78.44 26.7857 78.968 26.7457 79.832H29.7297C29.7297 79.792 29.7297 79.752 29.7297 79.712C29.7297 78.88 29.2017 78.44 28.2737 78.44ZM33.2031 82H32.5071L30.6191 78.048H31.2351L32.8351 81.44H32.8831L34.4751 78.048H35.0911L33.2031 82ZM37.5319 82.08C36.2599 82.08 35.4519 81.28 35.4519 80.024C35.4519 78.824 36.2519 77.968 37.5239 77.968C38.6839 77.968 39.5079 78.64 39.5079 79.816C39.5079 79.96 39.4919 80.08 39.4679 80.184H35.9879C36.0199 81.072 36.4759 81.608 37.5239 81.608C38.4519 81.608 38.8839 81.264 38.8839 80.688V80.632H39.4519V80.688C39.4519 81.512 38.6359 82.08 37.5319 82.08ZM37.5159 78.44C36.4919 78.44 36.0279 78.968 35.9879 79.832H38.9719C38.9719 79.792 38.9719 79.752 38.9719 79.712C38.9719 78.88 38.4439 78.44 37.5159 78.44ZM40.8293 82H40.2613V78.048H40.7733V79.128H40.8133C40.9333 78.496 41.3813 77.968 42.2053 77.968C43.1173 77.968 43.5173 78.64 43.5173 79.376V79.768H42.9493V79.464C42.9493 78.792 42.6693 78.464 41.9813 78.464C41.1813 78.464 40.8293 78.968 40.8293 79.856V82ZM44.6953 83.36H44.1993V82.84H44.7993C45.1993 82.84 45.3513 82.72 45.5033 82.392L45.6953 81.992L43.7353 78.048H44.3593L45.5193 80.4L45.9593 81.368H46.0073L46.4313 80.392L47.5273 78.048H48.1513L46.0073 82.552C45.7193 83.16 45.3513 83.36 44.6953 83.36ZM51.1228 82H50.2668C49.4828 82 48.9788 81.672 48.9788 80.744V78.536H48.2748V78.048H48.9788V77.104H49.5548V78.048H51.1228V78.536H49.5548V80.776C49.5548 81.328 49.8268 81.48 50.4028 81.48H51.1228V82ZM52.3136 82H51.7456V76.64H52.3136V79.256H52.3536C52.4816 78.592 52.9936 77.968 54.0016 77.968C55.1056 77.968 55.6576 78.704 55.6576 79.704V82H55.0896V79.776C55.0896 78.872 54.6656 78.488 53.7776 78.488C52.7216 78.488 52.3136 79.16 52.3136 80.144V82ZM57.1652 77.544H56.5972V76.64H57.1652V77.544ZM57.1652 82H56.5972V78.048H57.1652V82ZM58.6886 82H58.1206V78.048H58.6326V79.288H58.6726C58.8086 78.616 59.3686 77.968 60.3526 77.968C61.4646 77.968 62.0166 78.76 62.0166 79.696V82H61.4486V79.776C61.4486 78.96 61.0566 78.488 60.1526 78.488C59.1926 78.488 58.6886 79.072 58.6886 80.088V82ZM64.6369 81.68C63.4609 81.68 62.7409 80.904 62.7409 79.824C62.7409 78.744 63.4849 77.968 64.7009 77.968C65.5329 77.968 66.1889 78.36 66.3489 79.064H66.3889V78.048H66.9009V81.624C66.9009 82.928 66.0769 83.44 64.8849 83.44C63.8129 83.44 62.9969 82.904 62.9969 81.984H63.5649C63.5649 82.68 64.0289 82.952 64.9089 82.952C65.9329 82.952 66.3329 82.64 66.3329 81.656V80.624H66.2929C66.1329 81.232 65.5489 81.68 64.6369 81.68ZM63.3089 79.824C63.3089 80.832 63.9329 81.176 64.7889 81.176C65.7649 81.176 66.3329 80.688 66.3329 79.848V79.712C66.3329 78.936 65.7409 78.472 64.8289 78.472C63.9409 78.472 63.3089 78.816 63.3089 79.824ZM69.8516 83.36H69.3556V82.84H69.9556C70.3556 82.84 70.5076 82.72 70.6596 82.392L70.8516 81.992L68.8916 78.048H69.5156L70.6756 80.4L71.1156 81.368H71.1636L71.5876 80.392L72.6836 78.048H73.3076L71.1636 82.552C70.8756 83.16 70.5076 83.36 69.8516 83.36ZM75.791 82.08C74.503 82.08 73.647 81.224 73.647 80.024C73.647 78.824 74.503 77.968 75.791 77.968C77.087 77.968 77.943 78.824 77.943 80.024C77.943 81.224 77.087 82.08 75.791 82.08ZM75.791 81.568C76.879 81.568 77.383 80.984 77.383 80.024C77.383 79.072 76.879 78.48 75.791 78.48C74.703 78.48 74.207 79.072 74.207 80.024C74.207 80.984 74.703 81.568 75.791 81.568ZM80.3548 82.08C79.2268 82.08 78.6748 81.296 78.6748 80.36V78.048H79.2428V80.272C79.2428 81.096 79.6428 81.568 80.5548 81.568C81.5228 81.568 82.0268 80.984 82.0268 79.968V78.048H82.5948V82H82.0828V80.768H82.0428C81.9068 81.44 81.3388 82.08 80.3548 82.08ZM85.5871 82H85.0191V78.048H85.5311V79.288H85.5711C85.7071 78.616 86.2671 77.968 87.2511 77.968C88.3631 77.968 88.9151 78.76 88.9151 79.696V82H88.3471V79.776C88.3471 78.96 87.9551 78.488 87.0511 78.488C86.0911 78.488 85.5871 79.072 85.5871 80.088V82ZM91.7194 82.08C90.4474 82.08 89.6394 81.28 89.6394 80.024C89.6394 78.824 90.4394 77.968 91.7114 77.968C92.8714 77.968 93.6954 78.64 93.6954 79.816C93.6954 79.96 93.6794 80.08 93.6554 80.184H90.1754C90.2074 81.072 90.6634 81.608 91.7114 81.608C92.6394 81.608 93.0714 81.264 93.0714 80.688V80.632H93.6394V80.688C93.6394 81.512 92.8234 82.08 91.7194 82.08ZM91.7034 78.44C90.6794 78.44 90.2154 78.968 90.1754 79.832H93.1594C93.1594 79.792 93.1594 79.752 93.1594 79.712C93.1594 78.88 92.6314 78.44 91.7034 78.44ZM96.3288 82.08C95.0568 82.08 94.2488 81.28 94.2488 80.024C94.2488 78.824 95.0488 77.968 96.3207 77.968C97.4808 77.968 98.3048 78.64 98.3048 79.816C98.3048 79.96 98.2888 80.08 98.2648 80.184H94.7848C94.8168 81.072 95.2728 81.608 96.3207 81.608C97.2488 81.608 97.6808 81.264 97.6808 80.688V80.632H98.2488V80.688C98.2488 81.512 97.4328 82.08 96.3288 82.08ZM96.3128 78.44C95.2888 78.44 94.8248 78.968 94.7848 79.832H97.7688C97.7688 79.792 97.7688 79.752 97.7688 79.712C97.7688 78.88 97.2408 78.44 96.3128 78.44ZM100.762 82.08C99.4981 82.08 98.7941 81.224 98.7941 80.024C98.7941 78.824 99.4981 77.968 100.714 77.968C101.65 77.968 102.234 78.472 102.41 79.152H102.45V76.64H103.018V82H102.498V80.832H102.466C102.274 81.624 101.634 82.08 100.762 82.08ZM99.3701 80.024C99.3701 81.168 99.9781 81.56 100.906 81.56C101.834 81.56 102.45 81.024 102.45 80.088V80.016C102.45 79.04 101.866 78.496 100.89 78.496C99.9861 78.496 99.3701 78.88 99.3701 80.024ZM107.865 82H107.009C106.225 82 105.721 81.672 105.721 80.744V78.536H105.017V78.048H105.721V77.104H106.297V78.048H107.865V78.536H106.297V80.776C106.297 81.328 106.569 81.48 107.145 81.48H107.865V82ZM110.424 82.08C109.136 82.08 108.28 81.224 108.28 80.024C108.28 78.824 109.136 77.968 110.424 77.968C111.72 77.968 112.576 78.824 112.576 80.024C112.576 81.224 111.72 82.08 110.424 82.08ZM110.424 81.568C111.512 81.568 112.016 80.984 112.016 80.024C112.016 79.072 111.512 78.48 110.424 78.48C109.336 78.48 108.84 79.072 108.84 80.024C108.84 80.984 109.336 81.568 110.424 81.568ZM115.368 83.36H114.8V78.048H115.312V79.16H115.376C115.552 78.448 116.144 77.968 117.08 77.968C118.312 77.968 119.016 78.824 119.016 80.024C119.016 81.224 118.32 82.08 117.064 82.08C116.192 82.08 115.56 81.6 115.376 80.84H115.368V83.36ZM115.368 80.096C115.368 81.032 115.984 81.56 116.912 81.56C117.832 81.56 118.44 81.168 118.44 80.024C118.44 78.88 117.824 78.496 116.928 78.496C115.944 78.496 115.368 79.048 115.368 80.024V80.096ZM121.594 82.08C120.322 82.08 119.514 81.28 119.514 80.024C119.514 78.824 120.314 77.968 121.586 77.968C122.746 77.968 123.57 78.64 123.57 79.816C123.57 79.96 123.554 80.08 123.53 80.184H120.05C120.082 81.072 120.538 81.608 121.586 81.608C122.514 81.608 122.946 81.264 122.946 80.688V80.632H123.514V80.688C123.514 81.512 122.698 82.08 121.594 82.08ZM121.578 78.44C120.554 78.44 120.09 78.968 120.05 79.832H123.034C123.034 79.792 123.034 79.752 123.034 79.712C123.034 78.88 122.506 78.44 121.578 78.44ZM124.892 82H124.324V78.048H124.836V79.128H124.876C124.996 78.496 125.444 77.968 126.268 77.968C127.18 77.968 127.58 78.64 127.58 79.376V79.768H127.012V79.464C127.012 78.792 126.732 78.464 126.044 78.464C125.244 78.464 124.892 78.968 124.892 79.856V82ZM129.974 82.08C128.758 82.08 128.054 81.592 128.054 80.68V80.664H128.622V80.712C128.622 81.376 129.014 81.608 129.982 81.608C130.87 81.608 131.174 81.4 131.174 80.944C131.174 80.528 130.926 80.392 130.27 80.288L129.214 80.136C128.494 80.04 128.038 79.76 128.038 79.104C128.038 78.408 128.702 77.968 129.79 77.968C130.926 77.968 131.662 78.448 131.662 79.376V79.392H131.094V79.352C131.094 78.76 130.782 78.44 129.774 78.44C128.942 78.44 128.598 78.64 128.598 79.112C128.598 79.52 128.806 79.664 129.462 79.76L130.43 79.896C131.278 80.016 131.734 80.304 131.734 80.944C131.734 81.688 130.998 82.08 129.974 82.08ZM134.416 82.08C133.128 82.08 132.272 81.224 132.272 80.024C132.272 78.824 133.128 77.968 134.416 77.968C135.712 77.968 136.568 78.824 136.568 80.024C136.568 81.224 135.712 82.08 134.416 82.08ZM134.416 81.568C135.504 81.568 136.008 80.984 136.008 80.024C136.008 79.072 135.504 78.48 134.416 78.48C133.328 78.48 132.832 79.072 132.832 80.024C132.832 80.984 133.328 81.568 134.416 81.568ZM137.892 82H137.324V78.048H137.836V79.288H137.876C138.012 78.616 138.572 77.968 139.556 77.968C140.668 77.968 141.22 78.76 141.22 79.696V82H140.652V79.776C140.652 78.96 140.26 78.488 139.356 78.488C138.396 78.488 137.892 79.072 137.892 80.088V82ZM143.24 82.08C142.464 82.08 141.936 81.712 141.936 81.072C141.936 80.424 142.472 80.144 143.208 80.064L145.088 79.856V79.552C145.088 78.784 144.752 78.48 143.888 78.48C143.04 78.48 142.592 78.784 142.592 79.48V79.512H142.024V79.48C142.024 78.648 142.712 77.968 143.928 77.968C145.128 77.968 145.64 78.656 145.64 79.528V82H145.128V80.936H145.088C144.856 81.664 144.16 82.08 143.24 82.08ZM142.504 81.032C142.504 81.432 142.768 81.64 143.368 81.64C144.328 81.64 145.088 81.216 145.088 80.264V80.232L143.384 80.424C142.792 80.48 142.504 80.624 142.504 81.032ZM147.142 82H146.574V76.64H147.142V82ZM148.665 77.544H148.097V76.64H148.665V77.544ZM148.665 82H148.097V78.048H148.665V82ZM151.357 82.08C150.141 82.08 149.437 81.592 149.437 80.68V80.664H150.005V80.712C150.005 81.376 150.397 81.608 151.365 81.608C152.253 81.608 152.557 81.4 152.557 80.944C152.557 80.528 152.309 80.392 151.653 80.288L150.597 80.136C149.877 80.04 149.421 79.76 149.421 79.104C149.421 78.408 150.085 77.968 151.173 77.968C152.309 77.968 153.045 78.448 153.045 79.376V79.392H152.477V79.352C152.477 78.76 152.165 78.44 151.157 78.44C150.325 78.44 149.981 78.64 149.981 79.112C149.981 79.52 150.189 79.664 150.845 79.76L151.813 79.896C152.661 80.016 153.117 80.304 153.117 80.944C153.117 81.688 152.381 82.08 151.357 82.08ZM155.743 82.08C154.471 82.08 153.663 81.28 153.663 80.024C153.663 78.824 154.463 77.968 155.735 77.968C156.895 77.968 157.719 78.64 157.719 79.816C157.719 79.96 157.703 80.08 157.679 80.184H154.199C154.231 81.072 154.687 81.608 155.735 81.608C156.663 81.608 157.095 81.264 157.095 80.688V80.632H157.663V80.688C157.663 81.512 156.847 82.08 155.743 82.08ZM155.727 78.44C154.703 78.44 154.239 78.968 154.199 79.832H157.183C157.183 79.792 157.183 79.752 157.183 79.712C157.183 78.88 156.655 78.44 155.727 78.44ZM12 93.36H11.504V92.84H12.104C12.504 92.84 12.656 92.72 12.808 92.392L13 91.992L11.04 88.048H11.664L12.824 90.4L13.264 91.368H13.312L13.736 90.392L14.832 88.048H15.456L13.312 92.552C13.024 93.16 12.656 93.36 12 93.36ZM17.9394 92.08C16.6514 92.08 15.7954 91.224 15.7954 90.024C15.7954 88.824 16.6514 87.968 17.9394 87.968C19.2354 87.968 20.0914 88.824 20.0914 90.024C20.0914 91.224 19.2354 92.08 17.9394 92.08ZM17.9394 91.568C19.0274 91.568 19.5314 90.984 19.5314 90.024C19.5314 89.072 19.0274 88.48 17.9394 88.48C16.8514 88.48 16.3554 89.072 16.3554 90.024C16.3554 90.984 16.8514 91.568 17.9394 91.568ZM22.5032 92.08C21.3752 92.08 20.8232 91.296 20.8232 90.36V88.048H21.3912V90.272C21.3912 91.096 21.7912 91.568 22.7032 91.568C23.6712 91.568 24.1752 90.984 24.1752 89.968V88.048H24.7432V92H24.2312V90.768H24.1912C24.0552 91.44 23.4872 92.08 22.5032 92.08ZM26.2668 92H25.6988V88.048H26.2108V89.128H26.2508C26.3708 88.496 26.8188 87.968 27.6428 87.968C28.5548 87.968 28.9548 88.64 28.9548 89.376V89.768H28.3868V89.464C28.3868 88.792 28.1068 88.464 27.4188 88.464C26.6188 88.464 26.2668 88.968 26.2668 89.856V92ZM31.6496 92H31.0816V86.64H31.6496V89.256H31.6896C31.8176 88.592 32.3296 87.968 33.3376 87.968C34.4416 87.968 34.9936 88.704 34.9936 89.704V92H34.4256V89.776C34.4256 88.872 34.0016 88.488 33.1136 88.488C32.0576 88.488 31.6496 89.16 31.6496 90.144V92ZM37.8691 92.08C36.5811 92.08 35.7251 91.224 35.7251 90.024C35.7251 88.824 36.5811 87.968 37.8691 87.968C39.1651 87.968 40.0211 88.824 40.0211 90.024C40.0211 91.224 39.1651 92.08 37.8691 92.08ZM37.8691 91.568C38.9571 91.568 39.4611 90.984 39.4611 90.024C39.4611 89.072 38.9571 88.48 37.8691 88.48C36.7811 88.48 36.2851 89.072 36.2851 90.024C36.2851 90.984 36.7811 91.568 37.8691 91.568ZM41.3449 92H40.7769V88.048H41.2889V89.24H41.3209C41.4329 88.576 41.8889 87.968 42.8729 87.968C43.7529 87.968 44.2489 88.512 44.3769 89.28H44.4169C44.5289 88.6 45.0009 87.968 45.9929 87.968C47.0249 87.968 47.5609 88.696 47.5609 89.696V92H46.9929V89.776C46.9929 88.896 46.6169 88.488 45.7849 88.488C44.8329 88.488 44.4489 89.04 44.4489 90.088V92H43.8809V89.776C43.8809 88.896 43.5129 88.488 42.6809 88.488C41.7209 88.488 41.3449 89.04 41.3449 90.088V92ZM50.3678 92.08C49.0958 92.08 48.2878 91.28 48.2878 90.024C48.2878 88.824 49.0878 87.968 50.3598 87.968C51.5198 87.968 52.3438 88.64 52.3438 89.816C52.3438 89.96 52.3278 90.08 52.3038 90.184H48.8238C48.8558 91.072 49.3118 91.608 50.3598 91.608C51.2878 91.608 51.7198 91.264 51.7198 90.688V90.632H52.2878V90.688C52.2878 91.512 51.4718 92.08 50.3678 92.08ZM50.3518 88.44C49.3278 88.44 48.8638 88.968 48.8238 89.832H51.8078C51.8078 89.792 51.8078 89.752 51.8078 89.712C51.8078 88.88 51.2798 88.44 50.3518 88.44ZM55.6619 92.08C54.8859 92.08 54.3579 91.712 54.3579 91.072C54.3579 90.424 54.8939 90.144 55.6299 90.064L57.5099 89.856V89.552C57.5099 88.784 57.1739 88.48 56.3099 88.48C55.4619 88.48 55.0139 88.784 55.0139 89.48V89.512H54.4459V89.48C54.4459 88.648 55.1339 87.968 56.3499 87.968C57.5499 87.968 58.0619 88.656 58.0619 89.528V92H57.5499V90.936H57.5099C57.2779 91.664 56.5819 92.08 55.6619 92.08ZM54.9259 91.032C54.9259 91.432 55.1899 91.64 55.7899 91.64C56.7499 91.64 57.5099 91.216 57.5099 90.264V90.232L55.8059 90.424C55.2139 90.48 54.9259 90.624 54.9259 91.032ZM61.4196 92H60.5636C59.7796 92 59.2756 91.672 59.2756 90.744V88.536H58.5716V88.048H59.2756V87.104H59.8516V88.048H61.4196V88.536H59.8516V90.776C59.8516 91.328 60.1236 91.48 60.6996 91.48H61.4196V92ZM64.6073 92.08C63.8313 92.08 63.3033 91.712 63.3033 91.072C63.3033 90.424 63.8393 90.144 64.5753 90.064L66.4553 89.856V89.552C66.4553 88.784 66.1193 88.48 65.2553 88.48C64.4073 88.48 63.9593 88.784 63.9593 89.48V89.512H63.3913V89.48C63.3913 88.648 64.0793 87.968 65.2953 87.968C66.4953 87.968 67.0073 88.656 67.0073 89.528V92H66.4953V90.936H66.4553C66.2233 91.664 65.5273 92.08 64.6073 92.08ZM63.8713 91.032C63.8713 91.432 64.1353 91.64 64.7353 91.64C65.6953 91.64 66.4553 91.216 66.4553 90.264V90.232L64.7513 90.424C64.1593 90.48 63.8713 90.624 63.8713 91.032ZM68.5089 92H67.9409V88.048H68.4529V89.288H68.4929C68.6289 88.616 69.1889 87.968 70.1729 87.968C71.2849 87.968 71.8369 88.76 71.8369 89.696V92H71.2689V89.776C71.2689 88.96 70.8769 88.488 69.9729 88.488C69.0129 88.488 68.5089 89.072 68.5089 90.088V92ZM75.326 92.08C74.55 92.08 74.022 91.712 74.022 91.072C74.022 90.424 74.558 90.144 75.294 90.064L77.174 89.856V89.552C77.174 88.784 76.838 88.48 75.974 88.48C75.126 88.48 74.678 88.784 74.678 89.48V89.512H74.11V89.48C74.11 88.648 74.798 87.968 76.014 87.968C77.214 87.968 77.726 88.656 77.726 89.528V92H77.214V90.936H77.174C76.942 91.664 76.246 92.08 75.326 92.08ZM74.59 91.032C74.59 91.432 74.854 91.64 75.454 91.64C76.414 91.64 77.174 91.216 77.174 90.264V90.232L75.47 90.424C74.878 90.48 74.59 90.624 74.59 91.032ZM79.5077 92H78.9397V88.536H78.3077V88.048H78.9477C79.0117 87.112 79.6437 86.64 80.6677 86.64H81.0997V87.088H80.5877C79.8677 87.088 79.4757 87.328 79.5077 88.048H81.0997V88.536H79.5077V92ZM82.3157 92H81.7397V88.536H81.1077V88.048H81.7477C81.8197 87.112 82.4517 86.64 83.4757 86.64H83.8997V87.088H83.3877C82.6677 87.088 82.2837 87.328 82.3157 88.048H83.8997V88.536H82.3157V92ZM86.3926 92.08C85.1046 92.08 84.2486 91.224 84.2486 90.024C84.2486 88.824 85.1046 87.968 86.3926 87.968C87.6886 87.968 88.5446 88.824 88.5446 90.024C88.5446 91.224 87.6886 92.08 86.3926 92.08ZM86.3926 91.568C87.4806 91.568 87.9846 90.984 87.9846 90.024C87.9846 89.072 87.4806 88.48 86.3926 88.48C85.3046 88.48 84.8086 89.072 84.8086 90.024C84.8086 90.984 85.3046 91.568 86.3926 91.568ZM89.8683 92H89.3003V88.048H89.8123V89.128H89.8523C89.9723 88.496 90.4203 87.968 91.2443 87.968C92.1563 87.968 92.5563 88.64 92.5563 89.376V89.768H91.9883V89.464C91.9883 88.792 91.7083 88.464 91.0203 88.464C90.2203 88.464 89.8683 88.968 89.8683 89.856V92ZM94.9184 92.08C93.6544 92.08 92.9504 91.224 92.9504 90.024C92.9504 88.824 93.6544 87.968 94.8704 87.968C95.8064 87.968 96.3904 88.472 96.5664 89.152H96.6064V86.64H97.1744V92H96.6544V90.832H96.6224C96.4304 91.624 95.7904 92.08 94.9184 92.08ZM93.5264 90.024C93.5264 91.168 94.1344 91.56 95.0624 91.56C95.9904 91.56 96.6064 91.024 96.6064 90.088V90.016C96.6064 89.04 96.0224 88.496 95.0464 88.496C94.1424 88.496 93.5264 88.88 93.5264 90.024ZM99.2244 92.08C98.4484 92.08 97.9204 91.712 97.9204 91.072C97.9204 90.424 98.4564 90.144 99.1924 90.064L101.072 89.856V89.552C101.072 88.784 100.736 88.48 99.8724 88.48C99.0244 88.48 98.5764 88.784 98.5764 89.48V89.512H98.0084V89.48C98.0084 88.648 98.6964 87.968 99.9124 87.968C101.112 87.968 101.624 88.656 101.624 89.528V92H101.112V90.936H101.072C100.84 91.664 100.144 92.08 99.2244 92.08ZM98.4884 91.032C98.4884 91.432 98.7524 91.64 99.3524 91.64C100.312 91.64 101.072 91.216 101.072 90.264V90.232L99.3684 90.424C98.7764 90.48 98.4884 90.624 98.4884 91.032ZM103.07 92H102.558V86.64H103.126V89.152H103.166C103.334 88.472 103.902 87.968 104.854 87.968C106.094 87.968 106.774 88.824 106.774 90.024C106.774 91.224 106.094 92.08 104.806 92.08C103.926 92.08 103.294 91.624 103.11 90.832H103.07V92ZM103.126 90.088C103.126 91.024 103.718 91.56 104.67 91.56C105.614 91.56 106.198 91.168 106.198 90.024C106.198 88.88 105.598 88.496 104.686 88.496C103.686 88.496 103.126 89.04 103.126 90.016V90.088ZM108.04 92H107.472V86.64H108.04V92ZM110.876 92.08C109.604 92.08 108.796 91.28 108.796 90.024C108.796 88.824 109.596 87.968 110.868 87.968C112.028 87.968 112.852 88.64 112.852 89.816C112.852 89.96 112.836 90.08 112.812 90.184H109.332C109.364 91.072 109.82 91.608 110.868 91.608C111.796 91.608 112.228 91.264 112.228 90.688V90.632H112.796V90.688C112.796 91.512 111.98 92.08 110.876 92.08ZM110.86 88.44C109.836 88.44 109.372 88.968 109.332 89.832H112.316C112.316 89.792 112.316 89.752 112.316 89.712C112.316 88.88 111.788 88.44 110.86 88.44ZM115.642 93.36H115.074V88.048H115.586V89.16H115.65C115.826 88.448 116.418 87.968 117.354 87.968C118.586 87.968 119.29 88.824 119.29 90.024C119.29 91.224 118.594 92.08 117.338 92.08C116.466 92.08 115.834 91.6 115.65 90.84H115.642V93.36ZM115.642 90.096C115.642 91.032 116.258 91.56 117.186 91.56C118.106 91.56 118.714 91.168 118.714 90.024C118.714 88.88 118.098 88.496 117.202 88.496C116.218 88.496 115.642 89.048 115.642 90.024V90.096ZM120.556 92H119.988V88.048H120.5V89.128H120.54C120.66 88.496 121.108 87.968 121.932 87.968C122.844 87.968 123.244 88.64 123.244 89.376V89.768H122.676V89.464C122.676 88.792 122.396 88.464 121.708 88.464C120.908 88.464 120.556 88.968 120.556 89.856V92ZM124.47 87.544H123.902V86.64H124.47V87.544ZM124.47 92H123.902V88.048H124.47V92ZM127.313 92.08C126.049 92.08 125.225 91.224 125.225 90.024C125.225 88.824 126.049 87.968 127.313 87.968C128.417 87.968 129.281 88.624 129.281 89.576V89.64H128.721V89.592C128.721 88.888 128.209 88.488 127.305 88.488C126.249 88.488 125.793 89.056 125.793 90.024C125.793 90.992 126.249 91.56 127.305 91.56C128.209 91.56 128.721 91.16 128.721 90.456V90.408H129.281V90.472C129.281 91.424 128.417 92.08 127.313 92.08ZM131.923 92.08C130.651 92.08 129.843 91.28 129.843 90.024C129.843 88.824 130.643 87.968 131.914 87.968C133.075 87.968 133.899 88.64 133.899 89.816C133.899 89.96 133.883 90.08 133.859 90.184H130.379C130.411 91.072 130.867 91.608 131.914 91.608C132.843 91.608 133.275 91.264 133.275 90.688V90.632H133.843V90.688C133.843 91.512 133.027 92.08 131.923 92.08ZM131.907 88.44C130.883 88.44 130.419 88.968 130.379 89.832H133.363C133.363 89.792 133.363 89.752 133.363 89.712C133.363 88.88 132.835 88.44 131.907 88.44ZM135.116 92H134.412V90.888H135.116V92Z" fill="white"/>
<path d="M321.694 26.0378L321.666 26.2208L321.797 26.3518L331.704 36.2585L331.962 36.5172L332.221 36.2585L343.259 25.2208L343.517 24.9621L343.259 24.7034L333.23 14.6746L333.097 14.5413L332.911 14.5725L323.458 16.1579L323.197 16.2017L323.157 16.4634L321.694 26.0378Z" fill="#ED2224" stroke="white" stroke-width="0.731707"/>
<path d="M328.702 17.5846C329.006 17.5846 329.25 17.6786 329.435 17.8664C329.623 18.0512 329.717 18.3105 329.717 18.6444V20.0977H329.091V18.7294C329.091 18.5356 329.042 18.388 328.943 18.2867C328.845 18.1823 328.711 18.1302 328.541 18.1302C328.371 18.1302 328.235 18.1823 328.134 18.2867C328.036 18.388 327.986 18.5356 327.986 18.7294V20.0977H327.36V18.7294C327.36 18.5356 327.311 18.388 327.213 18.2867C327.114 18.1823 326.98 18.1302 326.81 18.1302C326.637 18.1302 326.5 18.1823 326.399 18.2867C326.301 18.388 326.251 18.5356 326.251 18.7294V20.0977H325.625V17.6204H326.251V17.92C326.332 17.8157 326.435 17.7337 326.56 17.6741C326.688 17.6145 326.828 17.5846 326.98 17.5846C327.174 17.5846 327.347 17.6264 327.499 17.7099C327.651 17.7903 327.769 17.9066 327.852 18.0586C327.933 17.9155 328.049 17.8008 328.201 17.7143C328.356 17.6279 328.523 17.5846 328.702 17.5846ZM332.681 17.6204L331.147 21.2692H330.481L331.017 20.0351L330.025 17.6204H330.727L331.366 19.3509L332.015 17.6204H332.681ZM327.021 21.5846C327.208 21.5846 327.375 21.6264 327.521 21.7099C327.667 21.7903 327.781 21.9111 327.861 22.072C327.945 22.23 327.986 22.4208 327.986 22.6444V24.0977H327.36V22.7294C327.36 22.5326 327.311 22.3821 327.213 22.2777C327.114 22.1704 326.98 22.1168 326.81 22.1168C326.637 22.1168 326.5 22.1704 326.399 22.2777C326.301 22.3821 326.251 22.5326 326.251 22.7294V24.0977H325.625V20.7887H326.251V21.929C326.332 21.8216 326.439 21.7382 326.573 21.6786C326.708 21.6159 326.857 21.5846 327.021 21.5846ZM329.682 24.1379C329.443 24.1379 329.229 24.0857 329.038 23.9814C328.847 23.8741 328.696 23.7235 328.586 23.5298C328.479 23.336 328.425 23.1124 328.425 22.859C328.425 22.6057 328.48 22.3821 328.591 22.1883C328.704 21.9945 328.857 21.8455 329.051 21.7412C329.245 21.6338 329.461 21.5802 329.7 21.5802C329.938 21.5802 330.154 21.6338 330.348 21.7412C330.542 21.8455 330.694 21.9945 330.804 22.1883C330.917 22.3821 330.974 22.6057 330.974 22.859C330.974 23.1124 330.916 23.336 330.8 23.5298C330.686 23.7235 330.531 23.8741 330.335 23.9814C330.141 24.0857 329.923 24.1379 329.682 24.1379ZM329.682 23.5924C329.795 23.5924 329.901 23.5655 329.999 23.5119C330.101 23.4552 330.181 23.3718 330.241 23.2615C330.3 23.1512 330.33 23.017 330.33 22.859C330.33 22.6235 330.267 22.4432 330.142 22.318C330.02 22.1898 329.87 22.1257 329.691 22.1257C329.512 22.1257 329.361 22.1898 329.239 22.318C329.12 22.4432 329.06 22.6235 329.06 22.859C329.06 23.0945 329.118 23.2764 329.235 23.4046C329.354 23.5298 329.503 23.5924 329.682 23.5924ZM334.51 21.5846C334.814 21.5846 335.058 21.6786 335.243 21.8664C335.431 22.0512 335.525 22.3105 335.525 22.6444V24.0977H334.899V22.7294C334.899 22.5356 334.849 22.388 334.751 22.2867C334.653 22.1823 334.519 22.1302 334.349 22.1302C334.179 22.1302 334.043 22.1823 333.942 22.2867C333.843 22.388 333.794 22.5356 333.794 22.7294V24.0977H333.168V22.7294C333.168 22.5356 333.119 22.388 333.021 22.2867C332.922 22.1823 332.788 22.1302 332.618 22.1302C332.445 22.1302 332.308 22.1823 332.207 22.2867C332.108 22.388 332.059 22.5356 332.059 22.7294V24.0977H331.433V21.6204H332.059V21.92C332.14 21.8157 332.243 21.7337 332.368 21.6741C332.496 21.6145 332.636 21.5846 332.788 21.5846C332.982 21.5846 333.155 21.6264 333.307 21.7099C333.459 21.7903 333.577 21.9066 333.66 22.0586C333.741 21.9155 333.857 21.8008 334.009 21.7143C334.164 21.6279 334.331 21.5846 334.51 21.5846ZM338.422 22.8054C338.422 22.8948 338.416 22.9753 338.404 23.0468H336.593C336.608 23.2257 336.67 23.3658 336.781 23.4672C336.891 23.5685 337.026 23.6192 337.187 23.6192C337.42 23.6192 337.585 23.5193 337.684 23.3196H338.359C338.287 23.5581 338.15 23.7548 337.948 23.9099C337.745 24.0619 337.496 24.1379 337.201 24.1379C336.962 24.1379 336.748 24.0857 336.557 23.9814C336.369 23.8741 336.222 23.7235 336.114 23.5298C336.01 23.336 335.958 23.1124 335.958 22.859C335.958 22.6027 336.01 22.3776 336.114 22.1838C336.219 21.9901 336.365 21.841 336.552 21.7367C336.74 21.6323 336.956 21.5802 337.201 21.5802C337.436 21.5802 337.646 21.6309 337.831 21.7322C338.019 21.8336 338.164 21.9781 338.265 22.1659C338.369 22.3508 338.422 22.5639 338.422 22.8054ZM337.773 22.6265C337.77 22.4655 337.712 22.3374 337.599 22.242C337.486 22.1436 337.347 22.0944 337.183 22.0944C337.028 22.0944 336.897 22.1421 336.789 22.2375C336.685 22.3299 336.621 22.4596 336.597 22.6265H337.773ZM327.928 26.8054C327.928 26.8948 327.922 26.9753 327.91 27.0468H326.099C326.114 27.2257 326.177 27.3658 326.287 27.4672C326.398 27.5685 326.533 27.6192 326.694 27.6192C326.927 27.6192 327.092 27.5193 327.19 27.3196H327.866C327.794 27.5581 327.657 27.7548 327.454 27.9099C327.252 28.0619 327.003 28.1379 326.708 28.1379C326.469 28.1379 326.254 28.0857 326.064 27.9814C325.876 27.8741 325.728 27.7235 325.621 27.5298C325.517 27.336 325.464 27.1124 325.464 26.859C325.464 26.6027 325.517 26.3776 325.621 26.1838C325.725 25.9901 325.871 25.841 326.059 25.7367C326.247 25.6323 326.463 25.5802 326.708 25.5802C326.943 25.5802 327.153 25.6309 327.338 25.7322C327.526 25.8336 327.67 25.9781 327.772 26.1659C327.876 26.3508 327.928 26.5639 327.928 26.8054ZM327.28 26.6265C327.277 26.4655 327.219 26.3374 327.106 26.242C326.992 26.1436 326.854 26.0944 326.69 26.0944C326.535 26.0944 326.403 26.1421 326.296 26.2375C326.192 26.3299 326.128 26.4596 326.104 26.6265H327.28ZM329.114 26.1346V27.333C329.114 27.4165 329.133 27.4776 329.172 27.5164C329.214 27.5521 329.283 27.57 329.378 27.57H329.669V28.0977H329.275C328.747 28.0977 328.484 27.8413 328.484 27.3286V26.1346H328.188V25.6204H328.484V25.0078H329.114V25.6204H329.669V26.1346H329.114ZM329.958 26.8501C329.958 26.5997 330.007 26.3776 330.105 26.1838C330.207 25.9901 330.342 25.841 330.512 25.7367C330.685 25.6323 330.877 25.5802 331.089 25.5802C331.274 25.5802 331.435 25.6174 331.572 25.692C331.712 25.7665 331.824 25.8604 331.907 25.9737V25.6204H332.538V28.0977H331.907V27.7355C331.827 27.8517 331.715 27.9486 331.572 28.0261C331.432 28.1006 331.269 28.1379 331.085 28.1379C330.876 28.1379 330.685 28.0842 330.512 27.9769C330.342 27.8696 330.207 27.7191 330.105 27.5253C330.007 27.3286 329.958 27.1035 329.958 26.8501ZM331.907 26.859C331.907 26.707 331.878 26.5773 331.818 26.47C331.758 26.3597 331.678 26.2762 331.577 26.2196C331.475 26.16 331.366 26.1302 331.25 26.1302C331.134 26.1302 331.027 26.1585 330.928 26.2151C330.83 26.2718 330.749 26.3552 330.687 26.4655C330.627 26.5729 330.597 26.701 330.597 26.8501C330.597 26.9991 330.627 27.1303 330.687 27.2436C330.749 27.3539 330.83 27.4388 330.928 27.4985C331.03 27.5581 331.137 27.5879 331.25 27.5879C331.366 27.5879 331.475 27.5596 331.577 27.5029C331.678 27.4433 331.758 27.3599 331.818 27.2525C331.878 27.1422 331.907 27.0111 331.907 26.859ZM333.775 24.7887V28.0977H333.149V24.7887H333.775Z" fill="white"/>
</svg>
