<svg width="358" height="200" viewBox="0 0 358 200" fill="none" xmlns="http://www.w3.org/2000/svg">
<g clip-path="url(#clip0_5347_10375)">
<rect width="358" height="200" rx="9.72263" fill="#C70E10"/>
<g opacity="0.8">
<path d="M20.6 69H18.056L15.224 58.28H17.144L18.888 65.064L19.368 67.336H19.496L20.072 65.064L22.232 58.28H24.744L27.048 65.064L27.656 67.336H27.784L28.232 65.064L29.832 58.28H31.72L29.032 69H26.488L24.328 62.76L23.544 60.008H23.4L22.632 62.76L20.6 69ZM36.7375 69.16C34.1295 69.16 32.4175 67.688 32.4175 65.032C32.4175 62.552 34.1135 60.888 36.7055 60.888C39.1695 60.888 40.8495 62.248 40.8495 64.664C40.8495 64.952 40.8335 65.176 40.7855 65.416H34.0335C34.0975 66.952 34.8495 67.768 36.6895 67.768C38.3535 67.768 39.0415 67.224 39.0415 66.28V66.152H40.7695V66.296C40.7695 67.992 39.1055 69.16 36.7375 69.16ZM36.6735 62.248C34.9135 62.248 34.1455 63.032 34.0495 64.456H39.2175V64.424C39.2175 62.952 38.3695 62.248 36.6735 62.248ZM43.1358 62.344H42.1278L41.7438 60.28V58.28H43.5198V60.28L43.1358 62.344ZM46.4499 69H44.7219V61.048H46.3059V63.192H46.4179C46.6579 61.912 47.5219 60.888 49.1539 60.888C50.9619 60.888 51.7459 62.184 51.7459 63.688V64.728H50.0339V64.024C50.0339 62.888 49.5539 62.36 48.3699 62.36C47.0099 62.36 46.4499 63.112 46.4499 64.536V69ZM56.8313 69.16C54.2233 69.16 52.5113 67.688 52.5113 65.032C52.5113 62.552 54.2073 60.888 56.7993 60.888C59.2633 60.888 60.9433 62.248 60.9433 64.664C60.9433 64.952 60.9273 65.176 60.8793 65.416H54.1273C54.1913 66.952 54.9433 67.768 56.7833 67.768C58.4473 67.768 59.1353 67.224 59.1353 66.28V66.152H60.8633V66.296C60.8633 67.992 59.1993 69.16 56.8313 69.16ZM56.7673 62.248C55.0073 62.248 54.2393 63.032 54.1432 64.456H59.3113V64.424C59.3113 62.952 58.4633 62.248 56.7673 62.248ZM73.3079 69H64.9719V58.28H66.6999V67.448H73.3079V69ZM76.153 60.12H74.425V58.28H76.153V60.12ZM76.153 69H74.425V61.048H76.153V69ZM82.8571 69H80.7451L77.0331 61.048H78.9371L81.7691 67.32H81.8971L84.7291 61.048H86.6011L82.8571 69ZM91.4875 69.16C88.8795 69.16 87.1675 67.688 87.1675 65.032C87.1675 62.552 88.8635 60.888 91.4555 60.888C93.9195 60.888 95.5995 62.248 95.5995 64.664C95.5995 64.952 95.5835 65.176 95.5355 65.416H88.7835C88.8475 66.952 89.5995 67.768 91.4395 67.768C93.1035 67.768 93.7915 67.224 93.7915 66.28V66.152H95.5195V66.296C95.5195 67.992 93.8555 69.16 91.4875 69.16ZM91.4235 62.248C89.6635 62.248 88.8955 63.032 88.7995 64.456H93.9675V64.424C93.9675 62.952 93.1195 62.248 91.4235 62.248ZM98.7818 65.48H97.1018C97.1018 63.928 96.8458 60.632 96.8458 59.4V58.28H99.0378V59.4C99.0378 60.632 98.7818 63.944 98.7818 65.48ZM98.9098 69H96.9578V66.632H98.9098V69ZM102.531 70.12H118.531V54.12H102.531V70.12Z" fill="white"/>
<path d="M19.236 93H15.744V84.96H19.236C21.648 84.96 23.184 86.52 23.184 88.98C23.184 91.44 21.648 93 19.236 93ZM19.236 85.74H16.608V92.22H19.236C21.276 92.22 22.284 91.164 22.284 88.98C22.284 86.796 21.276 85.74 19.236 85.74ZM25.1736 86.316H24.3216V84.96H25.1736V86.316ZM25.1736 93H24.3216V87.072H25.1736V93ZM29.2107 93.12C27.3867 93.12 26.3307 92.388 26.3307 91.02V90.996H27.1827V91.068C27.1827 92.064 27.7707 92.412 29.2227 92.412C30.5547 92.412 31.0107 92.1 31.0107 91.416C31.0107 90.792 30.6387 90.588 29.6547 90.432L28.0707 90.204C26.9907 90.06 26.3067 89.64 26.3067 88.656C26.3067 87.612 27.3027 86.952 28.9347 86.952C30.6387 86.952 31.7427 87.672 31.7427 89.064V89.088H30.8907V89.028C30.8907 88.14 30.4227 87.66 28.9107 87.66C27.6627 87.66 27.1467 87.96 27.1467 88.668C27.1467 89.28 27.4587 89.496 28.4427 89.64L29.8947 89.844C31.1667 90.024 31.8507 90.456 31.8507 91.416C31.8507 92.532 30.7467 93.12 29.2107 93.12ZM35.802 93.12C33.906 93.12 32.67 91.836 32.67 90.036C32.67 88.236 33.906 86.952 35.802 86.952C37.458 86.952 38.754 87.936 38.754 89.364V89.46H37.914V89.388C37.914 88.332 37.146 87.732 35.79 87.732C34.206 87.732 33.522 88.584 33.522 90.036C33.522 91.488 34.206 92.34 35.79 92.34C37.146 92.34 37.914 91.74 37.914 90.684V90.612H38.754V90.708C38.754 92.136 37.458 93.12 35.802 93.12ZM42.7998 93.12C40.8678 93.12 39.5838 91.836 39.5838 90.036C39.5838 88.236 40.8678 86.952 42.7998 86.952C44.7438 86.952 46.0278 88.236 46.0278 90.036C46.0278 91.836 44.7438 93.12 42.7998 93.12ZM42.7998 92.352C44.4318 92.352 45.1878 91.476 45.1878 90.036C45.1878 88.608 44.4318 87.72 42.7998 87.72C41.1678 87.72 40.4238 88.608 40.4238 90.036C40.4238 91.476 41.1678 92.352 42.7998 92.352ZM50.4374 93H49.3934L46.5614 87.072H47.4854L49.8854 92.16H49.9574L52.3454 87.072H53.2694L50.4374 93ZM56.9306 93.12C55.0226 93.12 53.8106 91.92 53.8106 90.036C53.8106 88.236 55.0106 86.952 56.9186 86.952C58.6586 86.952 59.8946 87.96 59.8946 89.724C59.8946 89.94 59.8706 90.12 59.8346 90.276H54.6146C54.6626 91.608 55.3466 92.412 56.9186 92.412C58.3106 92.412 58.9586 91.896 58.9586 91.032V90.948H59.8106V91.032C59.8106 92.268 58.5866 93.12 56.9306 93.12ZM56.9066 87.66C55.3706 87.66 54.6746 88.452 54.6146 89.748H59.0906C59.0906 89.688 59.0906 89.628 59.0906 89.568C59.0906 88.32 58.2986 87.66 56.9066 87.66ZM61.8767 93H61.0247V87.072H61.7927V88.692H61.8527C62.0327 87.744 62.7047 86.952 63.9407 86.952C65.3087 86.952 65.9087 87.96 65.9087 89.064V89.652H65.0567V89.196C65.0567 88.188 64.6367 87.696 63.6047 87.696C62.4047 87.696 61.8767 88.452 61.8767 89.784V93ZM69.9509 86.316H69.0989V84.96H69.9509V86.316ZM69.9509 93H69.0989V87.072H69.9509V93ZM72.2361 93H71.3841V87.072H72.1521V88.932H72.2121C72.4161 87.924 73.2561 86.952 74.7321 86.952C76.4001 86.952 77.2281 88.14 77.2281 89.544V93H76.3761V89.664C76.3761 88.44 75.7881 87.732 74.4321 87.732C72.9921 87.732 72.2361 88.608 72.2361 90.132V93ZM79.4665 93H78.6145V87.072H79.3825V88.932H79.4425C79.6465 87.924 80.4865 86.952 81.9625 86.952C83.6305 86.952 84.4585 88.14 84.4585 89.544V93H83.6065V89.664C83.6065 88.44 83.0185 87.732 81.6625 87.732C80.2225 87.732 79.4665 88.608 79.4665 90.132V93ZM88.749 93.12C86.817 93.12 85.533 91.836 85.533 90.036C85.533 88.236 86.817 86.952 88.749 86.952C90.693 86.952 91.977 88.236 91.977 90.036C91.977 91.836 90.693 93.12 88.749 93.12ZM88.749 92.352C90.381 92.352 91.137 91.476 91.137 90.036C91.137 88.608 90.381 87.72 88.749 87.72C87.117 87.72 86.373 88.608 86.373 90.036C86.373 91.476 87.117 92.352 88.749 92.352ZM96.3866 93H95.3426L92.5106 87.072H93.4346L95.8346 92.16H95.9066L98.2946 87.072H99.2186L96.3866 93ZM101.704 93.12C100.54 93.12 99.7478 92.568 99.7478 91.608C99.7478 90.636 100.552 90.216 101.656 90.096L104.476 89.784V89.328C104.476 88.176 103.972 87.72 102.676 87.72C101.404 87.72 100.732 88.176 100.732 89.22V89.268H99.8798V89.22C99.8798 87.972 100.912 86.952 102.736 86.952C104.536 86.952 105.304 87.984 105.304 89.292V93H104.536V91.404H104.476C104.128 92.496 103.084 93.12 101.704 93.12ZM100.6 91.548C100.6 92.148 100.996 92.46 101.896 92.46C103.336 92.46 104.476 91.824 104.476 90.396V90.348L101.92 90.636C101.032 90.72 100.6 90.936 100.6 91.548ZM110.34 93H109.056C107.88 93 107.124 92.508 107.124 91.116V87.804H106.068V87.072H107.124V85.656H107.988V87.072H110.34V87.804H107.988V91.164C107.988 91.992 108.396 92.22 109.26 92.22H110.34V93ZM112.127 86.316H111.275V84.96H112.127V86.316ZM112.127 93H111.275V87.072H112.127V93ZM116.836 93H115.792L112.96 87.072H113.884L116.284 92.16H116.356L118.744 87.072H119.668L116.836 93ZM123.329 93.12C121.421 93.12 120.209 91.92 120.209 90.036C120.209 88.236 121.409 86.952 123.317 86.952C125.057 86.952 126.293 87.96 126.293 89.724C126.293 89.94 126.269 90.12 126.233 90.276H121.013C121.061 91.608 121.745 92.412 123.317 92.412C124.709 92.412 125.357 91.896 125.357 91.032V90.948H126.209V91.032C126.209 92.268 124.985 93.12 123.329 93.12ZM123.305 87.66C121.769 87.66 121.073 88.452 121.013 89.748H125.489C125.489 89.688 125.489 89.628 125.489 89.568C125.489 88.32 124.697 87.66 123.305 87.66ZM130.478 95.04H129.626V87.072H130.394V88.74H130.49C130.754 87.672 131.642 86.952 133.046 86.952C134.894 86.952 135.95 88.236 135.95 90.036C135.95 91.836 134.906 93.12 133.022 93.12C131.714 93.12 130.766 92.4 130.49 91.26H130.478V95.04ZM130.478 90.144C130.478 91.548 131.402 92.34 132.794 92.34C134.174 92.34 135.086 91.752 135.086 90.036C135.086 88.32 134.162 87.744 132.818 87.744C131.342 87.744 130.478 88.572 130.478 90.036V90.144ZM137.849 93H136.997V87.072H137.765V88.692H137.825C138.005 87.744 138.677 86.952 139.913 86.952C141.281 86.952 141.881 87.96 141.881 89.064V89.652H141.029V89.196C141.029 88.188 140.609 87.696 139.577 87.696C138.377 87.696 137.849 88.452 137.849 89.784V93ZM145.772 93.12C143.84 93.12 142.556 91.836 142.556 90.036C142.556 88.236 143.84 86.952 145.772 86.952C147.716 86.952 149 88.236 149 90.036C149 91.836 147.716 93.12 145.772 93.12ZM145.772 92.352C147.404 92.352 148.16 91.476 148.16 90.036C148.16 88.608 147.404 87.72 145.772 87.72C144.14 87.72 143.396 88.608 143.396 90.036C143.396 91.476 144.14 92.352 145.772 92.352ZM152.69 93.12C150.794 93.12 149.738 91.836 149.738 90.036C149.738 88.236 150.794 86.952 152.618 86.952C154.022 86.952 154.898 87.708 155.162 88.728H155.222V84.96H156.074V93H155.294V91.248H155.246C154.958 92.436 153.998 93.12 152.69 93.12ZM150.602 90.036C150.602 91.752 151.514 92.34 152.906 92.34C154.298 92.34 155.222 91.536 155.222 90.132V90.024C155.222 88.56 154.346 87.744 152.882 87.744C151.526 87.744 150.602 88.32 150.602 90.036ZM159.989 93.12C158.297 93.12 157.469 91.944 157.469 90.54V87.072H158.321V90.408C158.321 91.644 158.921 92.352 160.289 92.352C161.741 92.352 162.497 91.476 162.497 89.952V87.072H163.349V93H162.581V91.152H162.521C162.317 92.16 161.465 93.12 159.989 93.12ZM167.615 93.12C165.719 93.12 164.483 91.836 164.483 90.036C164.483 88.236 165.719 86.952 167.615 86.952C169.271 86.952 170.567 87.936 170.567 89.364V89.46H169.727V89.388C169.727 88.332 168.959 87.732 167.603 87.732C166.019 87.732 165.335 88.584 165.335 90.036C165.335 91.488 166.019 92.34 167.603 92.34C168.959 92.34 169.727 91.74 169.727 90.684V90.612H170.567V90.708C170.567 92.136 169.271 93.12 167.615 93.12ZM175.344 93H174.06C172.884 93 172.128 92.508 172.128 91.116V87.804H171.072V87.072H172.128V85.656H172.992V87.072H175.344V87.804H172.992V91.164C172.992 91.992 173.4 92.22 174.264 92.22H175.344V93ZM178.883 93.12C177.059 93.12 176.003 92.388 176.003 91.02V90.996H176.855V91.068C176.855 92.064 177.443 92.412 178.895 92.412C180.227 92.412 180.683 92.1 180.683 91.416C180.683 90.792 180.311 90.588 179.327 90.432L177.743 90.204C176.663 90.06 175.979 89.64 175.979 88.656C175.979 87.612 176.975 86.952 178.607 86.952C180.311 86.952 181.415 87.672 181.415 89.064V89.088H180.563V89.028C180.563 88.14 180.095 87.66 178.583 87.66C177.335 87.66 176.819 87.96 176.819 88.668C176.819 89.28 177.131 89.496 178.115 89.64L179.567 89.844C180.839 90.024 181.523 90.456 181.523 91.416C181.523 92.532 180.419 93.12 178.883 93.12ZM182.522 94.056H182.27V93.54H182.51C182.666 93.54 182.75 93.504 182.75 93.288V93H182.282V91.332H183.338V93.276C183.338 93.804 183.026 94.056 182.522 94.056ZM18.54 108.12C16.632 108.12 15.42 106.92 15.42 105.036C15.42 103.236 16.62 101.952 18.528 101.952C20.268 101.952 21.504 102.96 21.504 104.724C21.504 104.94 21.48 105.12 21.444 105.276H16.224C16.272 106.608 16.956 107.412 18.528 107.412C19.92 107.412 20.568 106.896 20.568 106.032V105.948H21.42V106.032C21.42 107.268 20.196 108.12 18.54 108.12ZM18.516 102.66C16.98 102.66 16.284 103.452 16.224 104.748H20.7C20.7 104.688 20.7 104.628 20.7 104.568C20.7 103.32 19.908 102.66 18.516 102.66ZM23.0421 108H22.0221L24.7221 105.048V104.988L22.0221 102.072H23.0541L25.3701 104.532H25.4301L27.7341 102.072H28.7541L26.0421 104.964V105.024L28.7541 108H27.7221L25.3941 105.492H25.3461L23.0421 108ZM32.4153 108.12C30.5193 108.12 29.2833 106.836 29.2833 105.036C29.2833 103.236 30.5193 101.952 32.4153 101.952C34.0713 101.952 35.3673 102.936 35.3673 104.364V104.46H34.5273V104.388C34.5273 103.332 33.7593 102.732 32.4033 102.732C30.8193 102.732 30.1353 103.584 30.1353 105.036C30.1353 106.488 30.8193 107.34 32.4033 107.34C33.7593 107.34 34.5273 106.74 34.5273 105.684V105.612H35.3673V105.708C35.3673 107.136 34.0713 108.12 32.4153 108.12ZM37.3611 108H36.5091V99.96H37.3611V108ZM41.2782 108.12C39.5862 108.12 38.7582 106.944 38.7582 105.54V102.072H39.6102V105.408C39.6102 106.644 40.2102 107.352 41.5782 107.352C43.0302 107.352 43.7862 106.476 43.7862 104.952V102.072H44.6382V108H43.8702V106.152H43.8102C43.6062 107.16 42.7542 108.12 41.2782 108.12ZM48.6756 108.12C46.8516 108.12 45.7956 107.388 45.7956 106.02V105.996H46.6476V106.068C46.6476 107.064 47.2356 107.412 48.6876 107.412C50.0196 107.412 50.4756 107.1 50.4756 106.416C50.4756 105.792 50.1036 105.588 49.1196 105.432L47.5356 105.204C46.4556 105.06 45.7716 104.64 45.7716 103.656C45.7716 102.612 46.7676 101.952 48.3996 101.952C50.1036 101.952 51.2076 102.672 51.2076 104.064V104.088H50.3556V104.028C50.3556 103.14 49.8876 102.66 48.3756 102.66C47.1276 102.66 46.6116 102.96 46.6116 103.668C46.6116 104.28 46.9236 104.496 47.9076 104.64L49.3596 104.844C50.6316 105.024 51.3156 105.456 51.3156 106.416C51.3156 107.532 50.2116 108.12 48.6756 108.12ZM53.2868 101.316H52.4348V99.96H53.2868V101.316ZM53.2868 108H52.4348V102.072H53.2868V108ZM57.996 108H56.952L54.12 102.072H55.044L57.444 107.16H57.516L59.904 102.072H60.828L57.996 108ZM64.4892 108.12C62.5812 108.12 61.3692 106.92 61.3692 105.036C61.3692 103.236 62.5692 101.952 64.4772 101.952C66.2172 101.952 67.4532 102.96 67.4532 104.724C67.4532 104.94 67.4292 105.12 67.3932 105.276H62.1732C62.2212 106.608 62.9052 107.412 64.4772 107.412C65.8692 107.412 66.5172 106.896 66.5172 106.032V105.948H67.3692V106.032C67.3692 107.268 66.1452 108.12 64.4892 108.12ZM64.4652 102.66C62.9292 102.66 62.2332 103.452 62.1732 104.748H66.6492C66.6492 104.688 66.6492 104.628 66.6492 104.568C66.6492 103.32 65.8572 102.66 64.4652 102.66ZM73.6904 108.12C71.7584 108.12 70.4744 106.836 70.4744 105.036C70.4744 103.236 71.7584 101.952 73.6904 101.952C75.6344 101.952 76.9184 103.236 76.9184 105.036C76.9184 106.836 75.6344 108.12 73.6904 108.12ZM73.6904 107.352C75.3224 107.352 76.0784 106.476 76.0784 105.036C76.0784 103.608 75.3224 102.72 73.6904 102.72C72.0584 102.72 71.3144 103.608 71.3144 105.036C71.3144 106.476 72.0584 107.352 73.6904 107.352ZM79.324 108H78.472V102.804H77.524V102.072H78.484C78.58 100.668 79.528 99.96 81.064 99.96H81.712V100.632H80.944C79.864 100.632 79.276 100.992 79.324 102.072H81.712V102.804H79.324V108ZM83.536 108H82.672V102.804H81.724V102.072H82.684C82.792 100.668 83.74 99.96 85.276 99.96H85.912V100.632H85.144C84.064 100.632 83.488 100.992 83.536 102.072H85.912V102.804H83.536V108ZM89.5673 108.12C87.6593 108.12 86.4473 106.92 86.4473 105.036C86.4473 103.236 87.6473 101.952 89.5553 101.952C91.2953 101.952 92.5313 102.96 92.5313 104.724C92.5313 104.94 92.5073 105.12 92.4713 105.276H87.2513C87.2993 106.608 87.9833 107.412 89.5553 107.412C90.9473 107.412 91.5953 106.896 91.5953 106.032V105.948H92.4473V106.032C92.4473 107.268 91.2233 108.12 89.5673 108.12ZM89.5433 102.66C88.0073 102.66 87.3113 103.452 87.2513 104.748H91.7273C91.7273 104.688 91.7273 104.628 91.7273 104.568C91.7273 103.32 90.9353 102.66 89.5433 102.66ZM94.5134 108H93.6614V102.072H94.4294V103.692H94.4894C94.6694 102.744 95.3414 101.952 96.5774 101.952C97.9454 101.952 98.5454 102.96 98.5454 104.064V104.652H97.6934V104.196C97.6934 103.188 97.2734 102.696 96.2414 102.696C95.0414 102.696 94.5134 103.452 94.5134 104.784V108ZM102.137 108.12C100.312 108.12 99.2565 107.388 99.2565 106.02V105.996H100.109V106.068C100.109 107.064 100.697 107.412 102.149 107.412C103.481 107.412 103.937 107.1 103.937 106.416C103.937 105.792 103.565 105.588 102.581 105.432L100.997 105.204C99.9165 105.06 99.2325 104.64 99.2325 103.656C99.2325 102.612 100.229 101.952 101.861 101.952C103.565 101.952 104.669 102.672 104.669 104.064V104.088H103.817V104.028C103.817 103.14 103.349 102.66 101.837 102.66C100.589 102.66 100.073 102.96 100.073 103.668C100.073 104.28 100.385 104.496 101.369 104.64L102.821 104.844C104.093 105.024 104.777 105.456 104.777 106.416C104.777 107.532 103.673 108.12 102.137 108.12ZM105.776 109.056H105.524V108.54H105.764C105.92 108.54 106.004 108.504 106.004 108.288V108H105.536V106.332H106.592V108.276C106.592 108.804 106.28 109.056 105.776 109.056ZM111.524 108.12C110.36 108.12 109.568 107.568 109.568 106.608C109.568 105.636 110.372 105.216 111.476 105.096L114.296 104.784V104.328C114.296 103.176 113.792 102.72 112.496 102.72C111.224 102.72 110.552 103.176 110.552 104.22V104.268H109.7V104.22C109.7 102.972 110.732 101.952 112.556 101.952C114.356 101.952 115.124 102.984 115.124 104.292V108H114.356V106.404H114.296C113.948 107.496 112.904 108.12 111.524 108.12ZM110.42 106.548C110.42 107.148 110.816 107.46 111.716 107.46C113.156 107.46 114.296 106.824 114.296 105.396V105.348L111.74 105.636C110.852 105.72 110.42 105.936 110.42 106.548ZM117.377 108H116.525V102.072H117.293V103.932H117.353C117.557 102.924 118.397 101.952 119.873 101.952C121.541 101.952 122.369 103.14 122.369 104.544V108H121.517V104.664C121.517 103.44 120.929 102.732 119.573 102.732C118.133 102.732 117.377 103.608 117.377 105.132V108ZM126.311 108.12C124.415 108.12 123.359 106.836 123.359 105.036C123.359 103.236 124.415 101.952 126.239 101.952C127.643 101.952 128.519 102.708 128.783 103.728H128.843V99.96H129.695V108H128.915V106.248H128.867C128.579 107.436 127.619 108.12 126.311 108.12ZM124.223 105.036C124.223 106.752 125.135 107.34 126.527 107.34C127.919 107.34 128.843 106.536 128.843 105.132V105.024C128.843 103.56 127.967 102.744 126.503 102.744C125.147 102.744 124.223 103.32 124.223 105.036ZM136.965 108H135.681C134.505 108 133.749 107.508 133.749 106.116V102.804H132.693V102.072H133.749V100.656H134.613V102.072H136.965V102.804H134.613V106.164C134.613 106.992 135.021 107.22 135.885 107.22H136.965V108ZM138.752 108H137.9V99.96H138.752V103.884H138.812C139.004 102.888 139.772 101.952 141.284 101.952C142.94 101.952 143.768 103.056 143.768 104.556V108H142.916V104.664C142.916 103.308 142.28 102.732 140.948 102.732C139.364 102.732 138.752 103.74 138.752 105.216V108ZM147.997 108.12C146.089 108.12 144.877 106.92 144.877 105.036C144.877 103.236 146.077 101.952 147.985 101.952C149.725 101.952 150.961 102.96 150.961 104.724C150.961 104.94 150.937 105.12 150.901 105.276H145.681C145.729 106.608 146.413 107.412 147.985 107.412C149.377 107.412 150.025 106.896 150.025 106.032V105.948H150.877V106.032C150.877 107.268 149.653 108.12 147.997 108.12ZM147.973 102.66C146.437 102.66 145.741 103.452 145.681 104.748H150.157C150.157 104.688 150.157 104.628 150.157 104.568C150.157 103.32 149.365 102.66 147.973 102.66ZM155.566 108H154.714V102.804H153.766V102.072H154.726C154.822 100.668 155.77 99.96 157.306 99.96H157.954V100.632H157.186C156.106 100.632 155.518 100.992 155.566 102.072H157.954V102.804H155.566V108ZM161.278 108.12C159.586 108.12 158.758 106.944 158.758 105.54V102.072H159.61V105.408C159.61 106.644 160.21 107.352 161.578 107.352C163.03 107.352 163.786 106.476 163.786 104.952V102.072H164.638V108H163.87V106.152H163.81C163.606 107.16 162.754 108.12 161.278 108.12ZM169.708 108H168.424C167.248 108 166.492 107.508 166.492 106.116V102.804H165.436V102.072H166.492V100.656H167.356V102.072H169.708V102.804H167.356V106.164C167.356 106.992 167.764 107.22 168.628 107.22H169.708V108ZM173.126 108.12C171.434 108.12 170.606 106.944 170.606 105.54V102.072H171.458V105.408C171.458 106.644 172.058 107.352 173.426 107.352C174.878 107.352 175.634 106.476 175.634 104.952V102.072H176.486V108H175.718V106.152H175.658C175.454 107.16 174.602 108.12 173.126 108.12ZM178.771 108H177.919V102.072H178.687V103.692H178.747C178.927 102.744 179.599 101.952 180.835 101.952C182.203 101.952 182.803 102.96 182.803 104.064V104.652H181.951V104.196C181.951 103.188 181.531 102.696 180.499 102.696C179.299 102.696 178.771 103.452 178.771 104.784V108ZM186.61 108.12C184.702 108.12 183.49 106.92 183.49 105.036C183.49 103.236 184.69 101.952 186.598 101.952C188.338 101.952 189.574 102.96 189.574 104.724C189.574 104.94 189.55 105.12 189.514 105.276H184.294C184.342 106.608 185.026 107.412 186.598 107.412C187.99 107.412 188.638 106.896 188.638 106.032V105.948H189.49V106.032C189.49 107.268 188.266 108.12 186.61 108.12ZM186.586 102.66C185.05 102.66 184.354 103.452 184.294 104.748H188.77C188.77 104.688 188.77 104.628 188.77 104.568C188.77 103.32 187.978 102.66 186.586 102.66ZM18.624 123.12C16.692 123.12 15.408 121.836 15.408 120.036C15.408 118.236 16.692 116.952 18.624 116.952C20.568 116.952 21.852 118.236 21.852 120.036C21.852 121.836 20.568 123.12 18.624 123.12ZM18.624 122.352C20.256 122.352 21.012 121.476 21.012 120.036C21.012 118.608 20.256 117.72 18.624 117.72C16.992 117.72 16.248 118.608 16.248 120.036C16.248 121.476 16.992 122.352 18.624 122.352ZM24.2576 123H23.4056V117.804H22.4576V117.072H23.4176C23.5136 115.668 24.4616 114.96 25.9976 114.96H26.6456V115.632H25.8776C24.7976 115.632 24.2096 115.992 24.2576 117.072H26.6456V117.804H24.2576V123ZM32.5928 123.12C30.6608 123.12 29.3768 121.836 29.3768 120.036C29.3768 118.236 30.6608 116.952 32.5928 116.952C34.5368 116.952 35.8208 118.236 35.8208 120.036C35.8208 121.836 34.5368 123.12 32.5928 123.12ZM32.5928 122.352C34.2248 122.352 34.9808 121.476 34.9808 120.036C34.9808 118.608 34.2248 117.72 32.5928 117.72C30.9608 117.72 30.2168 118.608 30.2168 120.036C30.2168 121.476 30.9608 122.352 32.5928 122.352ZM37.8064 123H36.9544V117.072H37.7224V118.932H37.7824C37.9864 117.924 38.8264 116.952 40.3024 116.952C41.9704 116.952 42.7984 118.14 42.7984 119.544V123H41.9464V119.664C41.9464 118.44 41.3584 117.732 40.0024 117.732C38.5624 117.732 37.8064 118.608 37.8064 120.132V123ZM45.0368 123H44.1848V114.96H45.0368V123ZM47.322 116.316H46.47V114.96H47.322V116.316ZM47.322 123H46.47V117.072H47.322V123ZM49.6072 123H48.7552V117.072H49.5232V118.932H49.5832C49.7872 117.924 50.6272 116.952 52.1032 116.952C53.7712 116.952 54.5992 118.14 54.5992 119.544V123H53.7472V119.664C53.7472 118.44 53.1592 117.732 51.8032 117.732C50.3632 117.732 49.6072 118.608 49.6072 120.132V123ZM58.8056 123.12C56.8976 123.12 55.6856 121.92 55.6856 120.036C55.6856 118.236 56.8856 116.952 58.7936 116.952C60.5336 116.952 61.7696 117.96 61.7696 119.724C61.7696 119.94 61.7456 120.12 61.7096 120.276H56.4896C56.5376 121.608 57.2216 122.412 58.7936 122.412C60.1856 122.412 60.8336 121.896 60.8336 121.032V120.948H61.6856V121.032C61.6856 122.268 60.4616 123.12 58.8056 123.12ZM58.7816 117.66C57.2456 117.66 56.5496 118.452 56.4896 119.748H60.9656C60.9656 119.688 60.9656 119.628 60.9656 119.568C60.9656 118.32 60.1736 117.66 58.7816 117.66ZM67.7068 123.12C65.8828 123.12 64.8268 122.388 64.8268 121.02V120.996H65.6788V121.068C65.6788 122.064 66.2668 122.412 67.7188 122.412C69.0508 122.412 69.5068 122.1 69.5068 121.416C69.5068 120.792 69.1348 120.588 68.1508 120.432L66.5668 120.204C65.4868 120.06 64.8028 119.64 64.8028 118.656C64.8028 117.612 65.7988 116.952 67.4308 116.952C69.1348 116.952 70.2388 117.672 70.2388 119.064V119.088H69.3868V119.028C69.3868 118.14 68.9188 117.66 67.4068 117.66C66.1588 117.66 65.6428 117.96 65.6428 118.668C65.6428 119.28 65.9548 119.496 66.9388 119.64L68.3908 119.844C69.6628 120.024 70.3468 120.456 70.3468 121.416C70.3468 122.532 69.2428 123.12 67.7068 123.12ZM72.3181 123H71.4661V114.96H72.3181V118.884H72.3781C72.5701 117.888 73.3381 116.952 74.8501 116.952C76.5061 116.952 77.3341 118.056 77.3341 119.556V123H76.4821V119.664C76.4821 118.308 75.8461 117.732 74.5141 117.732C72.9301 117.732 72.3181 118.74 72.3181 120.216V123ZM81.6474 123.12C79.7154 123.12 78.4314 121.836 78.4314 120.036C78.4314 118.236 79.7154 116.952 81.6474 116.952C83.5914 116.952 84.8754 118.236 84.8754 120.036C84.8754 121.836 83.5914 123.12 81.6474 123.12ZM81.6474 122.352C83.2794 122.352 84.0354 121.476 84.0354 120.036C84.0354 118.608 83.2794 117.72 81.6474 117.72C80.0154 117.72 79.2714 118.608 79.2714 120.036C79.2714 121.476 80.0154 122.352 81.6474 122.352ZM86.8611 125.04H86.0091V117.072H86.7771V118.74H86.8731C87.1371 117.672 88.0251 116.952 89.4291 116.952C91.2771 116.952 92.3331 118.236 92.3331 120.036C92.3331 121.836 91.2891 123.12 89.4051 123.12C88.0971 123.12 87.1491 122.4 86.8731 121.26H86.8611V125.04ZM86.8611 120.144C86.8611 121.548 87.7851 122.34 89.1771 122.34C90.5571 122.34 91.4691 121.752 91.4691 120.036C91.4691 118.32 90.5451 117.744 89.2011 117.744C87.7251 117.744 86.8611 118.572 86.8611 120.036V120.144ZM94.2322 125.04H93.3802V117.072H94.1482V118.74H94.2442C94.5082 117.672 95.3962 116.952 96.8002 116.952C98.6482 116.952 99.7042 118.236 99.7042 120.036C99.7042 121.836 98.6602 123.12 96.7762 123.12C95.4682 123.12 94.5202 122.4 94.2442 121.26H94.2322V125.04ZM94.2322 120.144C94.2322 121.548 95.1562 122.34 96.5482 122.34C97.9282 122.34 98.8402 121.752 98.8402 120.036C98.8402 118.32 97.9162 117.744 96.5722 117.744C95.0962 117.744 94.2322 118.572 94.2322 120.036V120.144ZM101.603 116.316H100.751V114.96H101.603V116.316ZM101.603 123H100.751V117.072H101.603V123ZM103.888 123H103.036V117.072H103.804V118.932H103.864C104.068 117.924 104.908 116.952 106.384 116.952C108.052 116.952 108.88 118.14 108.88 119.544V123H108.028V119.664C108.028 118.44 107.44 117.732 106.084 117.732C104.644 117.732 103.888 118.608 103.888 120.132V123ZM112.811 122.52C111.047 122.52 109.967 121.356 109.967 119.736C109.967 118.116 111.083 116.952 112.907 116.952C114.155 116.952 115.139 117.54 115.379 118.596H115.439V117.072H116.207V122.436C116.207 124.392 114.971 125.16 113.183 125.16C111.575 125.16 110.351 124.356 110.351 122.976H111.203C111.203 124.02 111.899 124.428 113.219 124.428C114.755 124.428 115.355 123.96 115.355 122.484V120.936H115.295C115.055 121.848 114.179 122.52 112.811 122.52ZM110.819 119.736C110.819 121.248 111.755 121.764 113.039 121.764C114.503 121.764 115.355 121.032 115.355 119.772V119.568C115.355 118.404 114.467 117.708 113.099 117.708C111.767 117.708 110.819 118.224 110.819 119.736ZM125.534 119.868H117.29V119.112H125.534V119.868ZM128.259 123.12C127.095 123.12 126.303 122.568 126.303 121.608C126.303 120.636 127.107 120.216 128.211 120.096L131.031 119.784V119.328C131.031 118.176 130.527 117.72 129.231 117.72C127.959 117.72 127.287 118.176 127.287 119.22V119.268H126.435V119.22C126.435 117.972 127.467 116.952 129.291 116.952C131.091 116.952 131.859 117.984 131.859 119.292V123H131.091V121.404H131.031C130.683 122.496 129.639 123.12 128.259 123.12ZM127.155 121.548C127.155 122.148 127.551 122.46 128.451 122.46C129.891 122.46 131.031 121.824 131.031 120.396V120.348L128.475 120.636C127.587 120.72 127.155 120.936 127.155 121.548ZM134.111 123H133.259V114.96H134.111V123ZM136.396 123H135.544V114.96H136.396V123ZM140.885 116.316H140.033V114.96H140.885V116.316ZM140.885 123H140.033V117.072H140.885V123ZM143.17 123H142.318V117.072H143.086V118.932H143.146C143.35 117.924 144.19 116.952 145.666 116.952C147.334 116.952 148.162 118.14 148.162 119.544V123H147.31V119.664C147.31 118.44 146.722 117.732 145.366 117.732C143.926 117.732 143.17 118.608 143.17 120.132V123ZM154.655 123.12C152.723 123.12 151.439 121.836 151.439 120.036C151.439 118.236 152.723 116.952 154.655 116.952C156.599 116.952 157.883 118.236 157.883 120.036C157.883 121.836 156.599 123.12 154.655 123.12ZM154.655 122.352C156.287 122.352 157.043 121.476 157.043 120.036C157.043 118.608 156.287 117.72 154.655 117.72C153.023 117.72 152.279 118.608 152.279 120.036C152.279 121.476 153.023 122.352 154.655 122.352ZM159.869 123H159.017V117.072H159.785V118.932H159.845C160.049 117.924 160.889 116.952 162.365 116.952C164.033 116.952 164.861 118.14 164.861 119.544V123H164.009V119.664C164.009 118.44 163.421 117.732 162.065 117.732C160.625 117.732 159.869 118.608 159.869 120.132V123ZM169.067 123.12C167.159 123.12 165.947 121.92 165.947 120.036C165.947 118.236 167.147 116.952 169.055 116.952C170.795 116.952 172.031 117.96 172.031 119.724C172.031 119.94 172.007 120.12 171.971 120.276H166.751C166.799 121.608 167.483 122.412 169.055 122.412C170.447 122.412 171.095 121.896 171.095 121.032V120.948H171.947V121.032C171.947 122.268 170.723 123.12 169.067 123.12ZM169.043 117.66C167.507 117.66 166.811 118.452 166.751 119.748H171.227C171.227 119.688 171.227 119.628 171.227 119.568C171.227 118.32 170.435 117.66 169.043 117.66ZM16.572 140.04H15.72V132.072H16.488V133.74H16.584C16.848 132.672 17.736 131.952 19.14 131.952C20.988 131.952 22.044 133.236 22.044 135.036C22.044 136.836 21 138.12 19.116 138.12C17.808 138.12 16.86 137.4 16.584 136.26H16.572V140.04ZM16.572 135.144C16.572 136.548 17.496 137.34 18.888 137.34C20.268 137.34 21.18 136.752 21.18 135.036C21.18 133.32 20.256 132.744 18.912 132.744C17.436 132.744 16.572 133.572 16.572 135.036V135.144ZM23.9431 138H23.0911V129.96H23.9431V138ZM27.0203 138.12C25.8563 138.12 25.0643 137.568 25.0643 136.608C25.0643 135.636 25.8683 135.216 26.9723 135.096L29.7923 134.784V134.328C29.7923 133.176 29.2883 132.72 27.9923 132.72C26.7203 132.72 26.0483 133.176 26.0483 134.22V134.268H25.1963V134.22C25.1963 132.972 26.2283 131.952 28.0523 131.952C29.8523 131.952 30.6203 132.984 30.6203 134.292V138H29.8523V136.404H29.7923C29.4443 137.496 28.4003 138.12 27.0203 138.12ZM25.9163 136.548C25.9163 137.148 26.3123 137.46 27.2123 137.46C28.6523 137.46 29.7923 136.824 29.7923 135.396V135.348L27.2363 135.636C26.3483 135.72 25.9163 135.936 25.9163 136.548ZM34.8528 138.12C32.9568 138.12 31.7208 136.836 31.7208 135.036C31.7208 133.236 32.9568 131.952 34.8528 131.952C36.5088 131.952 37.8048 132.936 37.8048 134.364V134.46H36.9648V134.388C36.9648 133.332 36.1968 132.732 34.8408 132.732C33.2568 132.732 32.5728 133.584 32.5728 135.036C32.5728 136.488 33.2568 137.34 34.8408 137.34C36.1968 137.34 36.9648 136.74 36.9648 135.684V135.612H37.8048V135.708C37.8048 137.136 36.5088 138.12 34.8528 138.12ZM41.7666 138.12C39.8586 138.12 38.6466 136.92 38.6466 135.036C38.6466 133.236 39.8466 131.952 41.7546 131.952C43.4946 131.952 44.7306 132.96 44.7306 134.724C44.7306 134.94 44.7066 135.12 44.6706 135.276H39.4506C39.4986 136.608 40.1826 137.412 41.7546 137.412C43.1466 137.412 43.7946 136.896 43.7946 136.032V135.948H44.6466V136.032C44.6466 137.268 43.4226 138.12 41.7666 138.12ZM41.7426 132.66C40.2066 132.66 39.5106 133.452 39.4506 134.748H43.9266C43.9266 134.688 43.9266 134.628 43.9266 134.568C43.9266 133.32 43.1346 132.66 41.7426 132.66ZM46.5566 138H45.5006V136.332H46.5566V138Z" fill="white"/>
</g>
<path d="M15 181.84H27V169.84H15V181.84Z" fill="white"/>
<path d="M40.86 179H35.5V172.3H40.86V173.27H36.58V175.15H40.71V176.11H36.58V178.03H40.86V179ZM42.3212 179H41.0312L43.1712 176.54V176.48L41.0312 174.03H42.3412L43.9912 175.91H44.0512L45.6812 174.03H46.9812L44.8412 176.46V176.52L46.9812 179H45.6712L44.0212 177.1H43.9512L42.3212 179ZM49.817 179.1C48.177 179.1 47.107 178.05 47.107 176.52C47.107 174.97 48.177 173.93 49.817 173.93C51.307 173.93 52.397 174.77 52.397 176.01V176.11H51.327V176.05C51.327 175.28 50.767 174.9 49.797 174.9C48.677 174.9 48.177 175.43 48.177 176.52C48.177 177.59 48.677 178.13 49.797 178.13C50.767 178.13 51.327 177.75 51.327 176.98V176.91H52.397V177.02C52.397 178.26 51.307 179.1 49.817 179.1ZM54.0757 179H52.9957V172.3H54.0757V179ZM56.9458 179.1C55.5458 179.1 54.8658 178.17 54.8658 177.02V174.03H55.9358V176.73C55.9358 177.66 56.3658 178.13 57.4158 178.13C58.5158 178.13 59.0258 177.57 59.0258 176.49V174.03H60.0958V179H59.1058V177.46H59.0458C58.8858 178.3 58.2258 179.1 56.9458 179.1ZM63.227 179.1C61.627 179.1 60.717 178.47 60.717 177.32V177.29H61.797V177.37C61.797 178.02 62.187 178.23 63.227 178.23C64.197 178.23 64.487 178.03 64.487 177.59C64.487 177.18 64.247 177.05 63.537 176.95L62.177 176.77C61.237 176.65 60.667 176.25 60.667 175.42C60.667 174.55 61.457 173.93 62.987 173.93C64.507 173.93 65.427 174.54 65.427 175.72V175.75H64.357V175.69C64.357 175.1 64.057 174.79 62.957 174.79C62.047 174.79 61.727 174.99 61.727 175.46C61.727 175.85 61.927 175.99 62.677 176.09L63.827 176.25C65.007 176.4 65.547 176.8 65.547 177.62C65.547 178.55 64.627 179.1 63.227 179.1ZM67.2062 173.45H66.1262V172.3H67.2062V173.45ZM67.2062 179H66.1262V174.03H67.2062V179ZM71.1962 179H69.8762L67.5562 174.03H68.7462L70.5162 177.95H70.5962L72.3662 174.03H73.5362L71.1962 179ZM76.3902 179.1C74.7602 179.1 73.6902 178.18 73.6902 176.52C73.6902 174.97 74.7502 173.93 76.3702 173.93C77.9102 173.93 78.9602 174.78 78.9602 176.29C78.9602 176.47 78.9502 176.61 78.9202 176.76H74.7002C74.7402 177.72 75.2102 178.23 76.3602 178.23C77.4002 178.23 77.8302 177.89 77.8302 177.3V177.22H78.9102V177.31C78.9102 178.37 77.8702 179.1 76.3902 179.1ZM76.3502 174.78C75.2502 174.78 74.7702 175.27 74.7102 176.16H77.9402V176.14C77.9402 175.22 77.4102 174.78 76.3502 174.78ZM83.2681 179.1C81.6981 179.1 80.8281 178.05 80.8281 176.52C80.8281 174.97 81.6881 173.93 83.1981 173.93C84.3781 173.93 85.0481 174.54 85.2481 175.38H85.3081V172.3H86.3881V179H85.3981V177.57H85.3281C85.1181 178.56 84.3881 179.1 83.2681 179.1ZM81.9181 176.52C81.9181 177.71 82.5281 178.11 83.5981 178.11C84.6581 178.11 85.3081 177.61 85.3081 176.57V176.49C85.3081 175.43 84.6881 174.91 83.5781 174.91C82.5381 174.91 81.9181 175.32 81.9181 176.52ZM89.6867 179.1C88.0567 179.1 86.9867 178.18 86.9867 176.52C86.9867 174.97 88.0467 173.93 89.6667 173.93C91.2067 173.93 92.2567 174.78 92.2567 176.29C92.2567 176.47 92.2467 176.61 92.2167 176.76H87.9967C88.0367 177.72 88.5067 178.23 89.6567 178.23C90.6967 178.23 91.1267 177.89 91.1267 177.3V177.22H92.2067V177.31C92.2067 178.37 91.1667 179.1 89.6867 179.1ZM89.6467 174.78C88.5467 174.78 88.0667 175.27 88.0067 176.16H91.2367V176.14C91.2367 175.22 90.7067 174.78 89.6467 174.78ZM94.3256 179.1C93.2956 179.1 92.6456 178.62 92.6456 177.8C92.6456 177.03 93.2656 176.63 94.2456 176.52L96.5056 176.28V175.99C96.5056 175.17 96.1456 174.88 95.1956 174.88C94.2756 174.88 93.8256 175.18 93.8256 175.91V175.95H92.7556V175.91C92.7556 174.78 93.6956 173.93 95.2756 173.93C96.8556 173.93 97.5656 174.79 97.5656 175.98V179H96.5756V177.76H96.5056C96.2456 178.6 95.4556 179.1 94.3256 179.1ZM93.7256 177.73C93.7256 178.13 93.9956 178.32 94.6156 178.32C95.7456 178.32 96.5056 177.9 96.5056 176.92L94.5556 177.14C93.9956 177.21 93.7256 177.34 93.7256 177.73ZM99.4097 179H98.3297V172.3H99.4097V179ZM102.56 179.1C100.96 179.1 100.05 178.47 100.05 177.32V177.29H101.13V177.37C101.13 178.02 101.52 178.23 102.56 178.23C103.53 178.23 103.82 178.03 103.82 177.59C103.82 177.18 103.58 177.05 102.87 176.95L101.51 176.77C100.57 176.65 99.9998 176.25 99.9998 175.42C99.9998 174.55 100.79 173.93 102.32 173.93C103.84 173.93 104.76 174.54 104.76 175.72V175.75H103.69V175.69C103.69 175.1 103.39 174.79 102.29 174.79C101.38 174.79 101.06 174.99 101.06 175.46C101.06 175.85 101.26 175.99 102.01 176.09L103.16 176.25C104.34 176.4 104.88 176.8 104.88 177.62C104.88 178.55 103.96 179.1 102.56 179.1Z" fill="white"/>
<circle cx="112" cy="176" r="1" fill="white"/>
<path d="M118 181.84H130V169.84H118V181.84Z" fill="white"/>
<path d="M142.819 179.1C140.819 179.1 139.799 178.22 139.799 176.81V176.75H140.879V176.91C140.879 177.71 141.349 178.11 142.819 178.11C144.099 178.11 144.549 177.83 144.549 177.2C144.549 176.62 144.209 176.4 143.359 176.24L141.719 175.97C140.589 175.77 139.789 175.25 139.789 174.15C139.789 173.18 140.589 172.2 142.669 172.2C144.629 172.2 145.519 173.18 145.519 174.49V174.55H144.449V174.42C144.449 173.6 143.959 173.19 142.569 173.19C141.349 173.19 140.869 173.49 140.869 174.09C140.869 174.67 141.209 174.86 141.999 175.03L143.629 175.31C144.969 175.55 145.629 176.16 145.629 177.14C145.629 178.16 144.799 179.1 142.819 179.1ZM148.266 179.1C146.866 179.1 146.186 178.17 146.186 177.02V174.03H147.256V176.73C147.256 177.66 147.686 178.13 148.736 178.13C149.836 178.13 150.346 177.57 150.346 176.49V174.03H151.416V179H150.426V177.46H150.366C150.206 178.3 149.546 179.1 148.266 179.1ZM153.277 180.7H152.197V174.03H153.187V175.41H153.277C153.477 174.49 154.177 173.93 155.347 173.93C156.887 173.93 157.757 174.98 157.757 176.52C157.757 178.06 156.907 179.1 155.357 179.1C154.237 179.1 153.517 178.51 153.317 177.6H153.277V180.7ZM153.277 176.6C153.277 177.62 153.927 178.12 154.987 178.12C156.057 178.12 156.677 177.71 156.677 176.52C156.677 175.32 156.047 174.92 155.007 174.92C153.897 174.92 153.277 175.44 153.277 176.51V176.6ZM160.805 179.1C159.175 179.1 158.105 178.18 158.105 176.52C158.105 174.97 159.165 173.93 160.785 173.93C162.325 173.93 163.375 174.78 163.375 176.29C163.375 176.47 163.365 176.61 163.335 176.76H159.115C159.155 177.72 159.625 178.23 160.775 178.23C161.815 178.23 162.245 177.89 162.245 177.3V177.22H163.325V177.31C163.325 178.37 162.285 179.1 160.805 179.1ZM160.765 174.78C159.665 174.78 159.185 175.27 159.125 176.16H162.355V176.14C162.355 175.22 161.825 174.78 160.765 174.78ZM165.064 179H163.984V174.03H164.974V175.37H165.044C165.194 174.57 165.734 173.93 166.754 173.93C167.884 173.93 168.374 174.74 168.374 175.68V176.33H167.304V175.89C167.304 175.18 167.004 174.85 166.264 174.85C165.414 174.85 165.064 175.32 165.064 176.21V179ZM171.822 179H170.742V174.93H169.992V174.03H170.752C170.872 172.94 171.702 172.3 173.112 172.3H173.602V173.1H172.942C172.152 173.1 171.742 173.31 171.802 174.03H173.602V174.93H171.822V179ZM175.46 179.1C174.43 179.1 173.78 178.62 173.78 177.8C173.78 177.03 174.4 176.63 175.38 176.52L177.64 176.28V175.99C177.64 175.17 177.28 174.88 176.33 174.88C175.41 174.88 174.96 175.18 174.96 175.91V175.95H173.89V175.91C173.89 174.78 174.83 173.93 176.41 173.93C177.99 173.93 178.7 174.79 178.7 175.98V179H177.71V177.76H177.64C177.38 178.6 176.59 179.1 175.46 179.1ZM174.86 177.73C174.86 178.13 175.13 178.32 175.75 178.32C176.88 178.32 177.64 177.9 177.64 176.92L175.69 177.14C175.13 177.21 174.86 177.34 174.86 177.73ZM181.814 179.1C180.214 179.1 179.304 178.47 179.304 177.32V177.29H180.384V177.37C180.384 178.02 180.774 178.23 181.814 178.23C182.784 178.23 183.074 178.03 183.074 177.59C183.074 177.18 182.834 177.05 182.124 176.95L180.764 176.77C179.824 176.65 179.254 176.25 179.254 175.42C179.254 174.55 180.044 173.93 181.574 173.93C183.094 173.93 184.014 174.54 184.014 175.72V175.75H182.944V175.69C182.944 175.1 182.644 174.79 181.544 174.79C180.634 174.79 180.314 174.99 180.314 175.46C180.314 175.85 180.514 175.99 181.264 176.09L182.414 176.25C183.594 176.4 184.134 176.8 184.134 177.62C184.134 178.55 183.214 179.1 181.814 179.1ZM187.973 179H186.833C185.763 179 185.103 178.53 185.103 177.32V174.93H184.263V174.03H185.103V172.94H186.173V174.03H187.973V174.93H186.173V177.26C186.173 177.87 186.453 178.03 187.073 178.03H187.973V179ZM192.307 179.1C190.707 179.1 189.797 178.47 189.797 177.32V177.29H190.877V177.37C190.877 178.02 191.267 178.23 192.307 178.23C193.277 178.23 193.567 178.03 193.567 177.59C193.567 177.18 193.327 177.05 192.617 176.95L191.257 176.77C190.317 176.65 189.747 176.25 189.747 175.42C189.747 174.55 190.537 173.93 192.067 173.93C193.587 173.93 194.507 174.54 194.507 175.72V175.75H193.437V175.69C193.437 175.1 193.137 174.79 192.037 174.79C191.127 174.79 190.807 174.99 190.807 175.46C190.807 175.85 191.007 175.99 191.757 176.09L192.907 176.25C194.087 176.4 194.627 176.8 194.627 177.62C194.627 178.55 193.707 179.1 192.307 179.1ZM196.287 179H195.207V172.3H196.287V175.55H196.347C196.517 174.71 197.127 173.93 198.397 173.93C199.767 173.93 200.437 174.83 200.437 176.04V179H199.367V176.3C199.367 175.3 198.917 174.9 197.887 174.9C196.707 174.9 196.287 175.54 196.287 176.59V179ZM202.288 173.45H201.208V172.3H202.288V173.45ZM202.288 179H201.208V174.03H202.288V179ZM204.168 180.7H203.088V174.03H204.078V175.41H204.168C204.368 174.49 205.068 173.93 206.238 173.93C207.778 173.93 208.648 174.98 208.648 176.52C208.648 178.06 207.798 179.1 206.248 179.1C205.128 179.1 204.408 178.51 204.208 177.6H204.168V180.7ZM204.168 176.6C204.168 177.62 204.818 178.12 205.878 178.12C206.948 178.12 207.568 177.71 207.568 176.52C207.568 175.32 206.938 174.92 205.898 174.92C204.788 174.92 204.168 175.44 204.168 176.51V176.6ZM210.276 180.7H209.196V174.03H210.186V175.41H210.276C210.476 174.49 211.176 173.93 212.346 173.93C213.886 173.93 214.756 174.98 214.756 176.52C214.756 178.06 213.906 179.1 212.356 179.1C211.236 179.1 210.516 178.51 210.316 177.6H210.276V180.7ZM210.276 176.6C210.276 177.62 210.926 178.12 211.986 178.12C213.056 178.12 213.676 177.71 213.676 176.52C213.676 175.32 213.046 174.92 212.006 174.92C210.896 174.92 210.276 175.44 210.276 176.51V176.6ZM216.385 173.45H215.305V172.3H216.385V173.45ZM216.385 179H215.305V174.03H216.385V179ZM218.265 179H217.185V174.03H218.175V175.57H218.245C218.395 174.73 219.055 173.93 220.315 173.93C221.695 173.93 222.375 174.86 222.375 176.01V179H221.295V176.3C221.295 175.37 220.875 174.9 219.845 174.9C218.755 174.9 218.265 175.46 218.265 176.54V179ZM225.297 178.55C223.817 178.55 222.937 177.62 222.937 176.24C222.937 174.86 223.857 173.93 225.367 173.93C226.407 173.93 227.187 174.4 227.367 175.27H227.427V174.03H228.417V178.42C228.417 180.09 227.377 180.8 225.747 180.8C224.277 180.8 223.257 180.11 223.257 178.91H224.327C224.327 179.63 224.747 179.9 225.807 179.9C226.937 179.9 227.347 179.59 227.347 178.48V177.26H227.277C227.097 178.01 226.427 178.55 225.297 178.55ZM224.027 176.24C224.027 177.26 224.627 177.62 225.647 177.62C226.747 177.62 227.347 177.16 227.347 176.28V176.14C227.347 175.3 226.727 174.87 225.677 174.87C224.637 174.87 224.027 175.22 224.027 176.24Z" fill="white"/>
<circle cx="235" cy="176" r="1" fill="white"/>
<path d="M241 181.84H253V169.84H241V181.84Z" fill="white"/>
<path d="M265.819 179.1C263.819 179.1 262.799 178.22 262.799 176.81V176.75H263.879V176.91C263.879 177.71 264.349 178.11 265.819 178.11C267.099 178.11 267.549 177.83 267.549 177.2C267.549 176.62 267.209 176.4 266.359 176.24L264.719 175.97C263.589 175.77 262.789 175.25 262.789 174.15C262.789 173.18 263.589 172.2 265.669 172.2C267.629 172.2 268.519 173.18 268.519 174.49V174.55H267.449V174.42C267.449 173.6 266.959 173.19 265.569 173.19C264.349 173.19 263.869 173.49 263.869 174.09C263.869 174.67 264.209 174.86 264.999 175.03L266.629 175.31C267.969 175.55 268.629 176.16 268.629 177.14C268.629 178.16 267.799 179.1 265.819 179.1ZM271.696 179.1C270.066 179.1 268.996 178.18 268.996 176.52C268.996 174.97 270.056 173.93 271.676 173.93C273.216 173.93 274.266 174.78 274.266 176.29C274.266 176.47 274.256 176.61 274.226 176.76H270.006C270.046 177.72 270.516 178.23 271.666 178.23C272.706 178.23 273.136 177.89 273.136 177.3V177.22H274.216V177.31C274.216 178.37 273.176 179.1 271.696 179.1ZM271.656 174.78C270.556 174.78 270.076 175.27 270.016 176.16H273.246V176.14C273.246 175.22 272.716 174.78 271.656 174.78ZM277.385 179.1C275.745 179.1 274.675 178.05 274.675 176.52C274.675 174.97 275.745 173.93 277.385 173.93C278.875 173.93 279.965 174.77 279.965 176.01V176.11H278.895V176.05C278.895 175.28 278.335 174.9 277.365 174.9C276.245 174.9 275.745 175.43 275.745 176.52C275.745 177.59 276.245 178.13 277.365 178.13C278.335 178.13 278.895 177.75 278.895 176.98V176.91H279.965V177.02C279.965 178.26 278.875 179.1 277.385 179.1ZM282.633 179.1C281.233 179.1 280.553 178.17 280.553 177.02V174.03H281.623V176.73C281.623 177.66 282.053 178.13 283.103 178.13C284.203 178.13 284.713 177.57 284.713 176.49V174.03H285.783V179H284.793V177.46H284.733C284.573 178.3 283.913 179.1 282.633 179.1ZM287.644 179H286.564V174.03H287.554V175.37H287.624C287.774 174.57 288.314 173.93 289.334 173.93C290.464 173.93 290.954 174.74 290.954 175.68V176.33H289.884V175.89C289.884 175.18 289.584 174.85 288.844 174.85C287.994 174.85 287.644 175.32 287.644 176.21V179ZM293.933 179.1C292.303 179.1 291.233 178.18 291.233 176.52C291.233 174.97 292.293 173.93 293.913 173.93C295.453 173.93 296.503 174.78 296.503 176.29C296.503 176.47 296.493 176.61 296.463 176.76H292.243C292.283 177.72 292.753 178.23 293.903 178.23C294.943 178.23 295.373 177.89 295.373 177.3V177.22H296.453V177.31C296.453 178.37 295.413 179.1 293.933 179.1ZM293.893 174.78C292.793 174.78 292.313 175.27 292.253 176.16H295.483V176.14C295.483 175.22 294.953 174.78 293.893 174.78ZM301.881 179.1C299.801 179.1 298.421 177.74 298.421 175.65C298.421 173.56 299.801 172.2 301.881 172.2C303.771 172.2 305.091 173.2 305.091 174.8V174.94H303.901V174.8C303.901 173.78 303.251 173.23 301.891 173.23C300.321 173.23 299.561 173.98 299.561 175.65C299.561 177.32 300.321 178.06 301.891 178.06C303.251 178.06 303.901 177.52 303.901 176.49V176.36H305.091V176.49C305.091 178.1 303.781 179.1 301.881 179.1ZM306.766 179H305.686V172.3H306.766V175.55H306.826C306.996 174.71 307.606 173.93 308.876 173.93C310.246 173.93 310.916 174.83 310.916 176.04V179H309.846V176.3C309.846 175.3 309.396 174.9 308.366 174.9C307.186 174.9 306.766 175.54 306.766 176.59V179ZM314.188 179.1C312.558 179.1 311.488 178.18 311.488 176.52C311.488 174.97 312.548 173.93 314.168 173.93C315.708 173.93 316.758 174.78 316.758 176.29C316.758 176.47 316.748 176.61 316.718 176.76H312.498C312.538 177.72 313.008 178.23 314.158 178.23C315.198 178.23 315.628 177.89 315.628 177.3V177.22H316.708V177.31C316.708 178.37 315.668 179.1 314.188 179.1ZM314.148 174.78C313.048 174.78 312.568 175.27 312.507 176.16H315.738V176.14C315.738 175.22 315.208 174.78 314.148 174.78ZM319.876 179.1C318.236 179.1 317.166 178.05 317.166 176.52C317.166 174.97 318.236 173.93 319.876 173.93C321.366 173.93 322.456 174.77 322.456 176.01V176.11H321.386V176.05C321.386 175.28 320.826 174.9 319.856 174.9C318.736 174.9 318.236 175.43 318.236 176.52C318.236 177.59 318.736 178.13 319.856 178.13C320.826 178.13 321.386 177.75 321.386 176.98V176.91H322.456V177.02C322.456 178.26 321.366 179.1 319.876 179.1ZM324.135 179H323.055V172.3H324.135V176H325.555L327.045 174.03H328.305L326.435 176.42L328.295 179H327.025L325.555 176.97H324.135V179ZM331.176 179.1C329.526 179.1 328.416 178.05 328.416 176.52C328.416 174.97 329.526 173.93 331.176 173.93C332.836 173.93 333.946 174.97 333.946 176.52C333.946 178.05 332.836 179.1 331.176 179.1ZM331.176 178.14C332.386 178.14 332.886 177.57 332.886 176.52C332.886 175.46 332.386 174.88 331.176 174.88C329.976 174.88 329.476 175.46 329.476 176.52C329.476 177.57 329.976 178.14 331.176 178.14ZM336.6 179.1C335.2 179.1 334.52 178.17 334.52 177.02V174.03H335.59V176.73C335.59 177.66 336.02 178.13 337.07 178.13C338.17 178.13 338.68 177.57 338.68 176.49V174.03H339.75V179H338.76V177.46H338.7C338.54 178.3 337.88 179.1 336.6 179.1ZM343.791 179H342.651C341.581 179 340.921 178.53 340.921 177.32V174.93H340.081V174.03H340.921V172.94H341.991V174.03H343.791V174.93H341.991V177.26C341.991 177.87 342.271 178.03 342.891 178.03H343.791V179Z" fill="white"/>
<path d="M294.66 -1.82922C293.754 -7.63762 289.843 -12.4034 285.265 -16.0908C275.673 -13.0188 266.391 -9.01088 256.971 -5.40479C261.696 -2.30223 264.656 0.708778 264.778 3.33833C265.165 11.8526 259.219 15.8249 256.361 17.8746C250.247 22.2639 243.569 24.8986 237.237 27.874C254.626 24.4001 271.975 20.5652 288.79 15.3162C293.195 11.0693 295.804 5.51012 294.66 -1.82922Z" fill="#FFA500"/>
<path d="M264.26 26.9737C272.275 24.8731 282.417 21.4654 288.79 15.3213C271.975 20.5702 254.626 24.4052 237.237 27.879C229.15 31.6784 221.617 36.0423 216.521 45.35C215.331 47.5218 214.4 49.7699 213.693 52.0688C219.323 49.485 225.004 47.0386 230.711 44.6735C237.537 33.2805 251.9 30.2136 264.26 26.9788V26.9737Z" fill="#FFA500"/>
<path d="M228.962 48.1679C229.47 46.9167 230.055 45.7571 230.711 44.6636C225.005 47.0286 219.323 49.4751 213.693 52.0589C211.999 57.5621 211.648 63.345 212.325 69.0517C218.296 66.3408 224.333 63.6858 230.365 60.9749C228.092 56.7127 227.278 52.3182 228.962 48.1628V48.1679Z" fill="#FFA500"/>
<path d="M212.325 69.0566C212.564 71.0656 212.93 73.0645 213.413 75.043C220.04 71.8794 226.734 68.7667 233.387 65.5828C232.217 64.0823 231.199 62.5412 230.37 60.9849C224.338 63.6907 218.301 66.3508 212.33 69.0617L212.325 69.0566Z" fill="#FFA500"/>
<path d="M233.387 65.583C226.734 68.772 220.041 71.8797 213.413 75.0433C214.329 78.7714 215.651 82.4182 217.304 85.8768C217.431 86.1413 217.574 86.3956 217.711 86.6601C226.195 82.7183 234.77 79.0054 243.34 75.3077C239.653 72.4188 236.128 69.0975 233.392 65.583H233.387Z" fill="#FFA500"/>
<path d="M243.335 75.3073C234.765 79.005 226.19 82.7179 217.706 86.6597C219.883 90.9371 222.823 94.5127 226.302 97.539C235.523 92.4375 244.561 87.1835 253.853 82.2703C250.583 80.4851 246.885 78.0945 243.33 75.3022L243.335 75.3073Z" fill="#FFA500"/>
<path d="M331.804 99.1309C329.836 98.1442 327.882 97.2287 325.94 96.3691C325.522 96.8727 325.1 97.3711 324.673 97.8645C318.086 104.105 311.5 110.112 305.554 116.688C311.164 117.319 316.728 118.118 322.166 119.252C328.198 114.491 334.108 109.552 340.064 104.624C337.587 102.528 334.871 100.662 331.804 99.1309Z" fill="#FFA500"/>
<path d="M374.986 142.76C359.559 133.285 353.156 115.707 340.059 104.629C334.103 109.553 328.193 114.491 322.161 119.257C332.72 121.47 342.78 124.979 351.681 131.113C362.341 138.463 370.403 149.037 380.799 156.752C384.975 159.85 389.522 162.423 394.303 164.453C400.355 158.828 406.535 153.365 412.796 147.974C398.952 149.596 384.68 148.721 374.98 142.76H374.986Z" fill="#FFA500"/>
<path d="M311.464 91.2984C305.976 89.9252 300.32 89.1623 294.232 89.1673C280.505 89.1775 266.131 88.9232 254.062 82.3824C253.996 82.3468 253.925 82.3061 253.858 82.2705C244.566 87.1787 235.528 92.4377 226.307 97.5392C240.105 109.522 262.602 112.645 281.67 114.471C283.058 114.603 284.452 114.73 285.85 114.852C293.886 106.532 303.113 99.2583 311.469 91.2984H311.464Z" fill="#FFA500"/>
<path d="M311.464 91.2983C303.108 99.2633 293.881 106.531 285.845 114.852C292.371 115.432 298.988 115.951 305.549 116.688C311.495 110.112 318.081 104.105 324.668 97.8646C325.1 97.3712 325.517 96.8728 325.934 96.3692C321.133 94.2432 316.367 92.5241 311.464 91.2983Z" fill="#FFA500"/>
<path d="M346.768 16.8673C349.794 13.6885 351.406 8.81083 349.672 4.7775C347.937 0.744172 342.2 -1.35641 338.813 1.43589C335.878 3.85182 335.883 8.30222 336.453 12.0558C336.997 15.6466 337.434 19.0391 336.376 22.5842C340.023 22.1213 344.174 19.5935 346.773 16.8622L346.768 16.8673Z" fill="white"/>
<path d="M364.142 42.5778C367.193 42.8321 370.372 43.5595 372.62 45.6397C374.868 47.7199 375.779 51.4837 373.907 53.9098C372.671 55.517 370.52 56.1986 368.49 56.1528C366.461 56.107 364.259 55.9188 362.596 54.7592C351.355 46.9265 343.767 47.1656 343.767 47.1656C349.046 43.0509 357.621 42.0336 364.137 42.5829L364.142 42.5778Z" fill="white"/>
<path d="M359.066 -1.81401C358.633 -6.43733 357.387 -11.0047 357.53 -15.6433C357.672 -20.287 359.585 -25.2816 363.735 -27.3669C369.508 -30.2762 376.898 -25.841 379.136 -19.7783C381.374 -13.7156 379.766 -6.91543 377.335 -0.923929C371.161 14.2888 363.735 24.9901 338.07 38.2243C338.07 38.2243 349.855 28.1791 353.629 21.7044C357.743 14.6448 359.834 6.35437 359.066 -1.81401Z" fill="white"/>
<path d="M330.512 -22.7129C328.579 -21.2176 328.778 -17.9929 330.431 -16.1873C332.079 -14.3818 334.678 -13.7663 337.124 -13.7256C339.57 -13.69 342.007 -14.1325 344.448 -14.041C346.889 -13.9443 349.478 -13.1967 350.994 -11.2792C352.754 -9.05145 352.489 -5.49114 350.419 -3.54823C347.337 -0.664373 342.073 -1.83928 338.624 0.591909C335.39 2.8756 335.125 8.30762 338.121 10.8914C340.603 13.0327 344.209 13.0174 347.479 13.2412C350.75 13.465 354.503 14.4263 355.841 17.4169C357.062 20.1482 355.246 23.7746 352.332 24.4358L351.91 27.7062C354.829 27.0501 356.645 23.4186 355.419 20.6873C354.076 17.6967 350.328 16.7405 347.057 16.5116C343.787 16.2827 340.181 16.3031 337.699 14.1618C334.703 11.5729 334.968 6.146 338.202 3.86232C341.651 1.43113 346.915 2.60604 349.997 -0.277821C352.067 -2.22073 352.332 -5.78105 350.572 -8.00879C349.056 -9.92627 346.467 -10.679 344.026 -10.7706C341.585 -10.8672 339.143 -10.4196 336.702 -10.4552C334.255 -10.4908 331.656 -11.1114 330.009 -12.9169C328.361 -14.7225 328.157 -17.9472 330.09 -19.4425L330.512 -22.7129Z" fill="#FFA500"/>
<path d="M349.148 37.2631L346.233 35.4677L347.561 38.6211L345.343 36.017L345.628 39.4247L344.326 36.2611L343.548 39.5926L343.283 36.1797L341.508 39.1094L342.317 35.783L339.723 38.0209L341.518 35.1066L338.365 36.434L340.974 34.2114L337.561 34.5013L340.725 33.1992L337.394 32.416L340.806 32.1566L337.877 30.3815L341.203 31.1851L338.965 28.5963L341.885 30.3917L340.552 27.2332L342.775 29.8424L342.485 26.4296L343.792 29.5982L344.57 26.2617L344.835 29.6745L346.605 26.7449L345.801 30.0763L348.39 27.8384L346.594 30.7528L349.753 29.4253L347.144 31.6429L350.557 31.3581L347.388 32.6601L350.724 33.4434L347.312 33.7028L350.241 35.4778L346.91 34.6691L349.148 37.2631Z" fill="#FFA500"/>
<path d="M329.642 12.3409L319.18 -0.8018L324.124 -4.79443L329.642 12.3409Z" fill="#FFA500"/>
<path d="M345.14 49.7344L359.839 51.1585L359.335 56.7278L345.14 49.7344Z" fill="#FFA500"/>
<path opacity="0.96" d="M334.871 38.8599C334.25 38.1173 332.999 36.3626 332.129 35.1266C330.919 33.4075 328.64 32.7819 326.753 33.7076C326.723 33.7229 326.697 33.7381 326.667 33.7483C323.402 35.4013 324.053 38.5649 324.053 38.5649C309.649 50.5072 298.963 54.3879 281.37 65.6284C276.583 68.6902 266.253 67.2305 261.137 69.6922C254.108 73.0796 246.127 80.1239 240.197 85.1846C228.545 95.1281 216.918 102.808 205.265 112.752C203.012 114.674 200.678 116.709 199.579 119.46C198.292 122.68 199.248 128.361 200.815 131.453C202.386 134.546 205.799 140.146 208.154 142.689C210.163 144.861 214.034 148.492 216.47 150.466C219.166 152.648 224.521 154.768 227.939 154.184C230.859 153.685 233.336 151.829 235.686 150.023C247.847 140.71 257.785 130.945 269.946 121.627C276.141 116.882 284.696 110.554 289.477 104.39C292.961 99.8989 293.688 89.4977 297.686 85.4542C312.354 70.6026 318.387 60.9593 333.075 49.373C333.075 49.373 336.209 49.6222 338.329 47.8217C338.696 47.5114 338.935 47.0791 339.087 46.6061C339.606 45.009 339.097 43.2543 337.917 42.0642C336.865 41.0012 335.466 39.5669 334.871 38.8599Z" fill="#EF383A"/>
<path opacity="0.58" d="M337.912 42.0591C334.596 48.1676 328.849 53.091 321.85 54.688C314.897 56.3563 307.965 56.2902 301.424 60.5676C296.191 63.9855 296.124 70.9231 292.61 76.0906C282.504 90.7337 253.36 85.1389 244.647 106.414C241.621 113.81 244.5 122.019 240.975 128.488C235.68 138.406 220.514 137.832 213.668 128.666C209.624 122.776 208.963 115.335 210.443 108.469C208.714 109.858 206.989 111.277 205.26 112.752C203.007 114.674 200.672 116.709 199.574 119.46C198.287 122.68 199.243 128.361 200.81 131.453C202.381 134.546 205.794 140.146 208.149 142.689C210.158 144.861 214.029 148.492 216.465 150.466C219.161 152.648 224.516 154.768 227.934 154.184C230.854 153.685 233.331 151.829 235.68 150.023C247.841 140.71 257.78 130.945 269.941 121.627C276.136 116.882 284.691 110.554 289.472 104.39C292.956 99.8989 293.683 89.4977 297.681 85.4542C312.349 70.6026 318.382 60.9593 333.07 49.373C333.07 49.373 336.203 49.6222 338.324 47.8217C338.691 47.5114 338.93 47.0791 339.082 46.6061C339.601 45.0091 339.092 43.2543 337.912 42.0642V42.0591Z" fill="#FFD2D3"/>
<path d="M206.003 123.194C207.727 117.985 212.152 114.217 216.384 110.722C225.31 103.347 234.236 95.9776 243.162 88.6027C249.973 82.9774 256.997 76.5892 265.379 73.8172C271.319 71.8539 279.737 72.1286 284.848 68.5225C306.49 53.264 322.074 45.1363 324.739 40.5995C324.917 40.2943 325.355 40.2892 325.548 40.5842C326.016 41.3013 326.845 42.4101 328.061 43.4731C328.361 43.7325 328.178 44.2106 327.786 44.2157C322.746 44.3276 314.414 52.0128 308.194 57.0634C302.569 61.6358 294.314 66.4575 287.559 72.037C281.578 76.9808 272.494 75.7092 265.15 78.2167C254.632 81.8076 246.041 90.7134 237.776 98.1392C229.77 105.336 221.719 111.292 215.224 119.877C213.708 121.881 212.244 123.977 211.201 126.276C210.652 127.481 210.184 131.754 209.09 132.323C204.874 134.526 205.357 125.152 206.008 123.189L206.003 123.194Z" fill="#B10002"/>
<path opacity="0.96" d="M328.925 49.7345C328.925 49.7345 328.813 48.4477 327.053 49.6734C315.142 57.9741 300.443 70.3589 290.886 81.2483C286.191 86.599 282.041 95.9016 277.443 101.339C264.951 116.119 251.788 125.986 236.174 137.415C233.209 139.587 227.588 141.758 224.135 143.015C220.681 144.266 216.679 142.735 213.459 140.965C215.509 146.997 222.421 151.209 228.611 149.708C234.801 148.208 260.735 125.834 268.39 118.967C273.796 114.12 280.515 109.695 285.184 104.136C289.253 99.2839 290.662 89.0607 294.476 84.0101C304.517 70.7047 316.576 60.9342 328.925 49.7396V49.7345Z" fill="#B10002"/>
<path d="M328.589 36.0827C329.317 36.8151 329.937 37.5425 330.563 38.2545L332.404 40.3653L334.266 42.4557C334.896 43.1627 335.542 43.8696 336.173 44.6885C335.156 44.4851 334.235 44.0426 333.386 43.4933C332.541 42.9389 331.773 42.2675 331.102 41.5097C330.436 40.7518 329.866 39.9024 329.423 38.992C328.991 38.0816 328.666 37.1101 328.589 36.0776V36.0827Z" fill="#B10002"/>
</g>
<defs>
<clipPath id="clip0_5347_10375">
<rect width="358" height="200" rx="9.72263" fill="white"/>
</clipPath>
</defs>
</svg>
