<svg width="358" height="200" viewBox="0 0 358 200" fill="none" xmlns="http://www.w3.org/2000/svg">
<rect width="358" height="200" rx="9.72263" fill="#C70E10"/>
<g opacity="0.8">
<path d="M20.6 70.5H18.056L15.224 59.78H17.144L18.888 66.564L19.368 68.836H19.496L20.072 66.564L22.232 59.78H24.744L27.048 66.564L27.656 68.836H27.784L28.232 66.564L29.832 59.78H31.72L29.032 70.5H26.488L24.328 64.26L23.544 61.508H23.4L22.632 64.26L20.6 70.5ZM35.0735 70.66C33.4255 70.66 32.3855 69.892 32.3855 68.58C32.3855 67.348 33.3775 66.708 34.9455 66.532L38.5615 66.148V65.684C38.5615 64.372 37.9855 63.908 36.4655 63.908C34.9935 63.908 34.2735 64.388 34.2735 65.556V65.62H32.5615V65.556C32.5615 63.748 34.0655 62.388 36.5935 62.388C39.1215 62.388 40.2575 63.764 40.2575 65.668V70.5H38.6735V68.516H38.5615C38.1455 69.86 36.8815 70.66 35.0735 70.66ZM34.1135 68.468C34.1135 69.108 34.5455 69.412 35.5375 69.412C37.3455 69.412 38.5615 68.74 38.5615 67.172L35.4415 67.524C34.5455 67.636 34.1135 67.844 34.1135 68.468ZM43.528 70.5H41.8V59.78H43.528V70.5ZM46.8561 70.5H45.1281V59.78H46.8561V70.5ZM52.4563 70.66C49.8483 70.66 48.1363 69.188 48.1363 66.532C48.1363 64.052 49.8323 62.388 52.4243 62.388C54.8883 62.388 56.5683 63.748 56.5683 66.164C56.5683 66.452 56.5523 66.676 56.5043 66.916H49.7523C49.8163 68.452 50.5683 69.268 52.4083 69.268C54.0723 69.268 54.7603 68.724 54.7603 67.78V67.652H56.4883V67.796C56.4883 69.492 54.8243 70.66 52.4563 70.66ZM52.3923 63.748C50.6323 63.748 49.8643 64.532 49.7682 65.956H54.9363V65.924C54.9363 64.452 54.0883 63.748 52.3923 63.748ZM63.0785 70.5H61.2545C59.5425 70.5 58.4865 69.748 58.4865 67.812V63.988H57.1425V62.548H58.4865V60.804H60.1985V62.548H63.0785V63.988H60.1985V67.716C60.1985 68.692 60.6465 68.948 61.6385 68.948H63.0785V70.5ZM68.6218 70.5H66.8938V59.78H72.1418C74.5258 59.78 76.1578 61.14 76.1578 63.524C76.1578 65.892 74.5258 67.268 72.1418 67.268H68.6218V70.5ZM71.9818 61.332H68.6218V65.716H71.9818C73.5978 65.716 74.4298 65.108 74.4298 63.524C74.4298 61.94 73.5978 61.332 71.9818 61.332ZM78.9186 70.5H77.1906V62.548H78.7746V64.692H78.8866C79.1266 63.412 79.9906 62.388 81.6226 62.388C83.4306 62.388 84.2146 63.684 84.2146 65.188V66.228H82.5026V65.524C82.5026 64.388 82.0226 63.86 80.8386 63.86C79.4786 63.86 78.9186 64.612 78.9186 66.036V70.5ZM89.364 70.66C86.724 70.66 84.948 68.98 84.948 66.532C84.948 64.052 86.724 62.388 89.364 62.388C92.02 62.388 93.796 64.052 93.796 66.532C93.796 68.98 92.02 70.66 89.364 70.66ZM89.364 69.124C91.3 69.124 92.1 68.212 92.1 66.532C92.1 64.836 91.3 63.908 89.364 63.908C87.444 63.908 86.644 64.836 86.644 66.532C86.644 68.212 87.444 69.124 89.364 69.124ZM98.506 69.78C96.138 69.78 94.73 68.292 94.73 66.084C94.73 63.876 96.202 62.388 98.618 62.388C100.282 62.388 101.53 63.14 101.818 64.532H101.914V62.548H103.498V69.572C103.498 72.244 101.834 73.38 99.226 73.38C96.874 73.38 95.242 72.276 95.242 70.356H96.954C96.954 71.508 97.626 71.94 99.322 71.94C101.13 71.94 101.786 71.444 101.786 69.668V67.716H101.674C101.386 68.916 100.314 69.78 98.506 69.78ZM96.474 66.084C96.474 67.716 97.434 68.292 99.066 68.292C100.826 68.292 101.786 67.556 101.786 66.148V65.924C101.786 64.58 100.794 63.892 99.114 63.892C97.45 63.892 96.474 64.452 96.474 66.084ZM106.825 70.5H105.097V62.548H106.681V64.692H106.793C107.033 63.412 107.897 62.388 109.529 62.388C111.337 62.388 112.121 63.684 112.121 65.188V66.228H110.409V65.524C110.409 64.388 109.929 63.86 108.745 63.86C107.385 63.86 106.825 64.612 106.825 66.036V70.5ZM115.542 70.66C113.894 70.66 112.854 69.892 112.854 68.58C112.854 67.348 113.846 66.708 115.414 66.532L119.03 66.148V65.684C119.03 64.372 118.454 63.908 116.934 63.908C115.462 63.908 114.742 64.388 114.742 65.556V65.62H113.03V65.556C113.03 63.748 114.534 62.388 117.062 62.388C119.59 62.388 120.726 63.764 120.726 65.668V70.5H119.142V68.516H119.03C118.614 69.86 117.35 70.66 115.542 70.66ZM114.582 68.468C114.582 69.108 115.014 69.412 116.006 69.412C117.814 69.412 119.03 68.74 119.03 67.172L115.91 67.524C115.014 67.636 114.582 67.844 114.582 68.468ZM123.997 70.5H122.269V62.548H123.853V64.948H123.949C124.157 63.62 125.021 62.388 127.005 62.388C128.813 62.388 129.789 63.492 130.013 65.012H130.109C130.317 63.652 131.213 62.388 133.229 62.388C135.293 62.388 136.333 63.796 136.333 65.716V70.5H134.621V66.18C134.621 64.612 133.997 63.94 132.461 63.94C130.765 63.94 130.157 64.804 130.157 66.564V70.5H128.445V66.18C128.445 64.612 127.837 63.94 126.301 63.94C124.589 63.94 123.997 64.804 123.997 66.564V70.5ZM139.766 66.98H138.086C138.086 65.428 137.83 62.132 137.83 60.9V59.78H140.022V60.9C140.022 62.132 139.766 65.444 139.766 66.98ZM139.894 70.5H137.942V68.132H139.894V70.5Z" fill="white"/>
<path d="M15.996 94.5H15.06L18.696 86.46H19.884L23.532 94.5H22.572L21.492 92.136H17.076L15.996 94.5ZM18.804 88.32L17.424 91.368H21.144L19.752 88.32L19.308 87.276H19.236L18.804 88.32ZM26.8658 94.62C24.9698 94.62 23.9138 93.336 23.9138 91.536C23.9138 89.736 24.9698 88.452 26.7938 88.452C28.1978 88.452 29.0738 89.208 29.3378 90.228H29.3978V86.46H30.2498V94.5H29.4698V92.748H29.4218C29.1338 93.936 28.1738 94.62 26.8658 94.62ZM24.7778 91.536C24.7778 93.252 25.6898 93.84 27.0818 93.84C28.4738 93.84 29.3978 93.036 29.3978 91.632V91.524C29.3978 90.06 28.5218 89.244 27.0578 89.244C25.7018 89.244 24.7778 89.82 24.7778 91.536ZM34.2369 94.62C32.3409 94.62 31.2849 93.336 31.2849 91.536C31.2849 89.736 32.3409 88.452 34.1649 88.452C35.5689 88.452 36.4449 89.208 36.7089 90.228H36.7689V86.46H37.6209V94.5H36.8409V92.748H36.7929C36.5049 93.936 35.5449 94.62 34.2369 94.62ZM32.1489 91.536C32.1489 93.252 33.0609 93.84 34.4529 93.84C35.8449 93.84 36.7689 93.036 36.7689 91.632V91.524C36.7689 90.06 35.8929 89.244 34.4289 89.244C33.0729 89.244 32.1489 89.82 32.1489 91.536ZM42.5272 94.5H41.6752V89.304H40.7272V88.572H41.6872C41.7832 87.168 42.7312 86.46 44.2672 86.46H44.9152V87.132H44.1472C43.0672 87.132 42.4792 87.492 42.5272 88.572H44.9152V89.304H42.5272V94.5ZM48.2392 94.62C46.5472 94.62 45.7192 93.444 45.7192 92.04V88.572H46.5712V91.908C46.5712 93.144 47.1712 93.852 48.5392 93.852C49.9912 93.852 50.7472 92.976 50.7472 91.452V88.572H51.5992V94.5H50.8312V92.652H50.7712C50.5672 93.66 49.7152 94.62 48.2392 94.62ZM53.8845 94.5H53.0325V88.572H53.8005V90.432H53.8605C54.0645 89.424 54.9045 88.452 56.3805 88.452C58.0485 88.452 58.8765 89.64 58.8765 91.044V94.5H58.0245V91.164C58.0245 89.94 57.4365 89.232 56.0805 89.232C54.6405 89.232 53.8845 90.108 53.8845 91.632V94.5ZM62.819 94.62C60.923 94.62 59.867 93.336 59.867 91.536C59.867 89.736 60.923 88.452 62.747 88.452C64.151 88.452 65.027 89.208 65.291 90.228H65.351V86.46H66.203V94.5H65.423V92.748H65.375C65.087 93.936 64.127 94.62 62.819 94.62ZM60.731 91.536C60.731 93.252 61.643 93.84 63.035 93.84C64.427 93.84 65.351 93.036 65.351 91.632V91.524C65.351 90.06 64.475 89.244 63.011 89.244C61.655 89.244 60.731 89.82 60.731 91.536ZM70.2381 94.62C68.4141 94.62 67.3581 93.888 67.3581 92.52V92.496H68.2101V92.568C68.2101 93.564 68.7981 93.912 70.2501 93.912C71.5821 93.912 72.0381 93.6 72.0381 92.916C72.0381 92.292 71.6661 92.088 70.6821 91.932L69.0981 91.704C68.0181 91.56 67.3341 91.14 67.3341 90.156C67.3341 89.112 68.3301 88.452 69.9621 88.452C71.6661 88.452 72.7701 89.172 72.7701 90.564V90.588H71.9181V90.528C71.9181 89.64 71.4501 89.16 69.9381 89.16C68.6901 89.16 68.1741 89.46 68.1741 90.168C68.1741 90.78 68.4861 90.996 69.4701 91.14L70.9221 91.344C72.1941 91.524 72.8781 91.956 72.8781 92.916C72.8781 94.032 71.7741 94.62 70.2381 94.62ZM73.8773 95.556H73.6253V95.04H73.8653C74.0213 95.04 74.1053 95.004 74.1053 94.788V94.5H73.6373V92.832H74.6933V94.776C74.6933 95.304 74.3813 95.556 73.8773 95.556ZM81.6177 94.5H80.3337C79.1577 94.5 78.4017 94.008 78.4017 92.616V89.304H77.3457V88.572H78.4017V87.156H79.2657V88.572H81.6177V89.304H79.2657V92.664C79.2657 93.492 79.6737 93.72 80.5377 93.72H81.6177V94.5ZM83.404 94.5H82.552V88.572H83.32V90.192H83.38C83.56 89.244 84.232 88.452 85.468 88.452C86.836 88.452 87.436 89.46 87.436 90.564V91.152H86.584V90.696C86.584 89.688 86.164 89.196 85.132 89.196C83.932 89.196 83.404 89.952 83.404 91.284V94.5ZM90.0671 94.62C88.9031 94.62 88.1111 94.068 88.1111 93.108C88.1111 92.136 88.9151 91.716 90.0191 91.596L92.8391 91.284V90.828C92.8391 89.676 92.3351 89.22 91.0391 89.22C89.7671 89.22 89.0951 89.676 89.0951 90.72V90.768H88.2431V90.72C88.2431 89.472 89.2751 88.452 91.0991 88.452C92.8991 88.452 93.6671 89.484 93.6671 90.792V94.5H92.8991V92.904H92.8391C92.4911 93.996 91.4471 94.62 90.0671 94.62ZM88.9631 93.048C88.9631 93.648 89.3591 93.96 90.2591 93.96C91.6991 93.96 92.8391 93.324 92.8391 91.896V91.848L90.2831 92.136C89.3951 92.22 88.9631 92.436 88.9631 93.048ZM97.8997 94.62C96.0037 94.62 94.7677 93.336 94.7677 91.536C94.7677 89.736 96.0037 88.452 97.8997 88.452C99.5557 88.452 100.852 89.436 100.852 90.864V90.96H100.012V90.888C100.012 89.832 99.2437 89.232 97.8877 89.232C96.3037 89.232 95.6197 90.084 95.6197 91.536C95.6197 92.988 96.3037 93.84 97.8877 93.84C99.2437 93.84 100.012 93.24 100.012 92.184V92.112H100.852V92.208C100.852 93.636 99.5557 94.62 97.8997 94.62ZM102.845 94.5H101.993V86.46H102.845V91.056H104.837L106.817 88.572H107.825L105.533 91.404L107.813 94.5H106.817L104.825 91.836H102.845V94.5ZM111.633 96.54H110.889V95.76H111.789C112.389 95.76 112.617 95.58 112.845 95.088L113.133 94.488L110.193 88.572H111.129L112.869 92.1L113.529 93.552H113.601L114.237 92.088L115.881 88.572H116.817L113.601 95.328C113.169 96.24 112.617 96.54 111.633 96.54ZM120.542 94.62C118.61 94.62 117.326 93.336 117.326 91.536C117.326 89.736 118.61 88.452 120.542 88.452C122.486 88.452 123.77 89.736 123.77 91.536C123.77 93.336 122.486 94.62 120.542 94.62ZM120.542 93.852C122.174 93.852 122.93 92.976 122.93 91.536C122.93 90.108 122.174 89.22 120.542 89.22C118.91 89.22 118.166 90.108 118.166 91.536C118.166 92.976 118.91 93.852 120.542 93.852ZM127.388 94.62C125.696 94.62 124.868 93.444 124.868 92.04V88.572H125.72V91.908C125.72 93.144 126.32 93.852 127.688 93.852C129.14 93.852 129.896 92.976 129.896 91.452V88.572H130.748V94.5H129.98V92.652H129.92C129.716 93.66 128.864 94.62 127.388 94.62ZM133.033 94.5H132.181V88.572H132.949V90.192H133.009C133.189 89.244 133.861 88.452 135.097 88.452C136.465 88.452 137.065 89.46 137.065 90.564V91.152H136.213V90.696C136.213 89.688 135.793 89.196 134.761 89.196C133.561 89.196 133.033 89.952 133.033 91.284V94.5ZM141.023 94.5H140.255V86.46H141.107V90.228H141.167C141.419 89.208 142.271 88.452 143.699 88.452C145.559 88.452 146.579 89.736 146.579 91.536C146.579 93.336 145.559 94.62 143.627 94.62C142.307 94.62 141.359 93.936 141.083 92.748H141.023V94.5ZM141.107 91.632C141.107 93.036 141.995 93.84 143.423 93.84C144.839 93.84 145.715 93.252 145.715 91.536C145.715 89.82 144.815 89.244 143.447 89.244C141.947 89.244 141.107 90.06 141.107 91.524V91.632ZM149.27 94.62C148.106 94.62 147.314 94.068 147.314 93.108C147.314 92.136 148.118 91.716 149.222 91.596L152.042 91.284V90.828C152.042 89.676 151.538 89.22 150.242 89.22C148.97 89.22 148.298 89.676 148.298 90.72V90.768H147.446V90.72C147.446 89.472 148.478 88.452 150.302 88.452C152.102 88.452 152.87 89.484 152.87 90.792V94.5H152.102V92.904H152.042C151.694 93.996 150.65 94.62 149.27 94.62ZM148.166 93.048C148.166 93.648 148.562 93.96 149.462 93.96C150.902 93.96 152.042 93.324 152.042 91.896V91.848L149.486 92.136C148.598 92.22 148.166 92.436 148.166 93.048ZM155.123 94.5H154.271V86.46H155.123V94.5ZM158.2 94.62C157.036 94.62 156.244 94.068 156.244 93.108C156.244 92.136 157.048 91.716 158.152 91.596L160.972 91.284V90.828C160.972 89.676 160.468 89.22 159.172 89.22C157.9 89.22 157.228 89.676 157.228 90.72V90.768H156.376V90.72C156.376 89.472 157.408 88.452 159.232 88.452C161.032 88.452 161.8 89.484 161.8 90.792V94.5H161.032V92.904H160.972C160.624 93.996 159.58 94.62 158.2 94.62ZM157.096 93.048C157.096 93.648 157.492 93.96 158.392 93.96C159.832 93.96 160.972 93.324 160.972 91.896V91.848L158.416 92.136C157.528 92.22 157.096 92.436 157.096 93.048ZM164.052 94.5H163.2V88.572H163.968V90.432H164.028C164.232 89.424 165.072 88.452 166.548 88.452C168.216 88.452 169.044 89.64 169.044 91.044V94.5H168.192V91.164C168.192 89.94 167.604 89.232 166.248 89.232C164.808 89.232 164.052 90.108 164.052 91.632V94.5ZM173.263 94.62C171.367 94.62 170.131 93.336 170.131 91.536C170.131 89.736 171.367 88.452 173.263 88.452C174.919 88.452 176.215 89.436 176.215 90.864V90.96H175.375V90.888C175.375 89.832 174.607 89.232 173.251 89.232C171.667 89.232 170.983 90.084 170.983 91.536C170.983 92.988 171.667 93.84 173.251 93.84C174.607 93.84 175.375 93.24 175.375 92.184V92.112H176.215V92.208C176.215 93.636 174.919 94.62 173.263 94.62ZM180.177 94.62C178.269 94.62 177.057 93.42 177.057 91.536C177.057 89.736 178.257 88.452 180.165 88.452C181.905 88.452 183.141 89.46 183.141 91.224C183.141 91.44 183.117 91.62 183.081 91.776H177.861C177.909 93.108 178.593 93.912 180.165 93.912C181.557 93.912 182.205 93.396 182.205 92.532V92.448H183.057V92.532C183.057 93.768 181.833 94.62 180.177 94.62ZM180.153 89.16C178.617 89.16 177.921 89.952 177.861 91.248H182.337C182.337 91.188 182.337 91.128 182.337 91.068C182.337 89.82 181.545 89.16 180.153 89.16ZM184.151 95.556H183.899V95.04H184.139C184.295 95.04 184.379 95.004 184.379 94.788V94.5H183.911V92.832H184.967V94.776C184.967 95.304 184.655 95.556 184.151 95.556ZM17.364 109.62C16.2 109.62 15.408 109.068 15.408 108.108C15.408 107.136 16.212 106.716 17.316 106.596L20.136 106.284V105.828C20.136 104.676 19.632 104.22 18.336 104.22C17.064 104.22 16.392 104.676 16.392 105.72V105.768H15.54V105.72C15.54 104.472 16.572 103.452 18.396 103.452C20.196 103.452 20.964 104.484 20.964 105.792V109.5H20.196V107.904H20.136C19.788 108.996 18.744 109.62 17.364 109.62ZM16.26 108.048C16.26 108.648 16.656 108.96 17.556 108.96C18.996 108.96 20.136 108.324 20.136 106.896V106.848L17.58 107.136C16.692 107.22 16.26 107.436 16.26 108.048ZM23.2165 109.5H22.3645V103.572H23.1325V105.432H23.1925C23.3965 104.424 24.2365 103.452 25.7125 103.452C27.3805 103.452 28.2085 104.64 28.2085 106.044V109.5H27.3565V106.164C27.3565 104.94 26.7685 104.232 25.4125 104.232C23.9725 104.232 23.2165 105.108 23.2165 106.632V109.5ZM32.151 109.62C30.255 109.62 29.199 108.336 29.199 106.536C29.199 104.736 30.255 103.452 32.079 103.452C33.483 103.452 34.359 104.208 34.623 105.228H34.683V101.46H35.535V109.5H34.755V107.748H34.707C34.419 108.936 33.459 109.62 32.151 109.62ZM30.063 106.536C30.063 108.252 30.975 108.84 32.367 108.84C33.759 108.84 34.683 108.036 34.683 106.632V106.524C34.683 105.06 33.807 104.244 32.343 104.244C30.987 104.244 30.063 104.82 30.063 106.536ZM41.9892 109.62C40.0812 109.62 38.8692 108.42 38.8692 106.536C38.8692 104.736 40.0692 103.452 41.9772 103.452C43.7172 103.452 44.9532 104.46 44.9532 106.224C44.9532 106.44 44.9292 106.62 44.8932 106.776H39.6732C39.7212 108.108 40.4052 108.912 41.9772 108.912C43.3692 108.912 44.0172 108.396 44.0172 107.532V107.448H44.8692V107.532C44.8692 108.768 43.6452 109.62 41.9892 109.62ZM41.9652 104.16C40.4292 104.16 39.7332 104.952 39.6732 106.248H44.1492C44.1492 106.188 44.1492 106.128 44.1492 106.068C44.1492 104.82 43.3572 104.16 41.9652 104.16ZM46.9353 109.5H46.0833V103.572H46.8513V105.432H46.9113C47.1153 104.424 47.9553 103.452 49.4313 103.452C51.0993 103.452 51.9273 104.64 51.9273 106.044V109.5H51.0753V106.164C51.0753 104.94 50.4873 104.232 49.1313 104.232C47.6913 104.232 46.9353 105.108 46.9353 106.632V109.5ZM54.1777 102.816H53.3258V101.46H54.1777V102.816ZM52.3417 111.54H51.8857V110.844H52.3897C52.9897 110.844 53.3258 110.604 53.3258 109.956V103.572H54.1777V109.776C54.1777 111.072 53.3857 111.54 52.3417 111.54ZM58.5263 109.62C56.5943 109.62 55.3103 108.336 55.3103 106.536C55.3103 104.736 56.5943 103.452 58.5263 103.452C60.4703 103.452 61.7543 104.736 61.7543 106.536C61.7543 108.336 60.4703 109.62 58.5263 109.62ZM58.5263 108.852C60.1583 108.852 60.9143 107.976 60.9143 106.536C60.9143 105.108 60.1583 104.22 58.5263 104.22C56.8943 104.22 56.1503 105.108 56.1503 106.536C56.1503 107.976 56.8943 108.852 58.5263 108.852ZM63.668 111.54H62.924V110.76H63.824C64.424 110.76 64.652 110.58 64.88 110.088L65.168 109.488L62.228 103.572H63.164L64.904 107.1L65.564 108.552H65.636L66.272 107.088L67.916 103.572H68.852L65.636 110.328C65.204 111.24 64.652 111.54 63.668 111.54ZM74.4803 109.62C72.6562 109.62 71.6003 108.888 71.6003 107.52V107.496H72.4523V107.568C72.4523 108.564 73.0403 108.912 74.4923 108.912C75.8243 108.912 76.2803 108.6 76.2803 107.916C76.2803 107.292 75.9083 107.088 74.9243 106.932L73.3403 106.704C72.2603 106.56 71.5763 106.14 71.5763 105.156C71.5763 104.112 72.5723 103.452 74.2043 103.452C75.9083 103.452 77.0123 104.172 77.0123 105.564V105.588H76.1603V105.528C76.1603 104.64 75.6923 104.16 74.1803 104.16C72.9323 104.16 72.4163 104.46 72.4163 105.168C72.4163 105.78 72.7283 105.996 73.7123 106.14L75.1643 106.344C76.4363 106.524 77.1203 106.956 77.1203 107.916C77.1203 109.032 76.0163 109.62 74.4803 109.62ZM81.0595 109.62C79.1515 109.62 77.9395 108.42 77.9395 106.536C77.9395 104.736 79.1395 103.452 81.0475 103.452C82.7875 103.452 84.0235 104.46 84.0235 106.224C84.0235 106.44 83.9995 106.62 83.9635 106.776H78.7435C78.7915 108.108 79.4755 108.912 81.0475 108.912C82.4395 108.912 83.0875 108.396 83.0875 107.532V107.448H83.9395V107.532C83.9395 108.768 82.7155 109.62 81.0595 109.62ZM81.0355 104.16C79.4995 104.16 78.8035 104.952 78.7435 106.248H83.2195C83.2195 106.188 83.2195 106.128 83.2195 106.068C83.2195 104.82 82.4275 104.16 81.0355 104.16ZM86.7976 109.62C85.6336 109.62 84.8416 109.068 84.8416 108.108C84.8416 107.136 85.6456 106.716 86.7496 106.596L89.5696 106.284V105.828C89.5696 104.676 89.0656 104.22 87.7696 104.22C86.4976 104.22 85.8256 104.676 85.8256 105.72V105.768H84.9736V105.72C84.9736 104.472 86.0056 103.452 87.8296 103.452C89.6296 103.452 90.3976 104.484 90.3976 105.792V109.5H89.6296V107.904H89.5696C89.2216 108.996 88.1776 109.62 86.7976 109.62ZM85.6936 108.048C85.6936 108.648 86.0896 108.96 86.9896 108.96C88.4296 108.96 89.5696 108.324 89.5696 106.896V106.848L87.0136 107.136C86.1256 107.22 85.6936 107.436 85.6936 108.048ZM92.6501 109.5H91.7981V103.572H92.5661V105.36H92.6141C92.7821 104.364 93.4661 103.452 94.9421 103.452C96.2621 103.452 97.0061 104.268 97.1981 105.42H97.2581C97.4261 104.4 98.1341 103.452 99.6221 103.452C101.17 103.452 101.974 104.544 101.974 106.044V109.5H101.122V106.164C101.122 104.844 100.558 104.232 99.3101 104.232C97.8821 104.232 97.3061 105.06 97.3061 106.632V109.5H96.4541V106.164C96.4541 104.844 95.9021 104.232 94.6541 104.232C93.2141 104.232 92.6501 105.06 92.6501 106.632V109.5ZM104.217 109.5H103.365V101.46H104.217V109.5ZM108.47 109.62C106.562 109.62 105.35 108.42 105.35 106.536C105.35 104.736 106.55 103.452 108.458 103.452C110.198 103.452 111.434 104.46 111.434 106.224C111.434 106.44 111.41 106.62 111.374 106.776H106.154C106.202 108.108 106.886 108.912 108.458 108.912C109.85 108.912 110.498 108.396 110.498 107.532V107.448H111.35V107.532C111.35 108.768 110.126 109.62 108.47 109.62ZM108.446 104.16C106.91 104.16 106.214 104.952 106.154 106.248H110.63C110.63 106.188 110.63 106.128 110.63 106.068C110.63 104.82 109.838 104.16 108.446 104.16ZM115.168 109.62C113.344 109.62 112.288 108.888 112.288 107.52V107.496H113.14V107.568C113.14 108.564 113.728 108.912 115.18 108.912C116.512 108.912 116.968 108.6 116.968 107.916C116.968 107.292 116.596 107.088 115.612 106.932L114.028 106.704C112.948 106.56 112.264 106.14 112.264 105.156C112.264 104.112 113.26 103.452 114.892 103.452C116.596 103.452 117.7 104.172 117.7 105.564V105.588H116.848V105.528C116.848 104.64 116.38 104.16 114.868 104.16C113.62 104.16 113.104 104.46 113.104 105.168C113.104 105.78 113.416 105.996 114.4 106.14L115.852 106.344C117.124 106.524 117.808 106.956 117.808 107.916C117.808 109.032 116.704 109.62 115.168 109.62ZM121.531 109.62C119.707 109.62 118.651 108.888 118.651 107.52V107.496H119.503V107.568C119.503 108.564 120.091 108.912 121.543 108.912C122.875 108.912 123.331 108.6 123.331 107.916C123.331 107.292 122.959 107.088 121.975 106.932L120.391 106.704C119.311 106.56 118.627 106.14 118.627 105.156C118.627 104.112 119.623 103.452 121.255 103.452C122.959 103.452 124.063 104.172 124.063 105.564V105.588H123.211V105.528C123.211 104.64 122.743 104.16 121.231 104.16C119.983 104.16 119.467 104.46 119.467 105.168C119.467 105.78 119.779 105.996 120.763 106.14L122.215 106.344C123.487 106.524 124.171 106.956 124.171 107.916C124.171 109.032 123.067 109.62 121.531 109.62ZM131.129 109.5H129.845C128.669 109.5 127.913 109.008 127.913 107.616V104.304H126.857V103.572H127.913V102.156H128.777V103.572H131.129V104.304H128.777V107.664C128.777 108.492 129.185 108.72 130.049 108.72H131.129V109.5ZM132.916 109.5H132.064V103.572H132.832V105.192H132.892C133.072 104.244 133.744 103.452 134.98 103.452C136.348 103.452 136.948 104.46 136.948 105.564V106.152H136.096V105.696C136.096 104.688 135.676 104.196 134.644 104.196C133.444 104.196 132.916 104.952 132.916 106.284V109.5ZM139.579 109.62C138.415 109.62 137.623 109.068 137.623 108.108C137.623 107.136 138.427 106.716 139.531 106.596L142.351 106.284V105.828C142.351 104.676 141.847 104.22 140.551 104.22C139.279 104.22 138.607 104.676 138.607 105.72V105.768H137.755V105.72C137.755 104.472 138.787 103.452 140.611 103.452C142.411 103.452 143.179 104.484 143.179 105.792V109.5H142.411V107.904H142.351C142.003 108.996 140.959 109.62 139.579 109.62ZM138.475 108.048C138.475 108.648 138.871 108.96 139.771 108.96C141.211 108.96 142.351 108.324 142.351 106.896V106.848L139.795 107.136C138.907 107.22 138.475 107.436 138.475 108.048ZM145.431 109.5H144.579V103.572H145.347V105.432H145.407C145.611 104.424 146.451 103.452 147.927 103.452C149.595 103.452 150.423 104.64 150.423 106.044V109.5H149.571V106.164C149.571 104.94 148.983 104.232 147.627 104.232C146.187 104.232 145.431 105.108 145.431 106.632V109.5ZM154.414 109.62C152.59 109.62 151.534 108.888 151.534 107.52V107.496H152.386V107.568C152.386 108.564 152.974 108.912 154.426 108.912C155.758 108.912 156.214 108.6 156.214 107.916C156.214 107.292 155.842 107.088 154.858 106.932L153.274 106.704C152.194 106.56 151.51 106.14 151.51 105.156C151.51 104.112 152.506 103.452 154.138 103.452C155.842 103.452 156.946 104.172 156.946 105.564V105.588H156.094V105.528C156.094 104.64 155.626 104.16 154.114 104.16C152.866 104.16 152.35 104.46 152.35 105.168C152.35 105.78 152.662 105.996 153.646 106.14L155.098 106.344C156.37 106.524 157.054 106.956 157.054 107.916C157.054 109.032 155.95 109.62 154.414 109.62ZM159.817 109.62C158.653 109.62 157.861 109.068 157.861 108.108C157.861 107.136 158.665 106.716 159.769 106.596L162.589 106.284V105.828C162.589 104.676 162.085 104.22 160.789 104.22C159.517 104.22 158.845 104.676 158.845 105.72V105.768H157.993V105.72C157.993 104.472 159.025 103.452 160.849 103.452C162.649 103.452 163.417 104.484 163.417 105.792V109.5H162.649V107.904H162.589C162.241 108.996 161.197 109.62 159.817 109.62ZM158.713 108.048C158.713 108.648 159.109 108.96 160.009 108.96C161.449 108.96 162.589 108.324 162.589 106.896V106.848L160.033 107.136C159.145 107.22 158.713 107.436 158.713 108.048ZM167.65 109.62C165.754 109.62 164.518 108.336 164.518 106.536C164.518 104.736 165.754 103.452 167.65 103.452C169.306 103.452 170.602 104.436 170.602 105.864V105.96H169.762V105.888C169.762 104.832 168.994 104.232 167.638 104.232C166.054 104.232 165.37 105.084 165.37 106.536C165.37 107.988 166.054 108.84 167.638 108.84C168.994 108.84 169.762 108.24 169.762 107.184V107.112H170.602V107.208C170.602 108.636 169.306 109.62 167.65 109.62ZM175.379 109.5H174.095C172.919 109.5 172.163 109.008 172.163 107.616V104.304H171.107V103.572H172.163V102.156H173.027V103.572H175.379V104.304H173.027V107.664C173.027 108.492 173.435 108.72 174.299 108.72H175.379V109.5ZM177.166 102.816H176.314V101.46H177.166V102.816ZM177.166 109.5H176.314V103.572H177.166V109.5ZM181.503 109.62C179.571 109.62 178.287 108.336 178.287 106.536C178.287 104.736 179.571 103.452 181.503 103.452C183.447 103.452 184.731 104.736 184.731 106.536C184.731 108.336 183.447 109.62 181.503 109.62ZM181.503 108.852C183.135 108.852 183.891 107.976 183.891 106.536C183.891 105.108 183.135 104.22 181.503 104.22C179.871 104.22 179.127 105.108 179.127 106.536C179.127 107.976 179.871 108.852 181.503 108.852ZM186.717 109.5H185.865V103.572H186.633V105.432H186.693C186.897 104.424 187.737 103.452 189.213 103.452C190.881 103.452 191.709 104.64 191.709 106.044V109.5H190.857V106.164C190.857 104.94 190.269 104.232 188.913 104.232C187.473 104.232 186.717 105.108 186.717 106.632V109.5ZM195.699 109.62C193.875 109.62 192.819 108.888 192.819 107.52V107.496H193.671V107.568C193.671 108.564 194.259 108.912 195.711 108.912C197.043 108.912 197.499 108.6 197.499 107.916C197.499 107.292 197.127 107.088 196.143 106.932L194.559 106.704C193.479 106.56 192.795 106.14 192.795 105.156C192.795 104.112 193.791 103.452 195.423 103.452C197.127 103.452 198.231 104.172 198.231 105.564V105.588H197.379V105.528C197.379 104.64 196.911 104.16 195.399 104.16C194.151 104.16 193.635 104.46 193.635 105.168C193.635 105.78 193.947 105.996 194.931 106.14L196.383 106.344C197.655 106.524 198.339 106.956 198.339 107.916C198.339 109.032 197.235 109.62 195.699 109.62ZM18.072 124.5H17.016L15.12 118.572H15.996L17.256 122.496L17.556 123.756H17.628L18.036 122.424L19.596 118.572H20.688L22.236 122.424L22.644 123.744H22.716L23.004 122.496L24.276 118.572H25.152L23.232 124.5H22.164L20.628 120.624L20.16 119.304H20.1L19.632 120.624L18.072 124.5ZM26.8376 117.816H25.9856V116.46H26.8376V117.816ZM26.8376 124.5H25.9856V118.572H26.8376V124.5ZM31.9068 124.5H30.6228C29.4468 124.5 28.6908 124.008 28.6908 122.616V119.304H27.6348V118.572H28.6908V117.156H29.5548V118.572H31.9068V119.304H29.5548V122.664C29.5548 123.492 29.9628 123.72 30.8268 123.72H31.9068V124.5ZM33.6931 124.5H32.8411V116.46H33.6931V120.384H33.7531C33.9451 119.388 34.7131 118.452 36.2251 118.452C37.8811 118.452 38.7091 119.556 38.7091 121.056V124.5H37.8571V121.164C37.8571 119.808 37.2211 119.232 35.8891 119.232C34.3051 119.232 33.6931 120.24 33.6931 121.716V124.5ZM45.2256 124.62C43.2936 124.62 42.0096 123.336 42.0096 121.536C42.0096 119.736 43.2936 118.452 45.2256 118.452C47.1696 118.452 48.4536 119.736 48.4536 121.536C48.4536 123.336 47.1696 124.62 45.2256 124.62ZM45.2256 123.852C46.8576 123.852 47.6136 122.976 47.6136 121.536C47.6136 120.108 46.8576 119.22 45.2256 119.22C43.5936 119.22 42.8496 120.108 42.8496 121.536C42.8496 122.976 43.5936 123.852 45.2256 123.852ZM52.0712 124.62C50.3792 124.62 49.5512 123.444 49.5512 122.04V118.572H50.4032V121.908C50.4032 123.144 51.0032 123.852 52.3712 123.852C53.8232 123.852 54.5792 122.976 54.5792 121.452V118.572H55.4312V124.5H54.6632V122.652H54.6032C54.3992 123.66 53.5472 124.62 52.0712 124.62ZM57.7165 124.5H56.8645V118.572H57.6325V120.192H57.6925C57.8725 119.244 58.5445 118.452 59.7805 118.452C61.1485 118.452 61.7485 119.46 61.7485 120.564V121.152H60.8965V120.696C60.8965 119.688 60.4765 119.196 59.4445 119.196C58.2445 119.196 57.7165 119.952 57.7165 121.284V124.5ZM65.7908 124.5H64.9388V118.572H65.7068V120.432H65.7668C65.9708 119.424 66.8108 118.452 68.2868 118.452C69.9548 118.452 70.7828 119.64 70.7828 121.044V124.5H69.9308V121.164C69.9308 119.94 69.3428 119.232 67.9868 119.232C66.5468 119.232 65.7908 120.108 65.7908 121.632V124.5ZM74.9892 124.62C73.0812 124.62 71.8692 123.42 71.8692 121.536C71.8692 119.736 73.0692 118.452 74.9772 118.452C76.7172 118.452 77.9532 119.46 77.9532 121.224C77.9532 121.44 77.9292 121.62 77.8932 121.776H72.6732C72.7212 123.108 73.4052 123.912 74.9772 123.912C76.3692 123.912 77.0172 123.396 77.0172 122.532V122.448H77.8692V122.532C77.8692 123.768 76.6452 124.62 74.9892 124.62ZM74.9652 119.16C73.4292 119.16 72.7332 119.952 72.6732 121.248H77.1492C77.1492 121.188 77.1492 121.128 77.1492 121.068C77.1492 119.82 76.3572 119.16 74.9652 119.16ZM81.4353 124.5H80.3793L78.4833 118.572H79.3593L80.6193 122.496L80.9193 123.756H80.9913L81.3993 122.424L82.9593 118.572H84.0513L85.5993 122.424L86.0073 123.744H86.0793L86.3673 122.496L87.6393 118.572H88.5153L86.5953 124.5H85.5273L83.9913 120.624L83.5233 119.304H83.4633L82.9953 120.624L81.4353 124.5ZM93.904 124.5H92.848L90.952 118.572H91.828L93.088 122.496L93.388 123.756H93.46L93.868 122.424L95.428 118.572H96.52L98.068 122.424L98.476 123.744H98.548L98.836 122.496L100.108 118.572H100.984L99.064 124.5H97.996L96.46 120.624L95.992 119.304H95.932L95.464 120.624L93.904 124.5ZM103.462 124.62C102.298 124.62 101.506 124.068 101.506 123.108C101.506 122.136 102.31 121.716 103.414 121.596L106.234 121.284V120.828C106.234 119.676 105.73 119.22 104.434 119.22C103.162 119.22 102.49 119.676 102.49 120.72V120.768H101.638V120.72C101.638 119.472 102.67 118.452 104.494 118.452C106.294 118.452 107.062 119.484 107.062 120.792V124.5H106.294V122.904H106.234C105.886 123.996 104.842 124.62 103.462 124.62ZM102.358 123.048C102.358 123.648 102.754 123.96 103.654 123.96C105.094 123.96 106.234 123.324 106.234 121.896V121.848L103.678 122.136C102.79 122.22 102.358 122.436 102.358 123.048ZM109.314 124.5H108.462V116.46H109.314V124.5ZM111.599 124.5H110.747V116.46H111.599V124.5ZM115.853 124.62C113.945 124.62 112.733 123.42 112.733 121.536C112.733 119.736 113.933 118.452 115.84 118.452C117.581 118.452 118.817 119.46 118.817 121.224C118.817 121.44 118.793 121.62 118.757 121.776H113.537C113.585 123.108 114.269 123.912 115.84 123.912C117.233 123.912 117.881 123.396 117.881 122.532V122.448H118.733V122.532C118.733 123.768 117.509 124.62 115.853 124.62ZM115.829 119.16C114.293 119.16 113.597 119.952 113.537 121.248H118.013C118.013 121.188 118.013 121.128 118.013 121.068C118.013 119.82 117.221 119.16 115.829 119.16ZM123.583 124.5H122.299C121.123 124.5 120.367 124.008 120.367 122.616V119.304H119.311V118.572H120.367V117.156H121.231V118.572H123.583V119.304H121.231V122.664C121.231 123.492 121.639 123.72 122.503 123.72H123.583V124.5ZM127.572 126.54H126.72V118.572H127.488V120.24H127.584C127.848 119.172 128.736 118.452 130.14 118.452C131.988 118.452 133.044 119.736 133.044 121.536C133.044 123.336 132 124.62 130.116 124.62C128.808 124.62 127.86 123.9 127.584 122.76H127.572V126.54ZM127.572 121.644C127.572 123.048 128.496 123.84 129.888 123.84C131.268 123.84 132.18 123.252 132.18 121.536C132.18 119.82 131.256 119.244 129.912 119.244C128.436 119.244 127.572 120.072 127.572 121.536V121.644ZM134.943 124.5H134.091V118.572H134.859V120.192H134.919C135.099 119.244 135.771 118.452 137.007 118.452C138.375 118.452 138.975 119.46 138.975 120.564V121.152H138.123V120.696C138.123 119.688 137.703 119.196 136.671 119.196C135.471 119.196 134.943 119.952 134.943 121.284V124.5ZM142.866 124.62C140.934 124.62 139.65 123.336 139.65 121.536C139.65 119.736 140.934 118.452 142.866 118.452C144.81 118.452 146.094 119.736 146.094 121.536C146.094 123.336 144.81 124.62 142.866 124.62ZM142.866 123.852C144.498 123.852 145.254 122.976 145.254 121.536C145.254 120.108 144.498 119.22 142.866 119.22C141.234 119.22 140.49 120.108 140.49 121.536C140.49 122.976 141.234 123.852 142.866 123.852ZM149.772 124.02C148.008 124.02 146.928 122.856 146.928 121.236C146.928 119.616 148.044 118.452 149.868 118.452C151.116 118.452 152.1 119.04 152.34 120.096H152.4V118.572H153.168V123.936C153.168 125.892 151.932 126.66 150.144 126.66C148.536 126.66 147.312 125.856 147.312 124.476H148.164C148.164 125.52 148.86 125.928 150.18 125.928C151.716 125.928 152.316 125.46 152.316 123.984V122.436H152.256C152.016 123.348 151.14 124.02 149.772 124.02ZM147.78 121.236C147.78 122.748 148.716 123.264 150 123.264C151.464 123.264 152.316 122.532 152.316 121.272V121.068C152.316 119.904 151.428 119.208 150.06 119.208C148.728 119.208 147.78 119.724 147.78 121.236ZM155.463 124.5H154.611V118.572H155.379V120.192H155.439C155.619 119.244 156.291 118.452 157.527 118.452C158.895 118.452 159.495 119.46 159.495 120.564V121.152H158.643V120.696C158.643 119.688 158.223 119.196 157.191 119.196C155.991 119.196 155.463 119.952 155.463 121.284V124.5ZM162.126 124.62C160.962 124.62 160.17 124.068 160.17 123.108C160.17 122.136 160.974 121.716 162.078 121.596L164.898 121.284V120.828C164.898 119.676 164.394 119.22 163.098 119.22C161.826 119.22 161.154 119.676 161.154 120.72V120.768H160.302V120.72C160.302 119.472 161.334 118.452 163.158 118.452C164.958 118.452 165.726 119.484 165.726 120.792V124.5H164.958V122.904H164.898C164.55 123.996 163.506 124.62 162.126 124.62ZM161.022 123.048C161.022 123.648 161.418 123.96 162.318 123.96C163.758 123.96 164.898 123.324 164.898 121.896V121.848L162.342 122.136C161.454 122.22 161.022 122.436 161.022 123.048ZM167.978 124.5H167.126V118.572H167.894V120.36H167.942C168.11 119.364 168.794 118.452 170.27 118.452C171.59 118.452 172.334 119.268 172.526 120.42H172.586C172.754 119.4 173.462 118.452 174.95 118.452C176.498 118.452 177.302 119.544 177.302 121.044V124.5H176.45V121.164C176.45 119.844 175.886 119.232 174.638 119.232C173.21 119.232 172.634 120.06 172.634 121.632V124.5H171.782V121.164C171.782 119.844 171.23 119.232 169.982 119.232C168.542 119.232 167.978 120.06 167.978 121.632V124.5ZM179.389 124.5H178.333V122.832H179.389V124.5Z" fill="white"/>
</g>
<circle opacity="0.5" cx="279" cy="92" r="45" fill="white"/>
<path d="M299.362 90.134V94.2854C299.362 95.3938 298.476 96.3005 297.347 96.3408H293.397C291.221 96.3408 289.226 94.7488 289.045 92.5724C288.924 91.3029 289.407 90.1139 290.254 89.2877C290.999 88.5219 292.027 88.0786 293.155 88.0786H297.347C298.476 88.1189 299.362 89.0257 299.362 90.134Z" fill="white"/>
<path opacity="0.4" d="M290.253 89.2876C289.407 90.1138 288.923 91.3028 289.044 92.5724C289.225 94.7488 291.22 96.3408 293.397 96.3408H297.347V99.2628C297.347 105.308 293.316 109.339 287.271 109.339H269.134C263.088 109.339 259.058 105.308 259.058 99.2628V85.1565C259.058 79.6752 262.363 75.8463 267.502 75.2015C268.026 75.1209 268.57 75.0806 269.134 75.0806H287.271C287.795 75.0806 288.298 75.1007 288.782 75.1813C293.981 75.7859 297.347 79.6349 297.347 85.1565V88.0785H293.155C292.027 88.0785 290.999 88.5218 290.253 89.2876Z" fill="white"/>
<path d="M281.226 87.6761H269.135C268.308 87.6761 267.623 86.9909 267.623 86.1647C267.623 85.3385 268.308 84.6533 269.135 84.6533H281.226C282.052 84.6533 282.737 85.3385 282.737 86.1647C282.737 86.9909 282.052 87.6761 281.226 87.6761Z" fill="white"/>
<rect x="15" y="147" width="92" height="32" rx="16" fill="#FFA500"/>
<path d="M28.76 166.1C26.68 166.1 25.3 164.74 25.3 162.65C25.3 160.56 26.68 159.2 28.76 159.2C30.65 159.2 31.97 160.2 31.97 161.8V161.94H30.78V161.8C30.78 160.78 30.13 160.23 28.77 160.23C27.2 160.23 26.44 160.98 26.44 162.65C26.44 164.32 27.2 165.06 28.77 165.06C30.13 165.06 30.78 164.52 30.78 163.49V163.36H31.97V163.49C31.97 165.1 30.66 166.1 28.76 166.1ZM33.8456 166H32.7656V161.03H33.7556V162.37H33.8256C33.9756 161.57 34.5156 160.93 35.5356 160.93C36.6656 160.93 37.1556 161.74 37.1556 162.68V163.33H36.0856V162.89C36.0856 162.18 35.7856 161.85 35.0456 161.85C34.1956 161.85 33.8456 162.32 33.8456 163.21V166ZM40.334 166.1C38.704 166.1 37.634 165.18 37.634 163.52C37.634 161.97 38.694 160.93 40.314 160.93C41.854 160.93 42.904 161.78 42.904 163.29C42.904 163.47 42.894 163.61 42.864 163.76H38.644C38.684 164.72 39.154 165.23 40.304 165.23C41.344 165.23 41.774 164.89 41.774 164.3V164.22H42.854V164.31C42.854 165.37 41.814 166.1 40.334 166.1ZM40.294 161.78C39.194 161.78 38.714 162.27 38.654 163.16H41.884V163.14C41.884 162.22 41.354 161.78 40.294 161.78ZM45.1729 166.1C44.1429 166.1 43.4929 165.62 43.4929 164.8C43.4929 164.03 44.1129 163.63 45.0929 163.52L47.3529 163.28V162.99C47.3529 162.17 46.9929 161.88 46.0429 161.88C45.1229 161.88 44.6729 162.18 44.6729 162.91V162.95H43.6029V162.91C43.6029 161.78 44.5429 160.93 46.1229 160.93C47.7029 160.93 48.4129 161.79 48.4129 162.98V166H47.4229V164.76H47.3529C47.0929 165.6 46.3029 166.1 45.1729 166.1ZM44.5729 164.73C44.5729 165.13 44.8429 165.32 45.4629 165.32C46.5929 165.32 47.3529 164.9 47.3529 163.92L45.4029 164.14C44.8429 164.21 44.5729 164.34 44.5729 164.73ZM52.637 166H51.497C50.427 166 49.767 165.53 49.767 164.32V161.93H48.927V161.03H49.767V159.94H50.837V161.03H52.637V161.93H50.837V164.26C50.837 164.87 51.117 165.03 51.737 165.03H52.637V166ZM55.8125 166.1C54.1825 166.1 53.1125 165.18 53.1125 163.52C53.1125 161.97 54.1725 160.93 55.7925 160.93C57.3325 160.93 58.3825 161.78 58.3825 163.29C58.3825 163.47 58.3725 163.61 58.3425 163.76H54.1225C54.1625 164.72 54.6325 165.23 55.7825 165.23C56.8225 165.23 57.2525 164.89 57.2525 164.3V164.22H58.3325V164.31C58.3325 165.37 57.2925 166.1 55.8125 166.1ZM55.7725 161.78C54.6725 161.78 54.1925 162.27 54.1325 163.16H57.3625V163.14C57.3625 162.22 56.8325 161.78 55.7725 161.78ZM62.3604 166.1C61.3304 166.1 60.6804 165.62 60.6804 164.8C60.6804 164.03 61.3004 163.63 62.2804 163.52L64.5404 163.28V162.99C64.5404 162.17 64.1804 161.88 63.2304 161.88C62.3104 161.88 61.8604 162.18 61.8604 162.91V162.95H60.7904V162.91C60.7904 161.78 61.7304 160.93 63.3104 160.93C64.8904 160.93 65.6004 161.79 65.6004 162.98V166H64.6104V164.76H64.5404C64.2804 165.6 63.4904 166.1 62.3604 166.1ZM61.7604 164.73C61.7604 165.13 62.0304 165.32 62.6504 165.32C63.7804 165.32 64.5404 164.9 64.5404 163.92L62.5904 164.14C62.0304 164.21 61.7604 164.34 61.7604 164.73ZM70.6534 166H69.3134L67.8234 161.03H68.9434L69.7734 163.85L70.0034 165.13H70.0834L70.4534 163.75L71.4934 161.03H72.8734L73.9234 163.75L74.2934 165.13H74.3734L74.6034 163.85L75.4334 161.03H76.5334L75.0234 166H73.6834L72.5934 163.14L72.2134 161.92H72.1334L71.7534 163.14L70.6534 166ZM78.542 166.1C77.512 166.1 76.862 165.62 76.862 164.8C76.862 164.03 77.482 163.63 78.462 163.52L80.722 163.28V162.99C80.722 162.17 80.362 161.88 79.412 161.88C78.492 161.88 78.042 162.18 78.042 162.91V162.95H76.972V162.91C76.972 161.78 77.912 160.93 79.492 160.93C81.072 160.93 81.782 161.79 81.782 162.98V166H80.792V164.76H80.722C80.462 165.6 79.672 166.1 78.542 166.1ZM77.942 164.73C77.942 165.13 78.212 165.32 78.832 165.32C79.962 165.32 80.722 164.9 80.722 163.92L78.772 164.14C78.212 164.21 77.942 164.34 77.942 164.73ZM83.8261 166H82.7461V159.3H83.8261V166ZM85.9062 166H84.8262V159.3H85.9062V166ZM89.4063 166.1C87.7763 166.1 86.7063 165.18 86.7063 163.52C86.7063 161.97 87.7663 160.93 89.3863 160.93C90.9263 160.93 91.9763 161.78 91.9763 163.29C91.9763 163.47 91.9663 163.61 91.9363 163.76H87.7163C87.7563 164.72 88.2263 165.23 89.3763 165.23C90.4163 165.23 90.8463 164.89 90.8463 164.3V164.22H91.9263V164.31C91.9263 165.37 90.8863 166.1 89.4063 166.1ZM89.3663 161.78C88.2663 161.78 87.7863 162.27 87.7262 163.16H90.9563V163.14C90.9563 162.22 90.4263 161.78 89.3663 161.78ZM96.0452 166H94.9052C93.8352 166 93.1752 165.53 93.1752 164.32V161.93H92.3352V161.03H93.1752V159.94H94.2452V161.03H96.0452V161.93H94.2452V164.26C94.2452 164.87 94.5252 165.03 95.1452 165.03H96.0452V166Z" fill="white"/>
<path d="M117 168.84H129V156.84H117V168.84Z" fill="white"/>
<path d="M139.86 166H134.5V159.3H139.86V160.27H135.58V162.15H139.71V163.11H135.58V165.03H139.86V166ZM141.321 166H140.031L142.171 163.54V163.48L140.031 161.03H141.341L142.991 162.91H143.051L144.681 161.03H145.981L143.841 163.46V163.52L145.981 166H144.671L143.021 164.1H142.951L141.321 166ZM148.817 166.1C147.177 166.1 146.107 165.05 146.107 163.52C146.107 161.97 147.177 160.93 148.817 160.93C150.307 160.93 151.397 161.77 151.397 163.01V163.11H150.327V163.05C150.327 162.28 149.767 161.9 148.797 161.9C147.677 161.9 147.177 162.43 147.177 163.52C147.177 164.59 147.677 165.13 148.797 165.13C149.767 165.13 150.327 164.75 150.327 163.98V163.91H151.397V164.02C151.397 165.26 150.307 166.1 148.817 166.1ZM153.076 166H151.996V159.3H153.076V166ZM155.946 166.1C154.546 166.1 153.866 165.17 153.866 164.02V161.03H154.936V163.73C154.936 164.66 155.366 165.13 156.416 165.13C157.516 165.13 158.026 164.57 158.026 163.49V161.03H159.096V166H158.106V164.46H158.046C157.886 165.3 157.226 166.1 155.946 166.1ZM162.227 166.1C160.627 166.1 159.717 165.47 159.717 164.32V164.29H160.797V164.37C160.797 165.02 161.187 165.23 162.227 165.23C163.197 165.23 163.487 165.03 163.487 164.59C163.487 164.18 163.247 164.05 162.537 163.95L161.177 163.77C160.237 163.65 159.667 163.25 159.667 162.42C159.667 161.55 160.457 160.93 161.987 160.93C163.507 160.93 164.427 161.54 164.427 162.72V162.75H163.357V162.69C163.357 162.1 163.057 161.79 161.957 161.79C161.047 161.79 160.727 161.99 160.727 162.46C160.727 162.85 160.927 162.99 161.677 163.09L162.827 163.25C164.007 163.4 164.547 163.8 164.547 164.62C164.547 165.55 163.627 166.1 162.227 166.1ZM166.206 160.45H165.126V159.3H166.206V160.45ZM166.206 166H165.126V161.03H166.206V166ZM170.196 166H168.876L166.556 161.03H167.746L169.516 164.95H169.596L171.366 161.03H172.536L170.196 166ZM175.39 166.1C173.76 166.1 172.69 165.18 172.69 163.52C172.69 161.97 173.75 160.93 175.37 160.93C176.91 160.93 177.96 161.78 177.96 163.29C177.96 163.47 177.95 163.61 177.92 163.76H173.7C173.74 164.72 174.21 165.23 175.36 165.23C176.4 165.23 176.83 164.89 176.83 164.3V164.22H177.91V164.31C177.91 165.37 176.87 166.1 175.39 166.1ZM175.35 161.78C174.25 161.78 173.77 162.27 173.71 163.16H176.94V163.14C176.94 162.22 176.41 161.78 175.35 161.78ZM182.268 166.1C180.698 166.1 179.828 165.05 179.828 163.52C179.828 161.97 180.688 160.93 182.198 160.93C183.378 160.93 184.048 161.54 184.248 162.38H184.308V159.3H185.388V166H184.398V164.57H184.328C184.118 165.56 183.388 166.1 182.268 166.1ZM180.918 163.52C180.918 164.71 181.528 165.11 182.598 165.11C183.658 165.11 184.308 164.61 184.308 163.57V163.49C184.308 162.43 183.688 161.91 182.578 161.91C181.538 161.91 180.918 162.32 180.918 163.52ZM188.687 166.1C187.057 166.1 185.987 165.18 185.987 163.52C185.987 161.97 187.047 160.93 188.667 160.93C190.207 160.93 191.257 161.78 191.257 163.29C191.257 163.47 191.247 163.61 191.217 163.76H186.997C187.037 164.72 187.507 165.23 188.657 165.23C189.697 165.23 190.127 164.89 190.127 164.3V164.22H191.207V164.31C191.207 165.37 190.167 166.1 188.687 166.1ZM188.647 161.78C187.547 161.78 187.067 162.27 187.007 163.16H190.237V163.14C190.237 162.22 189.707 161.78 188.647 161.78ZM193.326 166.1C192.296 166.1 191.646 165.62 191.646 164.8C191.646 164.03 192.266 163.63 193.246 163.52L195.506 163.28V162.99C195.506 162.17 195.146 161.88 194.196 161.88C193.276 161.88 192.826 162.18 192.826 162.91V162.95H191.756V162.91C191.756 161.78 192.696 160.93 194.276 160.93C195.856 160.93 196.566 161.79 196.566 162.98V166H195.576V164.76H195.506C195.246 165.6 194.456 166.1 193.326 166.1ZM192.726 164.73C192.726 165.13 192.996 165.32 193.616 165.32C194.746 165.32 195.506 164.9 195.506 163.92L193.556 164.14C192.996 164.21 192.726 164.34 192.726 164.73ZM198.41 166H197.33V159.3H198.41V166ZM201.56 166.1C199.96 166.1 199.05 165.47 199.05 164.32V164.29H200.13V164.37C200.13 165.02 200.52 165.23 201.56 165.23C202.53 165.23 202.82 165.03 202.82 164.59C202.82 164.18 202.58 164.05 201.87 163.95L200.51 163.77C199.57 163.65 199 163.25 199 162.42C199 161.55 199.79 160.93 201.32 160.93C202.84 160.93 203.76 161.54 203.76 162.72V162.75H202.69V162.69C202.69 162.1 202.39 161.79 201.29 161.79C200.38 161.79 200.06 161.99 200.06 162.46C200.06 162.85 200.26 162.99 201.01 163.09L202.16 163.25C203.34 163.4 203.88 163.8 203.88 164.62C203.88 165.55 202.96 166.1 201.56 166.1Z" fill="#FFA500"/>
<circle cx="211" cy="163" r="1" fill="white"/>
<path d="M217 168.84H229V156.84H217V168.84Z" fill="white"/>
<path d="M238.819 166.1C236.819 166.1 235.799 165.22 235.799 163.81V163.75H236.879V163.91C236.879 164.71 237.349 165.11 238.819 165.11C240.099 165.11 240.549 164.83 240.549 164.2C240.549 163.62 240.209 163.4 239.359 163.24L237.719 162.97C236.589 162.77 235.789 162.25 235.789 161.15C235.789 160.18 236.589 159.2 238.669 159.2C240.629 159.2 241.519 160.18 241.519 161.49V161.55H240.449V161.42C240.449 160.6 239.959 160.19 238.569 160.19C237.349 160.19 236.869 160.49 236.869 161.09C236.869 161.67 237.209 161.86 237.999 162.03L239.629 162.31C240.969 162.55 241.629 163.16 241.629 164.14C241.629 165.16 240.799 166.1 238.819 166.1ZM244.266 166.1C242.866 166.1 242.186 165.17 242.186 164.02V161.03H243.256V163.73C243.256 164.66 243.686 165.13 244.736 165.13C245.836 165.13 246.346 164.57 246.346 163.49V161.03H247.416V166H246.426V164.46H246.366C246.206 165.3 245.546 166.1 244.266 166.1ZM249.277 167.7H248.197V161.03H249.187V162.41H249.277C249.477 161.49 250.177 160.93 251.347 160.93C252.887 160.93 253.757 161.98 253.757 163.52C253.757 165.06 252.907 166.1 251.357 166.1C250.237 166.1 249.517 165.51 249.317 164.6H249.277V167.7ZM249.277 163.6C249.277 164.62 249.927 165.12 250.987 165.12C252.057 165.12 252.677 164.71 252.677 163.52C252.677 162.32 252.047 161.92 251.007 161.92C249.897 161.92 249.277 162.44 249.277 163.51V163.6ZM256.805 166.1C255.175 166.1 254.105 165.18 254.105 163.52C254.105 161.97 255.165 160.93 256.785 160.93C258.325 160.93 259.375 161.78 259.375 163.29C259.375 163.47 259.365 163.61 259.335 163.76H255.115C255.155 164.72 255.625 165.23 256.775 165.23C257.815 165.23 258.245 164.89 258.245 164.3V164.22H259.325V164.31C259.325 165.37 258.285 166.1 256.805 166.1ZM256.765 161.78C255.665 161.78 255.185 162.27 255.125 163.16H258.355V163.14C258.355 162.22 257.825 161.78 256.765 161.78ZM261.064 166H259.984V161.03H260.974V162.37H261.044C261.194 161.57 261.734 160.93 262.754 160.93C263.884 160.93 264.374 161.74 264.374 162.68V163.33H263.304V162.89C263.304 162.18 263.004 161.85 262.264 161.85C261.414 161.85 261.064 162.32 261.064 163.21V166ZM267.822 166H266.742V161.93H265.992V161.03H266.752C266.872 159.94 267.702 159.3 269.112 159.3H269.602V160.1H268.942C268.152 160.1 267.742 160.31 267.802 161.03H269.602V161.93H267.822V166ZM271.46 166.1C270.43 166.1 269.78 165.62 269.78 164.8C269.78 164.03 270.4 163.63 271.38 163.52L273.64 163.28V162.99C273.64 162.17 273.28 161.88 272.33 161.88C271.41 161.88 270.96 162.18 270.96 162.91V162.95H269.89V162.91C269.89 161.78 270.83 160.93 272.41 160.93C273.99 160.93 274.7 161.79 274.7 162.98V166H273.71V164.76H273.64C273.38 165.6 272.59 166.1 271.46 166.1ZM270.86 164.73C270.86 165.13 271.13 165.32 271.75 165.32C272.88 165.32 273.64 164.9 273.64 163.92L271.69 164.14C271.13 164.21 270.86 164.34 270.86 164.73ZM277.814 166.1C276.214 166.1 275.304 165.47 275.304 164.32V164.29H276.384V164.37C276.384 165.02 276.774 165.23 277.814 165.23C278.784 165.23 279.074 165.03 279.074 164.59C279.074 164.18 278.834 164.05 278.124 163.95L276.764 163.77C275.824 163.65 275.254 163.25 275.254 162.42C275.254 161.55 276.044 160.93 277.574 160.93C279.094 160.93 280.014 161.54 280.014 162.72V162.75H278.944V162.69C278.944 162.1 278.644 161.79 277.544 161.79C276.634 161.79 276.314 161.99 276.314 162.46C276.314 162.85 276.514 162.99 277.264 163.09L278.414 163.25C279.594 163.4 280.134 163.8 280.134 164.62C280.134 165.55 279.214 166.1 277.814 166.1ZM283.973 166H282.833C281.763 166 281.103 165.53 281.103 164.32V161.93H280.263V161.03H281.103V159.94H282.173V161.03H283.973V161.93H282.173V164.26C282.173 164.87 282.453 165.03 283.073 165.03H283.973V166ZM288.307 166.1C286.707 166.1 285.797 165.47 285.797 164.32V164.29H286.877V164.37C286.877 165.02 287.267 165.23 288.307 165.23C289.277 165.23 289.567 165.03 289.567 164.59C289.567 164.18 289.327 164.05 288.617 163.95L287.257 163.77C286.317 163.65 285.747 163.25 285.747 162.42C285.747 161.55 286.537 160.93 288.067 160.93C289.587 160.93 290.507 161.54 290.507 162.72V162.75H289.437V162.69C289.437 162.1 289.137 161.79 288.037 161.79C287.127 161.79 286.807 161.99 286.807 162.46C286.807 162.85 287.007 162.99 287.757 163.09L288.907 163.25C290.087 163.4 290.627 163.8 290.627 164.62C290.627 165.55 289.707 166.1 288.307 166.1ZM292.287 166H291.207V159.3H292.287V162.55H292.347C292.517 161.71 293.127 160.93 294.397 160.93C295.767 160.93 296.437 161.83 296.437 163.04V166H295.367V163.3C295.367 162.3 294.917 161.9 293.887 161.9C292.707 161.9 292.287 162.54 292.287 163.59V166ZM298.288 160.45H297.208V159.3H298.288V160.45ZM298.288 166H297.208V161.03H298.288V166ZM300.168 167.7H299.088V161.03H300.078V162.41H300.168C300.368 161.49 301.068 160.93 302.238 160.93C303.778 160.93 304.648 161.98 304.648 163.52C304.648 165.06 303.798 166.1 302.248 166.1C301.128 166.1 300.408 165.51 300.208 164.6H300.168V167.7ZM300.168 163.6C300.168 164.62 300.818 165.12 301.878 165.12C302.948 165.12 303.568 164.71 303.568 163.52C303.568 162.32 302.938 161.92 301.898 161.92C300.788 161.92 300.168 162.44 300.168 163.51V163.6ZM306.276 167.7H305.196V161.03H306.186V162.41H306.276C306.476 161.49 307.176 160.93 308.346 160.93C309.886 160.93 310.756 161.98 310.756 163.52C310.756 165.06 309.906 166.1 308.356 166.1C307.236 166.1 306.516 165.51 306.316 164.6H306.276V167.7ZM306.276 163.6C306.276 164.62 306.926 165.12 307.986 165.12C309.056 165.12 309.676 164.71 309.676 163.52C309.676 162.32 309.046 161.92 308.006 161.92C306.896 161.92 306.276 162.44 306.276 163.51V163.6ZM312.385 160.45H311.305V159.3H312.385V160.45ZM312.385 166H311.305V161.03H312.385V166ZM314.265 166H313.185V161.03H314.175V162.57H314.245C314.395 161.73 315.055 160.93 316.315 160.93C317.695 160.93 318.375 161.86 318.375 163.01V166H317.295V163.3C317.295 162.37 316.875 161.9 315.845 161.9C314.755 161.9 314.265 162.46 314.265 163.54V166ZM321.297 165.55C319.817 165.55 318.937 164.62 318.937 163.24C318.937 161.86 319.857 160.93 321.367 160.93C322.407 160.93 323.187 161.4 323.367 162.27H323.427V161.03H324.417V165.42C324.417 167.09 323.377 167.8 321.747 167.8C320.277 167.8 319.257 167.11 319.257 165.91H320.327C320.327 166.63 320.747 166.9 321.807 166.9C322.937 166.9 323.347 166.59 323.347 165.48V164.26H323.277C323.097 165.01 322.427 165.55 321.297 165.55ZM320.027 163.24C320.027 164.26 320.627 164.62 321.647 164.62C322.747 164.62 323.347 164.16 323.347 163.28V163.14C323.347 162.3 322.727 161.87 321.677 161.87C320.637 161.87 320.027 162.22 320.027 163.24Z" fill="#FFA500"/>
</svg>
